<mxfile host="65bd71144e">
    <diagram id="-iqS4jfQVKeVQ1plABdw" name="Page-1">
        <mxGraphModel dx="3998" dy="2155" grid="1" gridSize="10" guides="1" tooltips="1" connect="1" arrows="1" fold="1" page="1" pageScale="1" pageWidth="4500" pageHeight="2500" math="0" shadow="0">
            <root>
                <mxCell id="0"/>
                <mxCell id="1" parent="0"/>
                <mxCell id="2" value="&lt;font style=&quot;font-size: 35px;&quot;&gt;Kubernetes-Cluster&lt;/font&gt;" style="rounded=0;whiteSpace=wrap;html=1;verticalAlign=top;labelBackgroundColor=none;fontColor=#666666;fillColor=#CCCCCC;fontStyle=1" parent="1" vertex="1">
                    <mxGeometry x="360" y="130" width="2030" height="1350" as="geometry"/>
                </mxCell>
                <mxCell id="5" value="Logs" style="rounded=0;whiteSpace=wrap;html=1;labelBackgroundColor=none;fontSize=35;fontColor=#666666;fillColor=#EDAFB8;verticalAlign=top;fontStyle=1" parent="1" vertex="1">
                    <mxGeometry x="920" y="230" width="910" height="350" as="geometry"/>
                </mxCell>
                <mxCell id="8" value="Promtail&lt;br&gt;- Log forwarding -" style="text;strokeColor=none;align=center;fillColor=none;html=1;verticalAlign=middle;whiteSpace=wrap;rounded=0;labelBackgroundColor=none;fontSize=35;fontColor=#666666;" parent="1" vertex="1">
                    <mxGeometry x="1150" y="471" width="290" height="90" as="geometry"/>
                </mxCell>
                <mxCell id="9" value="Loki&lt;br&gt;- Log storage -" style="text;strokeColor=none;align=center;fillColor=none;html=1;verticalAlign=middle;whiteSpace=wrap;rounded=0;labelBackgroundColor=none;fontSize=35;fontColor=#666666;" parent="1" vertex="1">
                    <mxGeometry x="1550" y="471" width="250" height="90" as="geometry"/>
                </mxCell>
                <mxCell id="13" value="Metrics" style="rounded=0;whiteSpace=wrap;html=1;labelBackgroundColor=none;fontSize=35;fontColor=#666666;fillColor=#F7E1D7;verticalAlign=top;fontStyle=1" parent="1" vertex="1">
                    <mxGeometry x="920" y="657.5" width="910" height="350" as="geometry"/>
                </mxCell>
                <mxCell id="15" value="Dashboard and Visualization" style="rounded=0;whiteSpace=wrap;html=1;labelBackgroundColor=none;fontSize=35;fontColor=#666666;fillColor=#B0C4B1;verticalAlign=top;fontStyle=1" parent="1" vertex="1">
                    <mxGeometry x="1930" y="230" width="390" height="1195" as="geometry"/>
                </mxCell>
                <mxCell id="10" value="Grafana" style="text;strokeColor=none;align=center;fillColor=none;html=1;verticalAlign=middle;whiteSpace=wrap;rounded=0;labelBackgroundColor=none;fontSize=35;fontColor=#666666;" parent="1" vertex="1">
                    <mxGeometry x="2050" y="920" width="150" height="60" as="geometry"/>
                </mxCell>
                <mxCell id="11" value="Prometheus&lt;br&gt;- Metric scraping -" style="text;strokeColor=none;align=center;fillColor=none;html=1;verticalAlign=middle;whiteSpace=wrap;rounded=0;labelBackgroundColor=none;fontSize=35;fontColor=#666666;" parent="1" vertex="1">
                    <mxGeometry x="1050" y="895" width="310" height="110" as="geometry"/>
                </mxCell>
                <mxCell id="14" value="Traces" style="rounded=0;whiteSpace=wrap;html=1;labelBackgroundColor=none;fontSize=35;fontColor=#666666;fillColor=#DEDBD2;verticalAlign=top;fontStyle=1" parent="1" vertex="1">
                    <mxGeometry x="920" y="1075" width="910" height="350" as="geometry"/>
                </mxCell>
                <mxCell id="12" value="Tempo&lt;br&gt;- Trace storage -" style="text;strokeColor=none;align=center;fillColor=none;html=1;verticalAlign=middle;whiteSpace=wrap;rounded=0;labelBackgroundColor=none;fontSize=35;fontColor=#666666;" parent="1" vertex="1">
                    <mxGeometry x="1238.1499999999999" y="1290" width="273.7" height="90" as="geometry"/>
                </mxCell>
                <mxCell id="16" value="Micro-Services" style="rounded=0;whiteSpace=wrap;html=1;labelBackgroundColor=none;fontSize=35;fontColor=#CCCCCC;fillColor=#4A5759;verticalAlign=top;fontStyle=1" parent="1" vertex="1">
                    <mxGeometry x="420" y="230" width="390" height="1195" as="geometry"/>
                </mxCell>
                <mxCell id="19" style="edgeStyle=none;html=1;entryX=0;entryY=0.5;entryDx=0;entryDy=0;fontSize=35;fontColor=#E6E6E6;strokeColor=#999999;strokeWidth=2;" parent="1" source="17" target="18" edge="1">
                    <mxGeometry relative="1" as="geometry"/>
                </mxCell>
                <mxCell id="37" value="pushes logs" style="edgeLabel;html=1;align=center;verticalAlign=middle;resizable=0;points=[];fontSize=25;fontColor=#666666;labelBackgroundColor=none;" parent="19" vertex="1" connectable="0">
                    <mxGeometry x="0.2909" y="-3" relative="1" as="geometry">
                        <mxPoint x="-35" y="-22" as="offset"/>
                    </mxGeometry>
                </mxCell>
                <mxCell id="17" value="" style="shape=image;verticalLabelPosition=bottom;labelBackgroundColor=default;verticalAlign=top;aspect=fixed;imageAspect=0;image=data:image/png,iVBORw0KGgoAAAANSUhEUgAAANEAAADxCAYAAABVllLZAAAAAXNSR0IArs4c6QAAAARnQU1BAACxjwv8YQUAAAAJcEhZcwAADsMAAA7DAcdvqGQAACYTSURBVHhe7Z1ZlyRHdcereOqe6W7DN9AgdoERi55sI8B+MmAYGx8vwEEcFrEIGGGxiEWaRohVYgQSi8UBjTB4xUcNxrwYmBkDL2YbWWIkIaTpb6BxbzNv5RsZERk3Im5E3sjKWrLq/o6uqroqMrKq5/4z4v4zMns4Go0GfeH/Xvfca37v2w+eND8KwlzQKxEJwjzyJPMoCEJLRESCMCYiIkEYk5nURDtvveI4PDwf4kqIywbDwWDj7t/A/wWhf0xNRCCc++DhNUowFCIioa9Mbzo3HNyfEpBi523V6CQIvWNqIoKRJhaJEpULNb0ThN4xXWPBF43G/azqI0HoHdMW0QUkGh2Oy8yjIPSKaVvcZ81jjC8oQegN0xbRmer/4WhkBLTzDjEXhP4xVRFtfPU3x61gEoi5IPSOaY9EMdVINLIh5oLQO6YvouHoAhINvKCiRswFoXfMYiQSc0FYKGYhory5cN1zSHNBrbdTS4cgnoAY7bztCm8IE4RZMZsFqO96jt6pEU7A1sZd546qJ7LeTugDszEW0MhD4MyF4WA7026wc+0V15ingjAzZuXOXTCPDiusoWcu3G8e8fsuxBIX5oBZjUSnCUFEwHTtpPc+bq9DLHFh5sxqJHIjTAiIY+c9yFzAool5qXkUhJkxExFt3HlOiwQLxBcKnqadNo+OuL0gzIxZjURNAsDmwllPNMF2O+8Qc0GYLbMT0WCwbR41vlBocwFTtRupEHNBmCmzHIn8EUYR/gxsfMWaC5VgXLjlQmIuCDNlliLS91wghKPYOYZXLtSCiRmKuSDMlpmJaOMOYy6k8O+5oM2FUHSB8ARhFnQuIrXGzTzlQ4sjNhf08yh2rnuOmAvCzBhLREowEKcgnlALQqtFocPBzebtZvLLepy5gKd+NGIuCDOjlYjUwtBaMKomGQ6ebN4qJb4swooFCWbjrnP+n1PBbXSIuSDMjHYjkRoZKExS71zLnNI1mQvvk5ULwvzTSkTVjRhxUuPk1s9Z06uNz2fMhbgfWbkgzCXjGQs4if1kLpteJfoZ4mla08qF94i5IMyG9iJSpkAKf8VBHtTPcAhlForBYMRcuVDFRM0FY6KoK2vPQygT5bx5S1hyxhmJtCmARwYbBYBYzjrRpNn44jl3WUS4L/28c3MBxKKcR+c6DqurbKs/BQPwDxTCQjPOSJT/Kw/vZJ8vikcYKxCI3fc/2+8HvVeHpntzwd72OMTfr7DktBbRxlfQX3mokgpGEhwD3sLQ9dseik0KH9ePuphvusTuIYqdt8sdW4WxjYVaMPpnn26mV/40zZ1XopL6+m7NhawLqZloHSb0g/FEhC9niJOtpGbQ/cR9KOZv5YL7fJ3XYUL/GHMkQrazwiWXe40DXhuXYePETFYu6KVJOBxiLgjNItp56xXHIO6B+HXtVFnCFQcBqRsxEvjmAu4TYveDyFzA78W0Mhfge4VrAE+Zt9R+EkuT7FRWWHZIEUEyKdFYa/cExDUQV1bJg9i4i1hxgJOcee5m/bOBuWCh++lk5QISjLWv8RpAN6JVBwojmFo4Tjw772QfKIQFhR6JUtauAl73bpqIEzjehj+9Cvvx+/LNBaKdPde0e8OzeeZC6mSx7rNeULvxZflbs0Ke1HROT6/8ZMGBEydORteu3FygwP3AyGAFgwPBTepYjOq3YZ9jcJs4xFxYckgReTdNDEODpzvZNW0FsFZAbNwemAsY3Z6X1GE9F+zHOwdkr3si2gFiLiw5qZGIShaNTiRcwOcvi3gvs2awSZ1g98ZuVy5s/P1v7jBPHX5/V6uXDL654LcTlpy0iFQBHyYLkTAbXzxHn5B0wTMXPvUQv/boauWC338IHm3zLuS7xVxYZnIjUWztWqAG2XknWh2AEyxONH7NkO5DgfvJrlzY/QDTXIj6QQ7ccOTMBXvHVkuwPwgxF5aY3EhkzAUvsXRo8uaCQifYRMwF03cKXlIPR1DP2e9Ufy8aJ5gYMReWmqSI9E0TE4mlk8kfGXCS2SiHZS6sf/ah2Fzw23OT2tVz/vZVBCeLtcCJdhBiLiwxuZFIQyeNClfAq5Ehg3evhBzYXIj3N9j9aGLlQhw8c+HL5+4gtnUxQOYC5ULaEJaavIiovyNEJM3GCVQz0O155sKtaOUCjW8u+PtoR2p7/bob0XLuIby+c72YC8tKk4gy5kLlSsXmAsW4NYPtO5xCUpi2uzcWmAuufxcaZy7YO7am24q5sKQ0TefSKxc0tLkQt+XXDOGJTb09UBX/uB/fdvbaVjDNhbwYPcKfLbrteAcKobdkRVTdNJGbOKhmGFaRXJbTBCS1dctwAOizrH+aMBcw/KTOitH7q33qQJFuK+bCktJsLCjSiVMX8CCUek1bnfSI3RuCFQdJRtnRb/emZ8X90G155sKd5/grF0pGLWFpaBZRanVAkDjVvRIw9n0XPHPhloe1uZAmNhfGxf+cYeDRlhy17MGDf6AQFgnOSJS2diF2jiVWLsS0rxlwvylzwW9Txe5H2JdF+N/Rx5kLt587bgWDAyHmwhLCGYlKCnh/xYG/TXtzQUH1gz+bwrWxgReR5siKsRHXtv2BQugtjSLa+ELBpQf5I3oJ8ehHsH7rQ/4lGzG8pA7FGBDcWF/uuSB48IwFRZg4LnlwAR+vXEDtvXsl5FBJnWF3kzAXMG6fLBFtnEDmAvq8deCVC3jUsvhthSWDJyKuuRDeK8G+537mmQvHH8ZH/jgoc8F/H6BdwiTetgj9Oh5t4+ktYvcDYi4sG9yRiDYXDDDdoc2FoB3ArxnibTG4H/q8ktl+96ZnHYNnHMjvaM551eZCdaDABO0hxFxYMrgjET29ohNnMpdFuH0F/YxKjI80UM/RJ4lVBIT78oN/oBAWApaINj5P/0UGlHT+yBC0q6KUlEkR/Lx+y8OdrFyA7wAHirRgvBvrY3MhRsyFJYNtLDQcpXmXRahk/HCBuWATFYdh9xb2ygWWiNZve4i+LMJBmwv5bYQlgC0iEAzPXLD3SsBJ5bfhmQsfQ+YCAYg6Nhf08zja4vfjxIgFTsA+UAgLQYGI8tM0mO745kKKFjWDHgX9AHBSu89GsHucaS4wVy54N1XB7d12Yi4sEXwRtTEXcGLZKKgZQCzbRjAUuB//s4X75Dtm/jmgoJ/dDwUHChUUYi4sFWwRrX8uWB0QJ1E8MujncfBhndhcP/5w9ysX1G8G96mCWuIUttEh5sISUTKdo3GJ45sL9nUC714JOShzAbF3a7crF9Y/g8wFCr8uoqe3KoSlokxE1OoAHIb1TzSekGQtDF37SN5cgH5icwGHAj8vAffj+ogPFBTw+u7HxFxYFkpHovjoiyBrhrqNtcSrKK8ZcH+uX9wPPTIYdm8pNBdCgv7qA4V9HYf+jmIuLAmlI1GBuTCCmgEJBycZ+tMljdgTm/p5GK72SH02wDh6fHMh3k/N7odDFxJ9R/+7lh8ohF5SJKLqvgY4sWw40jVDW3A/NThpNesf0ysXjGC8MPCSuvRA4V53oRFzYUkY31hQuATiXxZxc4MpUGOX4wTCMf3sffqZdT9IMBQsEa1/MrFywYV/oKCwbYWloFxEyUsPfNY/bu6VkA6euXDjI3Q/DjxNc6sq8tvkyW9Lu5A21G/UPN89zj1QCH2mzUiUPXfj3dcAvV6FTzc1Q8p2Jti7teCyCAz+Dqjv9U3iQOEj5sIS0EZE8dHXD5w48WURrh3fXOCvgPCnkHF7XlJH9Zw/ndy96VnuQBGCtxNzYSkoFhHUDLG54IMTJ3a62mCTuoG1jxArF/DP7KQO6jC/D4UTI3VTFYeYC0tAm5GIxiVS82URpu3ux9k1Q9ak2PusMxfw61VU1IJgiWj9lod9cyHEFyNr6icsLu1ERJoL6MhtWL85YS4o9HOeufBBwlxQuJ/RNE1dsoE/i/k8eLsS3D5w5M0FFOR1T8JC0XIkGsHRN0hUnDhhzYDeq0PDrxnSfSjyU0jUdu/Tz2x3WQQOxPpNwYEiRsyFBaftdC67MBTwa4YEwzbmAg1r5YL5rGXmQoj5vrubtLmAT/Ka4B8ohF7SSkTkfQ0gYVBENQORXKW42kNtG4Zh7UOP6M+WbsNNanqa5qjFCN+luu4p8Z3EXFhw2hsLOLFs8rif65oBEuv+nGAaL2ew4NqDYO+2wFxIwxLR+vGH478WobCfIWUuuPddCAvNOCJirVxY+yi6nCFsr7fhmQs3PBKLze8LT9Mmt3LBBW0uEOx9UsyFRaa9iEJrV4GSzKsZMgkG8GsG1D/Rn+snXLmAt4HY+9wY5gKBd91T2F6HmAsLzDgjEd9cwKZAuE1X5kLqr0WoiOEmtXegsHWPjb1PEAcKKtpcPyX0htYiWr+5wFxoGBkK0Ekdbh/0sfZ+Yy5g/PaspAahVPWcDQInxvq6p9D6r+x/MRcWmHGmcyo5cpE+IVnhEm3vU8gUyGH70c+j2DvRtHKhhiUiqOd8cyHs0xPjCA4UlWD8EBaecUXkmwsJ1m5UNYMTTRV4O+7KhfehlQs0tLmAyW8fY9tT2xQscdr7DPNAIfSO8UREmAt4+pOtGXzGqxlcv7if2BRQYdi7nWku5KaQKgxrHyq67klYIMYSEQjFqxlUBNDmgkW111FmLrjtdDh4KxcUbS+LwKGnouTKhRrXfrwDhTC3jCUiqBnamQs22qD6YbD2d8hcCPerg5fUdR0WTkfrKal/oPD3gUPMhQVl3OlcnCw+rmagLmdQmO28yxnyuH6qRPZj7wvPwObChfpzhcE1F25Ul0XUgsHbW7o/UAi9YnwRhQV8IonIyxn84JkLx1Q/RjQ0bmSwST0J3OfOmwuunb80SVgYuhiJ0jUDxN6nGk5IOtrXDH6fuJ8z5lHjtxvs3dHxyoX3EwcKHzEXFpAuRJQ9BwSRNxcUetvyGzp6+wT0z3XtsXZ9kNQx3KT26zDcJwRMRdPmgt+2/YFCmFvGFhHUDFDAe6LJJQ49apUzXj92Ouj/mcw04YEiDjyFlHsuLBld1EQuYejEaT4hqYDt9m4vWLmQYe8ubC6MLiDR6HCwRLT2gUfy91zw+8mOWsLi0Y2IuOaCvZwhfN+14ZkL7/4tduCovvA0jbbEXdty8L50pJc4BeEtTRIWgq5GIn96FbD3GVQzEO8j+DVDsC/7owncz5nwzSoU8Lh35zPKzYUQ9Jq3NIlqK+bCwtHVSORPr3AS6aDNhbgd21yA5tt40wr3gjMX3mtGLdzYhqbMXEj0A1NR2lyI2/MPFEIv6EREax98hP5rES5c4jRY4myYtnNFvl9eUg/NiEah90+bCyGycmHh6GoksolEJ07qJvAEBTVD1lzY/zIyFwaDC+bR/5w6WCKqlxGF26vfYNwPGrVCU8MzNoQFoDsRcc0Fde4GE7Zjrlw4/K4CcwGNWriJDTZOMNTG6EAxggNFQjCwzd4XPYELPafLkShvLtwWmAuJdgC/ZsB94D511P3Aj2fsyxWuTRX7X2KaC9Q1SrgvQ7YO0yHmwgLR5UhUYi4Q51LMdGc4ardyIaauPQ5fB0ntPgcFL6kb6rC9OxIHChwa/oFCmHs6E9HaDYG5EOMSZ2gvpTbRvk6IzwHlP4OPa8tNauJAgb7HEC1xUgKn0PsTc2GB6HIk8nEJasPVDJQpgNqyawbqxCZi/6sNl0Uo9HOWiNaOqQMFEk0sftxPPGpB2KfC4tCtiKgbOuIwQM0Q/11UhfuZZy68HZkLFL7tTCb1WMT91QeK6qpf9RiEfQJ1mJgLC0LXInKJStBYMzjKawa6P9yPf1kEBtrCqMVducA6UER1WPA+IObCgtD1dC5vLviJk1vTVm4u0Dhz4R0Zx0xTbi6EwGt7dz2DXrlgsdvy6zBhzulURGvXF5gL3dUMfHMh3zE3qfWBAu/DhHnwzQX0fhBiLiwIkzMWFFWyoEJ8OPJWLsR5ZYAn7JohZS5Uz0eD/a89Hfcz/sqFd/+2OlDEm9dPXD8NlriwGHQvouEIagYjmox1vXbdb/XdRcMkc4nGMxfeZmuPWqg63L5pc2EMqs1tPzg0bBfScw+F3jKJkchNr1DC2Ni7E9UM6rUURTVDLZgYv5/sPRf27y4wF0JwX4aqDsOvo/cMYi4sABMYidD0SoETSL8WmwthGx1lN3S0hP1gc+HaIKkV1fN6BOMmNVnP2dj/SsJciNsWHCiEeaVzEa29R9cMdcTkawYbJZRM0/CUT4U/ivGS+kmJOsxBmwsxYi4sAJM1FhQ40XR45kL1WgI4onNrhnzt8fWEuYDRbVkigmmaf+dXtC+in+z0Vug/kxEROiGJ88WGBZKx6U+X8MyFtzxaUnvQo18p+W3jA0Ud/kgYuIdCD5mIiCBXztqc8RNIx/6XAnPBRkw3NQMeGdQVqinUZ/v608svi8DfwYZBu4dGNJQBIpdF9J5JjUS+uRDSeFlEHeXmgr+9DmwuqFFLQbdT8JK6YeXC/t2EuWDb4+jqQCHMjImI6PC7UM3QlDihudAW249+Hgcm/NmHm9TJlQs6gssi1GsUsnKh90zOWLDJpKgTqw7+Ccm7W6xcINi/p9uVC4evxS6kq3HQtA33k7byhd4zSRG51c4ZIBnjyyKqqJOSZy68yUzTQlyfeGTwp2KujXuNgxOMj+6H50LC6/vfEHOhz0xORA3W7v5XsblQC0ZHm3M3CmI/CDyF9G/oGACj1niXRQQcfnOmDtMh5kKPmeRI1N5cULgEa7dyIcaZC9So5fangpvUuc+tnD7ahcSh4R8ohLljYiI6/PYCc0ElY/x+G7Kjn0fuPX5SB+eA1EsevrlAobcTc6HHTHI6l0osTVgzUJjtgxUHaZrMhXs7Xrnwlkf9lQsKu/+4n/hAoULoPZMVkT0h2ZA8kIy0ueDgmQtvLJqmdZPUeFv128Q/Nx0oUNtA4EKPmPRIhM7dBOYBxP7XUM2QQicZv2ZAiVmFJewnt3IB2P9mC3Mhw+FrQOC2Hd1ezIWeMmERmdvpqqDgjgyl5kKqH2wu4FGLat/GXCD62T+ZOVD4bfkHCmGumKiIDr8V1Qx+wujwbWedjHQ7PrYfDtS+bHDNhVwdpl/3zQXbNg4xF3rKpGsilyQUJZdFnGTXDK72cAlax/63UD/2ho40LBHBNE0fKIL9oH79A0X8vtBzJi8irrnwpkfdZRF0W5658AZUe5iH4WCEw59CYux2aHsWqba6n/QSJ7wvCE/gQm+YxkjkzAWC/W8QJyRp2DUDFk29+sH2HZoL7vUKvO3Bt57GvywC9xOGwRM4hH5w+4MQc6GHTGMkyk6vIOiRIW5XfkNHHA5nLrz+0eNBEus33Ha8pA6naTYM+//gDhTevirTpXrRBvtAIcwPExfR4TdDzeAnih+pmmE80uZC2LfdHw4HL6kbzgFB0OZCjJgLPWQaI5FLJoqSmuGbheZCsH0VwME/Pg33M/7KhTfEBwo84kDgfnKjrdBDpiMirrnwxmDlggL/zLznwqHX/U7XHha/DxX+FDJ+X2MfGQSi8fuiXMhEHPyTJ3ChB0xrJEqbC/D6/r2Z1c4+/Joh3YcCTyH1ygXcHm0HSd3usogEh/7WCDzVhluHCXPDtEai7PQKoM0Fi2s/3mURrp+69qiTOgU/qbPTNBBjvHKBaAfg6a3QA6YiouqEpE4QGt92jqZX+sFMk/jE0zQO8Ta80a9hmgbE5kKIbltyoBDmgGmNRA6cWC48cwHXFlo4rsY4+DazZqAcM8TBv6B+8J+ijGGJCEY0Zy6E6NdxP+k6TOgd0xNR6lJqFYjDr+/msohDfw3TNAvdX3oKGbflE27rtvfNBQrT/uBfxVzoE9MUUd5c+NYEL4ugwVPI7D0XYNTimwsUQb+H/gqZC3SwDhTCfDDN6VzSXNAPwZq2oA2K7s0FldQUri3fXHDbuDCAGNMuJGoH8A8UwsyZmojsCUmdL0HNo5e/4JGhm5qB6keBn1twG/y+fs5L6pKVC3mBi7nQI6ZqLCDB+KFprhkU0P7gnwvMhXBfKgwH/+b148yFuC1LRDCi5Zc4NZkLQi+ZqoggUeiaQYGS6NDf/K6TP0V56C8T0zQHtp356+1y0J/Xkj9QoO0O/l3Mhb4wXRFZFwwlCw7vhKR6LUWJuYAJ9hf0k1+58J2CyyIwRF+KQ68lzAUfMRd6wrRHovQJSU1sO9Nt210WEePMBTVq0W00XHMhrMMCYIRJu5D2fhQ62h0ohKkzVRHVJyQpdNK5xMlZ4mXE0zSb4Ln+cRvdjpvUbpoW9qH7QVPIEQgcC0e9VoeYCz1h2tM5jZ8sOjTeygXzqAnas09IUqMfwqs9uli58NrMygUFHmEaRi2hH0xfRPwTkom/FlEHz1z4iwZzwe+HWLmARopS8LYqnqQeCw4UW5eLudADZjESxdauCkPyhGRMec0QJrUKfMHccHQmeA8e1es6Du67nLlyYXTaCMaPgENHH/PNhRgxF3rALEai7DkgiNhcsOCEK6kZbO1RPY+i7ufQnwdJrcKHby5QmD5hhKHNBbxfHeUHCmHqTF1E1QlJRZwwNrqvGXA/bdHbc5M6e5IXQOZCxj0Uc2EiXPyvp14DceLiD596CmKkwrzVivkxFlRo0jWDArUvOCFJj362H7/2GH/lwtHHyv5ahMJ/34UwFqRghoN7INTUvM41eL11/TkrEfHMhdcS5oIPz1wIa4+4L9dPaiqm8LfJk96Xwl+5ELa1ARz8h5gLXLiCidC/79b152xE1GQufCdzQlJRtVeFe0cnJP2RIb9y4btMc4G7cuHPjMApdFsxFwjGFIwfmta5NKuRKDu9gvDNBeyYVQaBeoSHsppBr5p2+3CBVkAcek0mqTV8cyHcDwoYYfwDBdHGPHRzoOgxExBMzBj150xE5J2QpL+gS5zhKDtqsbFJXUq4X665EE7TQvCBYjjYxk3rTfSTpTIXpiQYOloyq+lcGj3a+DVDCvjiBSck8ybF91A/4coF1A6CJaJDr0Lmgr99FfBf3Q887+ZA0TNmKpgwgIun2pkLsxTR6Xp65gW8Y76U4tDRx7q5LOLViXNA7mffXAjbtcFsj7uyAf9rPlBoMacvH+kR8yYYkpb15+xE1DBNO7gP1Qzo9Qj+uRt/PzYcuJ/4T1GibQ6+zzMXoOnpahdo2zoQq6+oBK4FMxxsws/DKv70sadAvMw06w09EQzVlp9LiBmKqNBcUOAvbKPksgjqkmyHMxdeRY9a6McycyEmGmGsYCB6ZWn3WDAUrerPmYmoOiGZ/3J4utPOFIhx54DC/Qb9J9/WP3CPWOpAEY8wr5ARJgnVlooUk2qbYf6MBYX+QjhR3agVfmkI9glJ7JiZBxwXv9/tygUQy0krmL6NMAoQzHEjmCcWVzBQh6O4eOZI8b/TbEWkj9CJL+c49OrH3MoFBW6rX+OZC6987Li/mcG96JsLS0QoGCOam+EtJRh6moN/mTZSUG2pSNFJW18wVcRti82FWY9EdKKaL3TwPVTA4y8awy8IcT9xf7gfZy4QRb95p5eIYLLBzyXDcDRSO5gNB9+9/Br40PeYHx3qy2hOQpH/JvUEpmy/hgf3BV2bChhlgldoLv7n5efhgf6LdNADTLtY/fQFJRj4Xuroqn53vMK55DdAtR13+xTJtkQOj/G5Vv/ofMmnmu1IBNO0gpULxlwwgZ5WUQB2+vwRZkEEJCNMIlJw2yWY6UikgBEm/gDoi9gRBop+NbU7oZ7X+F9YCaF3xfskAPH4o7alJEGotuNunyLZlsjN6XyuzdU/PM/Opdm7c4S5gH+0rL4SmQvhm5pWZ5v7AKph8qvbHdkT2RFUWypSdNLWjCo4qLZUpChoO4T3ILYhttSjeZnFPFjcZ8nvaX6AGsaZCxRuSnaveaXXNBT9vANFw3pDVqTopO1cCUaNOsOVP6jiCMRRiPiiygwzn87BNI02FxzqXEtlLlz8weWnqlcGgzN9PO8S0qLoP7v6J4+/wDzPcvFHlfhiMskV0UlbIr+m+LmUYAA1sqha+H4QSOd5M3MRKWC0iT+EGmH0F78XBFN0ZJhHunLJVv/4cVYKXfxxQkQpOmm7+IKhmA8R/eDyJ+BBffGFGGEoqmlZDmaysEV06qlq1KZXFnSSxMspGIq5ENEy4IlovMTaXH35440JAyJSTuaxbpJYBJNDRFRANSVTxb0+q11NyaBGYaUD1CjpkcHCS8yt1Zc9ftQ8T3LxdOXkpWvN5KcWwZQiIkpACSbBJgipeWT4kRkZLO0TcxtEdMQ8zwJC0v+4yX5FMF0gIgIKBONwybIFdUrzyPDjYGQYIzFXX8oc/c7gOkwEMymWVkRQo6h/RHX+pZl8smyDiHgjw6kGc0HBSEy+iI64KSS1BasXQ0HbRRYMxTKLiK4ZWiQWFPqsrSIRtdiXYXP1asYU8r+PuClk+31lWTTBXPqfI+q8pbpyWc1KBitXnW+8eHJhRISmZE8uOiHJhUos8xrUKKy0gxql2VxQJHurP+7W6tXnm6eQP4GEyJkLCtYn1yy4YIh/l9GFlau2n2J+SNJLETXVMAWOGf3lqa3zPW6CkJpHhtOBuaBI9kt8NNd2e/Ul53lTyJ8ccR2xfiuaJRSMeUTA72DlxdUtAbPMvYjaFP1FtrP/R7c0Bclm2m5BndI8MpxJ2c5ZwTjQa9xrXi7+FIkogQgGSPw2eyeiMV0yzCYU+80jw49hZND3DOCR/nVug4h4I8MZIqmpfhv+6QpE5E0hRTAA6zdnGA42V160nf0dzZeIfthQM/C/PM92PpU5IVn2ix5Aoc/aAop9nohSuLasa14u/eyIOkioNXsimCaotsPB6ZUXbmfNhXkTUVdu0vbqywts53F/0QBbRD/xR4Ys+R63QESNB4q+MiPBUFwAEWXNhXm4nsgR3NKKxL6fD/oeChSqfYq4X4P6B/QDRhjuUV5No2KS+4pRUzIzLVsIlGAu/fzICYhTECMV8P3VDEEdUEFA8e87+l3lfh9UWypoGsuKuTMWPMeM+mLpL+tRbDsnWxO/H/pzbUGdwrOd89dPeUgNAzD/zSvofxs+dNujKy/Y3jLPI+ZPROo6GMt4X34Tiv3GhLt4BtvObMFQbIOIeFPIhGMmggHG+zcff3uaTRBR8t9i/kSUuw7GwvvyTNsZ/qGtuTDmP0qJ7SyCAQp+t+P+24zZ9vTKlWlzYR5F1LzaOYXfdhuKfd7IYB2zMf9R1LX65ulCs+CCobgAIkqaC/MnoqbrYCzJL+++z+rVzJEBn9Wn4P+jFN1qqQ8soWA0QduV56dPus6diBT1dTCW5MfP/wOuvoQtIjeFZG2hMVMyey+IMzIla4BqO+72Kbr/XEdXfp82F+ZTRN51MBbmP6D/2ibUKY2JDTVKvKYtQAQDUL/vFM3/Nnmm2Za3/SaIiPw3n1MRESck2315nu38U0goNIVcNMFY1HkYeBDBcPHbnl55Hm0uzKeI8HUwlnZffhtqFJa5cOlnVYItjGBCQEDmQCGCIWluewFERJoL8yoiNdXgnZBs+PKL7JiZKdllK1fxhH/p55eNv8Rp3O1TzP/n2l557jZ5QJ5LESlIx6zgy9spGYwsjRdV9YFcDQMiYv1mLv0CRJSC6qHg9z3VtpPflzt/99z8Cm7F/IqIcR2MZdmL/pWrmq95UYCIdE1EtW6XbM2M23by+yoSDMU8i4gsghex6Id6RX2HxC2GiX+fOFk2V17cnACXfnmZrjUnn5jNUG0nv6+xBUMxzyI6AYJR5sLCuWSW2C1jCYZiC0TU6EJe+tVl+RPZk09ix+T3NRHBUMytiJYBKPQ7W+K08iK66A0BIel/8MknsWPy+5qaYChERB0RTMlOQ7HfPDL8omFksDASc+WFzLro1xlzQdEuiR3jbp/CtZ2pYChERC1g1DDbUOzzRobQMWuZmAUiclPIdknsGHf7FK7t3AmGQkTUQNuin3OXGAUU+80iSuG3zV7zYrl0NphCUlCfof3nyuPa9kIwFCKiAFPst3XJatgi+hUaGXI097YFImqeQp4NppBUv6xPbmjXtreCoRARBYCI4BdSJpgI3bbxVksKEFFnS5xWrmROIe9Ho1+7fTWDPhfEwgiGYr5uVDIhzJSMySj6a+YoIWKotjrUyVIO7uYsNlKE7fy2ZTdnibf3wW34bbchtiA2QTBDE0cgji6qgBQLNxJlaphNzhozKPTTNQOVSOnk2oZinzcyUI5ZLmlDTNvchWOYS/8bTCFb7AtY+BGGS69FVFj0b61cxagZrO1MJVZhskGNwtoC6hT+P0L+cyWvecFceoBhLihcvyKYDL0RUaFgqGTbhmKfNzIox4yV/oZE2wIR0eYCtXW+xy0QUfOB4gHi/JTrVwRTSC9EpIt9C0swJAWOWfqXwtxXhaoNrmSMDMp2pu4JXrYvxfbK85gHiger7yiC6YCeGAvq39uESpYwUnDbxZyu/h9un+uDbsszF/CdX/3tadJt2eYCiGYpiv5p0A8RDQcXgmSJwQmVCBhheMkyhKOz2iZF0G+mrZp6NrLy/O2T5mkMf1/594SJ0ReLW005HGFSpSKGbztbeP1q4rZ821kRb5/GtfFs5eo9Yar0oyb6ZTWCuD9SXJIqftttKPZ5NUOTY0Z9BuI1KPRZnxaK/fTKBdeD1DBzSH/cuVyxb2GkayvbmdqC1UtFme0sgukd/RURP4m9titXMkV0f2ernbdWntdsOysuPXjZcRFM/+jPsh9sLuSSGrch2sIIw0tSay4E23vgfaTbsswFhQion/Rp7ZxvLih4SaxxbcrNBQXeh40Uro0q+uPPLSwU/ZnO6RHEmQs5qAR3r21DjcIzFx4oqsOkhllS+iSi18DDffonRF4wJAWOWaoOE8EINb0RkcK7DsbCkoPBtIVCnyeiBytzQZ3rEcEISfomoidACMHi0wR5mWyCkEQQQif0yVhQwqCLdCWYMFLo97nmgiA00i8RDQZnPKHYSOHahFdcss7bCAKHfk3nHkiYCwonJin6hanSKxEpKsdMBCPMEf0TkSyNEeaM3olIEOaNvhkLgjB3iIgEYSwGg/8HvlNhD9jgjAkAAAAASUVORK5CYII=;" parent="1" vertex="1">
                    <mxGeometry x="1225.19" y="310" width="139.62" height="161" as="geometry"/>
                </mxCell>
                <mxCell id="18" value="" style="shape=image;verticalLabelPosition=bottom;labelBackgroundColor=default;verticalAlign=top;aspect=fixed;imageAspect=0;image=data:image/png,iVBORw0KGgoAAAANSUhEUgAAANEAAADxCAYAAABVllLZAAAAAXNSR0IArs4c6QAAAARnQU1BAACxjwv8YQUAAAAJcEhZcwAADsMAAA7DAcdvqGQAACYTSURBVHhe7Z1ZlyRHdcereOqe6W7DN9AgdoERi55sI8B+MmAYGx8vwEEcFrEIGGGxiEWaRohVYgQSi8UBjTB4xUcNxrwYmBkDL2YbWWIkIaTpb6BxbzNv5RsZERk3Im5E3sjKWrLq/o6uqroqMrKq5/4z4v4zMns4Go0GfeH/Xvfca37v2w+eND8KwlzQKxEJwjzyJPMoCEJLRESCMCYiIkEYk5nURDtvveI4PDwf4kqIywbDwWDj7t/A/wWhf0xNRCCc++DhNUowFCIioa9Mbzo3HNyfEpBi523V6CQIvWNqIoKRJhaJEpULNb0ThN4xXWPBF43G/azqI0HoHdMW0QUkGh2Oy8yjIPSKaVvcZ81jjC8oQegN0xbRmer/4WhkBLTzDjEXhP4xVRFtfPU3x61gEoi5IPSOaY9EMdVINLIh5oLQO6YvouHoAhINvKCiRswFoXfMYiQSc0FYKGYhory5cN1zSHNBrbdTS4cgnoAY7bztCm8IE4RZMZsFqO96jt6pEU7A1sZd546qJ7LeTugDszEW0MhD4MyF4WA7026wc+0V15ingjAzZuXOXTCPDiusoWcu3G8e8fsuxBIX5oBZjUSnCUFEwHTtpPc+bq9DLHFh5sxqJHIjTAiIY+c9yFzAool5qXkUhJkxExFt3HlOiwQLxBcKnqadNo+OuL0gzIxZjURNAsDmwllPNMF2O+8Qc0GYLbMT0WCwbR41vlBocwFTtRupEHNBmCmzHIn8EUYR/gxsfMWaC5VgXLjlQmIuCDNlliLS91wghKPYOYZXLtSCiRmKuSDMlpmJaOMOYy6k8O+5oM2FUHSB8ARhFnQuIrXGzTzlQ4sjNhf08yh2rnuOmAvCzBhLREowEKcgnlALQqtFocPBzebtZvLLepy5gKd+NGIuCDOjlYjUwtBaMKomGQ6ebN4qJb4swooFCWbjrnP+n1PBbXSIuSDMjHYjkRoZKExS71zLnNI1mQvvk5ULwvzTSkTVjRhxUuPk1s9Z06uNz2fMhbgfWbkgzCXjGQs4if1kLpteJfoZ4mla08qF94i5IMyG9iJSpkAKf8VBHtTPcAhlForBYMRcuVDFRM0FY6KoK2vPQygT5bx5S1hyxhmJtCmARwYbBYBYzjrRpNn44jl3WUS4L/28c3MBxKKcR+c6DqurbKs/BQPwDxTCQjPOSJT/Kw/vZJ8vikcYKxCI3fc/2+8HvVeHpntzwd72OMTfr7DktBbRxlfQX3mokgpGEhwD3sLQ9dseik0KH9ePuphvusTuIYqdt8sdW4WxjYVaMPpnn26mV/40zZ1XopL6+m7NhawLqZloHSb0g/FEhC9niJOtpGbQ/cR9KOZv5YL7fJ3XYUL/GHMkQrazwiWXe40DXhuXYePETFYu6KVJOBxiLgjNItp56xXHIO6B+HXtVFnCFQcBqRsxEvjmAu4TYveDyFzA78W0Mhfge4VrAE+Zt9R+EkuT7FRWWHZIEUEyKdFYa/cExDUQV1bJg9i4i1hxgJOcee5m/bOBuWCh++lk5QISjLWv8RpAN6JVBwojmFo4Tjw772QfKIQFhR6JUtauAl73bpqIEzjehj+9Cvvx+/LNBaKdPde0e8OzeeZC6mSx7rNeULvxZflbs0Ke1HROT6/8ZMGBEydORteu3FygwP3AyGAFgwPBTepYjOq3YZ9jcJs4xFxYckgReTdNDEODpzvZNW0FsFZAbNwemAsY3Z6X1GE9F+zHOwdkr3si2gFiLiw5qZGIShaNTiRcwOcvi3gvs2awSZ1g98ZuVy5s/P1v7jBPHX5/V6uXDL654LcTlpy0iFQBHyYLkTAbXzxHn5B0wTMXPvUQv/boauWC338IHm3zLuS7xVxYZnIjUWztWqAG2XknWh2AEyxONH7NkO5DgfvJrlzY/QDTXIj6QQ7ccOTMBXvHVkuwPwgxF5aY3EhkzAUvsXRo8uaCQifYRMwF03cKXlIPR1DP2e9Ufy8aJ5gYMReWmqSI9E0TE4mlk8kfGXCS2SiHZS6sf/ah2Fzw23OT2tVz/vZVBCeLtcCJdhBiLiwxuZFIQyeNClfAq5Ehg3evhBzYXIj3N9j9aGLlQhw8c+HL5+4gtnUxQOYC5ULaEJaavIiovyNEJM3GCVQz0O155sKtaOUCjW8u+PtoR2p7/bob0XLuIby+c72YC8tKk4gy5kLlSsXmAsW4NYPtO5xCUpi2uzcWmAuufxcaZy7YO7am24q5sKQ0TefSKxc0tLkQt+XXDOGJTb09UBX/uB/fdvbaVjDNhbwYPcKfLbrteAcKobdkRVTdNJGbOKhmGFaRXJbTBCS1dctwAOizrH+aMBcw/KTOitH7q33qQJFuK+bCktJsLCjSiVMX8CCUek1bnfSI3RuCFQdJRtnRb/emZ8X90G155sKd5/grF0pGLWFpaBZRanVAkDjVvRIw9n0XPHPhloe1uZAmNhfGxf+cYeDRlhy17MGDf6AQFgnOSJS2diF2jiVWLsS0rxlwvylzwW9Txe5H2JdF+N/Rx5kLt587bgWDAyHmwhLCGYlKCnh/xYG/TXtzQUH1gz+bwrWxgReR5siKsRHXtv2BQugtjSLa+ELBpQf5I3oJ8ehHsH7rQ/4lGzG8pA7FGBDcWF/uuSB48IwFRZg4LnlwAR+vXEDtvXsl5FBJnWF3kzAXMG6fLBFtnEDmAvq8deCVC3jUsvhthSWDJyKuuRDeK8G+537mmQvHH8ZH/jgoc8F/H6BdwiTetgj9Oh5t4+ktYvcDYi4sG9yRiDYXDDDdoc2FoB3ArxnibTG4H/q8ktl+96ZnHYNnHMjvaM551eZCdaDABO0hxFxYMrgjET29ohNnMpdFuH0F/YxKjI80UM/RJ4lVBIT78oN/oBAWApaINj5P/0UGlHT+yBC0q6KUlEkR/Lx+y8OdrFyA7wAHirRgvBvrY3MhRsyFJYNtLDQcpXmXRahk/HCBuWATFYdh9xb2ygWWiNZve4i+LMJBmwv5bYQlgC0iEAzPXLD3SsBJ5bfhmQsfQ+YCAYg6Nhf08zja4vfjxIgFTsA+UAgLQYGI8tM0mO745kKKFjWDHgX9AHBSu89GsHucaS4wVy54N1XB7d12Yi4sEXwRtTEXcGLZKKgZQCzbRjAUuB//s4X75Dtm/jmgoJ/dDwUHChUUYi4sFWwRrX8uWB0QJ1E8MujncfBhndhcP/5w9ysX1G8G96mCWuIUttEh5sISUTKdo3GJ45sL9nUC714JOShzAbF3a7crF9Y/g8wFCr8uoqe3KoSlokxE1OoAHIb1TzSekGQtDF37SN5cgH5icwGHAj8vAffj+ogPFBTw+u7HxFxYFkpHovjoiyBrhrqNtcSrKK8ZcH+uX9wPPTIYdm8pNBdCgv7qA4V9HYf+jmIuLAmlI1GBuTCCmgEJBycZ+tMljdgTm/p5GK72SH02wDh6fHMh3k/N7odDFxJ9R/+7lh8ohF5SJKLqvgY4sWw40jVDW3A/NThpNesf0ysXjGC8MPCSuvRA4V53oRFzYUkY31hQuATiXxZxc4MpUGOX4wTCMf3sffqZdT9IMBQsEa1/MrFywYV/oKCwbYWloFxEyUsPfNY/bu6VkA6euXDjI3Q/DjxNc6sq8tvkyW9Lu5A21G/UPN89zj1QCH2mzUiUPXfj3dcAvV6FTzc1Q8p2Jti7teCyCAz+Dqjv9U3iQOEj5sIS0EZE8dHXD5w48WURrh3fXOCvgPCnkHF7XlJH9Zw/ndy96VnuQBGCtxNzYSkoFhHUDLG54IMTJ3a62mCTuoG1jxArF/DP7KQO6jC/D4UTI3VTFYeYC0tAm5GIxiVS82URpu3ux9k1Q9ak2PusMxfw61VU1IJgiWj9lod9cyHEFyNr6icsLu1ERJoL6MhtWL85YS4o9HOeufBBwlxQuJ/RNE1dsoE/i/k8eLsS3D5w5M0FFOR1T8JC0XIkGsHRN0hUnDhhzYDeq0PDrxnSfSjyU0jUdu/Tz2x3WQQOxPpNwYEiRsyFBaftdC67MBTwa4YEwzbmAg1r5YL5rGXmQoj5vrubtLmAT/Ka4B8ohF7SSkTkfQ0gYVBENQORXKW42kNtG4Zh7UOP6M+WbsNNanqa5qjFCN+luu4p8Z3EXFhw2hsLOLFs8rif65oBEuv+nGAaL2ew4NqDYO+2wFxIwxLR+vGH478WobCfIWUuuPddCAvNOCJirVxY+yi6nCFsr7fhmQs3PBKLze8LT9Mmt3LBBW0uEOx9UsyFRaa9iEJrV4GSzKsZMgkG8GsG1D/Rn+snXLmAt4HY+9wY5gKBd91T2F6HmAsLzDgjEd9cwKZAuE1X5kLqr0WoiOEmtXegsHWPjb1PEAcKKtpcPyX0htYiWr+5wFxoGBkK0Ekdbh/0sfZ+Yy5g/PaspAahVPWcDQInxvq6p9D6r+x/MRcWmHGmcyo5cpE+IVnhEm3vU8gUyGH70c+j2DvRtHKhhiUiqOd8cyHs0xPjCA4UlWD8EBaecUXkmwsJ1m5UNYMTTRV4O+7KhfehlQs0tLmAyW8fY9tT2xQscdr7DPNAIfSO8UREmAt4+pOtGXzGqxlcv7if2BRQYdi7nWku5KaQKgxrHyq67klYIMYSEQjFqxlUBNDmgkW111FmLrjtdDh4KxcUbS+LwKGnouTKhRrXfrwDhTC3jCUiqBnamQs22qD6YbD2d8hcCPerg5fUdR0WTkfrKal/oPD3gUPMhQVl3OlcnCw+rmagLmdQmO28yxnyuH6qRPZj7wvPwObChfpzhcE1F25Ul0XUgsHbW7o/UAi9YnwRhQV8IonIyxn84JkLx1Q/RjQ0bmSwST0J3OfOmwuunb80SVgYuhiJ0jUDxN6nGk5IOtrXDH6fuJ8z5lHjtxvs3dHxyoX3EwcKHzEXFpAuRJQ9BwSRNxcUetvyGzp6+wT0z3XtsXZ9kNQx3KT26zDcJwRMRdPmgt+2/YFCmFvGFhHUDFDAe6LJJQ49apUzXj92Ouj/mcw04YEiDjyFlHsuLBld1EQuYejEaT4hqYDt9m4vWLmQYe8ubC6MLiDR6HCwRLT2gUfy91zw+8mOWsLi0Y2IuOaCvZwhfN+14ZkL7/4tduCovvA0jbbEXdty8L50pJc4BeEtTRIWgq5GIn96FbD3GVQzEO8j+DVDsC/7owncz5nwzSoU8Lh35zPKzYUQ9Jq3NIlqK+bCwtHVSORPr3AS6aDNhbgd21yA5tt40wr3gjMX3mtGLdzYhqbMXEj0A1NR2lyI2/MPFEIv6EREax98hP5rES5c4jRY4myYtnNFvl9eUg/NiEah90+bCyGycmHh6GoksolEJ07qJvAEBTVD1lzY/zIyFwaDC+bR/5w6WCKqlxGF26vfYNwPGrVCU8MzNoQFoDsRcc0Fde4GE7Zjrlw4/K4CcwGNWriJDTZOMNTG6EAxggNFQjCwzd4XPYELPafLkShvLtwWmAuJdgC/ZsB94D511P3Aj2fsyxWuTRX7X2KaC9Q1SrgvQ7YO0yHmwgLR5UhUYi4Q51LMdGc4ardyIaauPQ5fB0ntPgcFL6kb6rC9OxIHChwa/oFCmHs6E9HaDYG5EOMSZ2gvpTbRvk6IzwHlP4OPa8tNauJAgb7HEC1xUgKn0PsTc2GB6HIk8nEJasPVDJQpgNqyawbqxCZi/6sNl0Uo9HOWiNaOqQMFEk0sftxPPGpB2KfC4tCtiKgbOuIwQM0Q/11UhfuZZy68HZkLFL7tTCb1WMT91QeK6qpf9RiEfQJ1mJgLC0LXInKJStBYMzjKawa6P9yPf1kEBtrCqMVducA6UER1WPA+IObCgtD1dC5vLviJk1vTVm4u0Dhz4R0Zx0xTbi6EwGt7dz2DXrlgsdvy6zBhzulURGvXF5gL3dUMfHMh3zE3qfWBAu/DhHnwzQX0fhBiLiwIkzMWFFWyoEJ8OPJWLsR5ZYAn7JohZS5Uz0eD/a89Hfcz/sqFd/+2OlDEm9dPXD8NlriwGHQvouEIagYjmox1vXbdb/XdRcMkc4nGMxfeZmuPWqg63L5pc2EMqs1tPzg0bBfScw+F3jKJkchNr1DC2Ni7E9UM6rUURTVDLZgYv5/sPRf27y4wF0JwX4aqDsOvo/cMYi4sABMYidD0SoETSL8WmwthGx1lN3S0hP1gc+HaIKkV1fN6BOMmNVnP2dj/SsJciNsWHCiEeaVzEa29R9cMdcTkawYbJZRM0/CUT4U/ivGS+kmJOsxBmwsxYi4sAJM1FhQ40XR45kL1WgI4onNrhnzt8fWEuYDRbVkigmmaf+dXtC+in+z0Vug/kxEROiGJ88WGBZKx6U+X8MyFtzxaUnvQo18p+W3jA0Ud/kgYuIdCD5mIiCBXztqc8RNIx/6XAnPBRkw3NQMeGdQVqinUZ/v608svi8DfwYZBu4dGNJQBIpdF9J5JjUS+uRDSeFlEHeXmgr+9DmwuqFFLQbdT8JK6YeXC/t2EuWDb4+jqQCHMjImI6PC7UM3QlDihudAW249+Hgcm/NmHm9TJlQs6gssi1GsUsnKh90zOWLDJpKgTqw7+Ccm7W6xcINi/p9uVC4evxS6kq3HQtA33k7byhd4zSRG51c4ZIBnjyyKqqJOSZy68yUzTQlyfeGTwp2KujXuNgxOMj+6H50LC6/vfEHOhz0xORA3W7v5XsblQC0ZHm3M3CmI/CDyF9G/oGACj1niXRQQcfnOmDtMh5kKPmeRI1N5cULgEa7dyIcaZC9So5fangpvUuc+tnD7ahcSh4R8ohLljYiI6/PYCc0ElY/x+G7Kjn0fuPX5SB+eA1EsevrlAobcTc6HHTHI6l0osTVgzUJjtgxUHaZrMhXs7Xrnwlkf9lQsKu/+4n/hAoULoPZMVkT0h2ZA8kIy0ueDgmQtvLJqmdZPUeFv128Q/Nx0oUNtA4EKPmPRIhM7dBOYBxP7XUM2QQicZv2ZAiVmFJewnt3IB2P9mC3Mhw+FrQOC2Hd1ezIWeMmERmdvpqqDgjgyl5kKqH2wu4FGLat/GXCD62T+ZOVD4bfkHCmGumKiIDr8V1Qx+wujwbWedjHQ7PrYfDtS+bHDNhVwdpl/3zQXbNg4xF3rKpGsilyQUJZdFnGTXDK72cAlax/63UD/2ho40LBHBNE0fKIL9oH79A0X8vtBzJi8irrnwpkfdZRF0W5658AZUe5iH4WCEw59CYux2aHsWqba6n/QSJ7wvCE/gQm+YxkjkzAWC/W8QJyRp2DUDFk29+sH2HZoL7vUKvO3Bt57GvywC9xOGwRM4hH5w+4MQc6GHTGMkyk6vIOiRIW5XfkNHHA5nLrz+0eNBEus33Ha8pA6naTYM+//gDhTevirTpXrRBvtAIcwPExfR4TdDzeAnih+pmmE80uZC2LfdHw4HL6kbzgFB0OZCjJgLPWQaI5FLJoqSmuGbheZCsH0VwME/Pg33M/7KhTfEBwo84kDgfnKjrdBDpiMirrnwxmDlggL/zLznwqHX/U7XHha/DxX+FDJ+X2MfGQSi8fuiXMhEHPyTJ3ChB0xrJEqbC/D6/r2Z1c4+/Joh3YcCTyH1ygXcHm0HSd3usogEh/7WCDzVhluHCXPDtEai7PQKoM0Fi2s/3mURrp+69qiTOgU/qbPTNBBjvHKBaAfg6a3QA6YiouqEpE4QGt92jqZX+sFMk/jE0zQO8Ta80a9hmgbE5kKIbltyoBDmgGmNRA6cWC48cwHXFlo4rsY4+DazZqAcM8TBv6B+8J+ijGGJCEY0Zy6E6NdxP+k6TOgd0xNR6lJqFYjDr+/msohDfw3TNAvdX3oKGbflE27rtvfNBQrT/uBfxVzoE9MUUd5c+NYEL4ugwVPI7D0XYNTimwsUQb+H/gqZC3SwDhTCfDDN6VzSXNAPwZq2oA2K7s0FldQUri3fXHDbuDCAGNMuJGoH8A8UwsyZmojsCUmdL0HNo5e/4JGhm5qB6keBn1twG/y+fs5L6pKVC3mBi7nQI6ZqLCDB+KFprhkU0P7gnwvMhXBfKgwH/+b148yFuC1LRDCi5Zc4NZkLQi+ZqoggUeiaQYGS6NDf/K6TP0V56C8T0zQHtp356+1y0J/Xkj9QoO0O/l3Mhb4wXRFZFwwlCw7vhKR6LUWJuYAJ9hf0k1+58J2CyyIwRF+KQ68lzAUfMRd6wrRHovQJSU1sO9Nt210WEePMBTVq0W00XHMhrMMCYIRJu5D2fhQ62h0ohKkzVRHVJyQpdNK5xMlZ4mXE0zSb4Ln+cRvdjpvUbpoW9qH7QVPIEQgcC0e9VoeYCz1h2tM5jZ8sOjTeygXzqAnas09IUqMfwqs9uli58NrMygUFHmEaRi2hH0xfRPwTkom/FlEHz1z4iwZzwe+HWLmARopS8LYqnqQeCw4UW5eLudADZjESxdauCkPyhGRMec0QJrUKfMHccHQmeA8e1es6Du67nLlyYXTaCMaPgENHH/PNhRgxF3rALEai7DkgiNhcsOCEK6kZbO1RPY+i7ufQnwdJrcKHby5QmD5hhKHNBbxfHeUHCmHqTF1E1QlJRZwwNrqvGXA/bdHbc5M6e5IXQOZCxj0Uc2EiXPyvp14DceLiD596CmKkwrzVivkxFlRo0jWDArUvOCFJj362H7/2GH/lwtHHyv5ahMJ/34UwFqRghoN7INTUvM41eL11/TkrEfHMhdcS5oIPz1wIa4+4L9dPaiqm8LfJk96Xwl+5ELa1ARz8h5gLXLiCidC/79b152xE1GQufCdzQlJRtVeFe0cnJP2RIb9y4btMc4G7cuHPjMApdFsxFwjGFIwfmta5NKuRKDu9gvDNBeyYVQaBeoSHsppBr5p2+3CBVkAcek0mqTV8cyHcDwoYYfwDBdHGPHRzoOgxExBMzBj150xE5J2QpL+gS5zhKDtqsbFJXUq4X665EE7TQvCBYjjYxk3rTfSTpTIXpiQYOloyq+lcGj3a+DVDCvjiBSck8ybF91A/4coF1A6CJaJDr0Lmgr99FfBf3Q887+ZA0TNmKpgwgIun2pkLsxTR6Xp65gW8Y76U4tDRx7q5LOLViXNA7mffXAjbtcFsj7uyAf9rPlBoMacvH+kR8yYYkpb15+xE1DBNO7gP1Qzo9Qj+uRt/PzYcuJ/4T1GibQ6+zzMXoOnpahdo2zoQq6+oBK4FMxxsws/DKv70sadAvMw06w09EQzVlp9LiBmKqNBcUOAvbKPksgjqkmyHMxdeRY9a6McycyEmGmGsYCB6ZWn3WDAUrerPmYmoOiGZ/3J4utPOFIhx54DC/Qb9J9/WP3CPWOpAEY8wr5ARJgnVlooUk2qbYf6MBYX+QjhR3agVfmkI9glJ7JiZBxwXv9/tygUQy0krmL6NMAoQzHEjmCcWVzBQh6O4eOZI8b/TbEWkj9CJL+c49OrH3MoFBW6rX+OZC6987Li/mcG96JsLS0QoGCOam+EtJRh6moN/mTZSUG2pSNFJW18wVcRti82FWY9EdKKaL3TwPVTA4y8awy8IcT9xf7gfZy4QRb95p5eIYLLBzyXDcDRSO5gNB9+9/Br40PeYHx3qy2hOQpH/JvUEpmy/hgf3BV2bChhlgldoLv7n5efhgf6LdNADTLtY/fQFJRj4Xuroqn53vMK55DdAtR13+xTJtkQOj/G5Vv/ofMmnmu1IBNO0gpULxlwwgZ5WUQB2+vwRZkEEJCNMIlJw2yWY6UikgBEm/gDoi9gRBop+NbU7oZ7X+F9YCaF3xfskAPH4o7alJEGotuNunyLZlsjN6XyuzdU/PM/Opdm7c4S5gH+0rL4SmQvhm5pWZ5v7AKph8qvbHdkT2RFUWypSdNLWjCo4qLZUpChoO4T3ILYhttSjeZnFPFjcZ8nvaX6AGsaZCxRuSnaveaXXNBT9vANFw3pDVqTopO1cCUaNOsOVP6jiCMRRiPiiygwzn87BNI02FxzqXEtlLlz8weWnqlcGgzN9PO8S0qLoP7v6J4+/wDzPcvFHlfhiMskV0UlbIr+m+LmUYAA1sqha+H4QSOd5M3MRKWC0iT+EGmH0F78XBFN0ZJhHunLJVv/4cVYKXfxxQkQpOmm7+IKhmA8R/eDyJ+BBffGFGGEoqmlZDmaysEV06qlq1KZXFnSSxMspGIq5ENEy4IlovMTaXH35440JAyJSTuaxbpJYBJNDRFRANSVTxb0+q11NyaBGYaUD1CjpkcHCS8yt1Zc9ftQ8T3LxdOXkpWvN5KcWwZQiIkpACSbBJgipeWT4kRkZLO0TcxtEdMQ8zwJC0v+4yX5FMF0gIgIKBONwybIFdUrzyPDjYGQYIzFXX8oc/c7gOkwEMymWVkRQo6h/RHX+pZl8smyDiHgjw6kGc0HBSEy+iI64KSS1BasXQ0HbRRYMxTKLiK4ZWiQWFPqsrSIRtdiXYXP1asYU8r+PuClk+31lWTTBXPqfI+q8pbpyWc1KBitXnW+8eHJhRISmZE8uOiHJhUos8xrUKKy0gxql2VxQJHurP+7W6tXnm6eQP4GEyJkLCtYn1yy4YIh/l9GFlau2n2J+SNJLETXVMAWOGf3lqa3zPW6CkJpHhtOBuaBI9kt8NNd2e/Ul53lTyJ8ccR2xfiuaJRSMeUTA72DlxdUtAbPMvYjaFP1FtrP/R7c0Bclm2m5BndI8MpxJ2c5ZwTjQa9xrXi7+FIkogQgGSPw2eyeiMV0yzCYU+80jw49hZND3DOCR/nVug4h4I8MZIqmpfhv+6QpE5E0hRTAA6zdnGA42V160nf0dzZeIfthQM/C/PM92PpU5IVn2ix5Aoc/aAop9nohSuLasa14u/eyIOkioNXsimCaotsPB6ZUXbmfNhXkTUVdu0vbqywts53F/0QBbRD/xR4Ys+R63QESNB4q+MiPBUFwAEWXNhXm4nsgR3NKKxL6fD/oeChSqfYq4X4P6B/QDRhjuUV5No2KS+4pRUzIzLVsIlGAu/fzICYhTECMV8P3VDEEdUEFA8e87+l3lfh9UWypoGsuKuTMWPMeM+mLpL+tRbDsnWxO/H/pzbUGdwrOd89dPeUgNAzD/zSvofxs+dNujKy/Y3jLPI+ZPROo6GMt4X34Tiv3GhLt4BtvObMFQbIOIeFPIhGMmggHG+zcff3uaTRBR8t9i/kSUuw7GwvvyTNsZ/qGtuTDmP0qJ7SyCAQp+t+P+24zZ9vTKlWlzYR5F1LzaOYXfdhuKfd7IYB2zMf9R1LX65ulCs+CCobgAIkqaC/MnoqbrYCzJL+++z+rVzJEBn9Wn4P+jFN1qqQ8soWA0QduV56dPus6diBT1dTCW5MfP/wOuvoQtIjeFZG2hMVMyey+IMzIla4BqO+72Kbr/XEdXfp82F+ZTRN51MBbmP6D/2ibUKY2JDTVKvKYtQAQDUL/vFM3/Nnmm2Za3/SaIiPw3n1MRESck2315nu38U0goNIVcNMFY1HkYeBDBcPHbnl55Hm0uzKeI8HUwlnZffhtqFJa5cOlnVYItjGBCQEDmQCGCIWluewFERJoL8yoiNdXgnZBs+PKL7JiZKdllK1fxhH/p55eNv8Rp3O1TzP/n2l557jZ5QJ5LESlIx6zgy9spGYwsjRdV9YFcDQMiYv1mLv0CRJSC6qHg9z3VtpPflzt/99z8Cm7F/IqIcR2MZdmL/pWrmq95UYCIdE1EtW6XbM2M23by+yoSDMU8i4gsghex6Id6RX2HxC2GiX+fOFk2V17cnACXfnmZrjUnn5jNUG0nv6+xBUMxzyI6AYJR5sLCuWSW2C1jCYZiC0TU6EJe+tVl+RPZk09ix+T3NRHBUMytiJYBKPQ7W+K08iK66A0BIel/8MknsWPy+5qaYChERB0RTMlOQ7HfPDL8omFksDASc+WFzLro1xlzQdEuiR3jbp/CtZ2pYChERC1g1DDbUOzzRobQMWuZmAUiclPIdknsGHf7FK7t3AmGQkTUQNuin3OXGAUU+80iSuG3zV7zYrl0NphCUlCfof3nyuPa9kIwFCKiAFPst3XJatgi+hUaGXI097YFImqeQp4NppBUv6xPbmjXtreCoRARBYCI4BdSJpgI3bbxVksKEFFnS5xWrmROIe9Ho1+7fTWDPhfEwgiGYr5uVDIhzJSMySj6a+YoIWKotjrUyVIO7uYsNlKE7fy2ZTdnibf3wW34bbchtiA2QTBDE0cgji6qgBQLNxJlaphNzhozKPTTNQOVSOnk2oZinzcyUI5ZLmlDTNvchWOYS/8bTCFb7AtY+BGGS69FVFj0b61cxagZrO1MJVZhskGNwtoC6hT+P0L+cyWvecFceoBhLihcvyKYDL0RUaFgqGTbhmKfNzIox4yV/oZE2wIR0eYCtXW+xy0QUfOB4gHi/JTrVwRTSC9EpIt9C0swJAWOWfqXwtxXhaoNrmSMDMp2pu4JXrYvxfbK85gHiger7yiC6YCeGAvq39uESpYwUnDbxZyu/h9un+uDbsszF/CdX/3tadJt2eYCiGYpiv5p0A8RDQcXgmSJwQmVCBhheMkyhKOz2iZF0G+mrZp6NrLy/O2T5mkMf1/594SJ0ReLW005HGFSpSKGbztbeP1q4rZ821kRb5/GtfFs5eo9Yar0oyb6ZTWCuD9SXJIqftttKPZ5NUOTY0Z9BuI1KPRZnxaK/fTKBdeD1DBzSH/cuVyxb2GkayvbmdqC1UtFme0sgukd/RURP4m9titXMkV0f2ernbdWntdsOysuPXjZcRFM/+jPsh9sLuSSGrch2sIIw0tSay4E23vgfaTbsswFhQion/Rp7ZxvLih4SaxxbcrNBQXeh40Uro0q+uPPLSwU/ZnO6RHEmQs5qAR3r21DjcIzFx4oqsOkhllS+iSi18DDffonRF4wJAWOWaoOE8EINb0RkcK7DsbCkoPBtIVCnyeiBytzQZ3rEcEISfomoidACMHi0wR5mWyCkEQQQif0yVhQwqCLdCWYMFLo97nmgiA00i8RDQZnPKHYSOHahFdcss7bCAKHfk3nHkiYCwonJin6hanSKxEpKsdMBCPMEf0TkSyNEeaM3olIEOaNvhkLgjB3iIgEYSwGg/8HvlNhD9jgjAkAAAAASUVORK5CYII=;" parent="1" vertex="1">
                    <mxGeometry x="1605.19" y="310" width="139.62" height="161" as="geometry"/>
                </mxCell>
                <mxCell id="20" value="" style="shape=image;verticalLabelPosition=bottom;labelBackgroundColor=default;verticalAlign=top;aspect=fixed;imageAspect=0;image=data:image/png,iVBORw0KGgoAAAANSUhEUgAAAgAAAAIACAYAAAD0eNT6AABmuElEQVR42u3dd5xU1fk/8M9zZ2Z7o1cVcCnL2nusYNfYFRUQbAh2scVootkYE7vYCxZQBBSiiTGWJBaS2JVYYQEBEZEu7M5s35n7/P5Af19NWLYwc597Zz7v1+v8o8vez7kzO/eZc889R0BEtJW+G11aFNLIXQKUq+KGkpmV/7DORERbJtYBiCjYoiPL91dxpwLY/kf/+TVHZWLhzPnzrPMR0eaxACCiDtERfXNjkcLfKHA1AGczP9IM6ENuVs5vOk39pMo6LxH9FAsAImq3Fr71t2QNgInFMyqfsc5NRP+HBQARtZmOKM+qjiR+L5ArsPlv/S0TvJQIORd2fmrecut+EBELACJqo9rTB/eOh5zZUOy7Fb8mqtCrS2YsmGzdH6JMxwKAiFoVPWPoAerqswB6JeP3CeQ5aPz8opmL1lv3jShTtW8Ij4gyTnTkkCvU1TeQpIs/ACj0ZJXQp7FRZQda948oU3EEgIg2a+2I8oLsiPsYgNNSeJgEIDcVDZp/o1TAte4zUSZhAUBE/6NqzOD+knD+CmCoR4d8Gc3OmOLZ8zZY950oU7AAIKKfqBk9ZMe4K6+IoI/Hh17iiHNc4fR5863PAVEm4BwAIvr/qkaWH5xQecvg4g8A27vqvhcdOeRY6/NAlAlYABARAKB61NDRIu4rAIoMYxSqyJ+qR5dNtD4fROmOtwCICNWjyi4DcBd89aVA7y0atOByTg4kSg0WAEQZrmrUkNsFcpV1jhY8VbSyx7kyZ07cOghRumEBQJTBoiOH/kFFr7XOsUWCl2rz807tPXlunXUUonTCAoAoQ1WPLrsJil9Z52gTxb8b487R3WfPq7GOQpQufHS/j4i8Uj1qaEVgLv4AIDggO6Kvrh1RXmAdhShdcASAKMNERw29SqG3W+foEMW/68ORo3pO+6zWOgpR0HEEgCiDVI8umxjYiz8ACA7ITcSf07P65VhHIQo6FgBEGaJq5JCTobjTOsfW0yOijTnP6giErJMQBRkLAKIMUD26fE8ReQrp8jcvclwsXPaQdQyiIEuPDwMialHVmMH9oYm/AsizzpJMKjgvOmqoX9cvIPI9TgIkSmPRsUO6aFzeBjDYOkuKKCBjimfMn24dhChoOAJAlKZ02LCwG5fnkL4XfwAQQB+Ljh68n3UQoqBhAUCUpqp7rb1FgIOsc3ggR9V5rvb0wb2tgxAFCQsAojQUHTnkWBG9wjqHh3o0O84MHTYsbB2EKChYABClmeozyktVZBoybI6PAAfFeq290ToHUVBk1AcEUbrTs/rlRJty3wawm3UWq1MgipOKZlb+2ToIkd9xBIAojUSbcu9C5l78AUBU8PjGUWXbWQch8jsWAERpompU2aEAzrfO4QOdQ5ApyhFOoi1iAUCUBjaetUuJAE+AFz0AgEKHV48acp51DiI/YwFAlAacpqYHAGxjncNPBHL7hrHl21rnIPIrFgBEAVc1csjJgI6yzuFDRaFE4hHrEER+xeFCogD7bnRpUVgjlQC4CE4LROWcopnzp1jnIPIbjgAQBVhYw78DL/5bpKJ3VI8o72ydg8hvWAAQBVTN6CE7AnKhdY4A6IyIe4N1CCK/YQFAFEAKSELlEQBc+rZtLqweVTbQOgSRn7AAIAqg2KghZwL4mXWOAIkIcIt1CCI/4SRAooD5frnfReBjf+0mjhxY9PT8f1vnIPIDjgAQBUx1Y85E8OLfIerqPVrBzz0igAUAUaBExw7pIiLXWOcIsF1jC8uOsw5B5AcsAIgCxG12rgVQYp0jyFTkKusMRH7AOQBEAREdO6SLxmUZgALrLEEnru5X9MyCd6xzEFniCABRUMRxBXjxTwrXkautMxBZ4wgAUQBsGDGgOBTJXgYO/yeLOolQeeGzX1RaByGywhEAogBwsrIuBC/+ySQacidahyCyxBEAIp/T8btHYjW1SxXS1zpLmmkQTWxTNHPReusgRBY4AkDkc9GaupN58U+JHJXQGOsQRFZYABD5neAS6wjpShXnWGcgssJbAEQ+Fhs5tNwV/cI6R3pz9i6eMe8D6xREXuMIAJGPJYCzrTOkv8Ro6wREFlgAEPmUDhsWFtEzrHOkPzmF+wNQJuKbnsinqnutGQ6gh3WODNC7ZlHZ/tYhiLwWtg5ARJsnghOtM2QKVfy2avSQGSr4Miuui/KfWbjSOhNRqnESIJEPaQWc6KKyFQB6WWfJUBsU+EKAeSrymSOYlwhnfd5p6idV1sGCpvaMsl5x19lGxO0DSCe4bomKdAKkRIAsAFDREtFN1yMVxEUlpnAbBFKvwJqiGZV3C6DWfUk3LACIfCg6evB+qs5b1jnopwS6QiGfAfoBxPlAQu4HRU8t+M46l7W1I8oLsrPcHURR7qqUiWAHQLcHsA2A7K0+gOjo4ukLZlj3M92wACDyoerRZTdB8SvrHNQmXwL6AeB8ANEPijY0fyyvLG60DpVK1WeUl4rqgXB1Hwj2VqAcQCiFh1xWtLF5SLqfV6+xACDyoepRZf8GwIlpAaRAvQDvqOJNB/pG4aqeH8qcOXHrXFvju9GlRSE360iIHi7AIQD6GcSYWDyj8h7rc5FOWAAQ+YwOGxaO9l5TDSDPOgslRQzAvwXypuvoG8WllZ9IBVzrUK2pGrVjJ0jzKaJyIoCDkYyh/K2zrinH3b7bEwtj1ucmXbAAIPKR6lFlAwEdBUiFdRZKmTWqeMlx8NeGJucf3WfPq7EO9AOtgFO9sHyYiJ4L6EkAcqwz/ZiIXlU0fcGd1jnSBQsAIkM6AqFYuPxnEPcYBY4FMNQ6E3kqDsj7Cn3Rcdw/Fz29cKFFiNrTB/dudpwxApwHYHvrk9ISga4obA5tL7PnNVlnSQcsAIg8tnrMTvk5ifjRAj0ZwJEAiq0zkT+I6qcuZLaEnGeLn563ONXHi40p28F1cR0UpyK1k/iSSM4onjF/unWKdMACgMgDq8fslJ+baD5WIKco9Cjw/j61bq4IZiUSOqvTMwuWJfMXV51RthsS+LUITkDwrgOfFM+o3NU6RDoI2gtPFBg6bFg42mftYVB3NCAnAMi3zkSBpADeh+DZkBuaWTDzizUd/UUbRg7eKSTOzQCOQoA//xU4rGRG5WvWOYIusG8AIr+KjSnbwU1gHIDTwbX8KbmaVfFXx9EnCpsWvCKzkWjLP4qOHdJFE3IjFBMQmKH+lgnwfNGMypOtcwQdCwCiJFh3zuDC7HrnNHUwDoq9rfNQRlgpKk+q6JTiGZVfbu4HdARC0ciQCwD5LYDO1oGTqDmkoW22ZjSEWAAQbZXYyKHlrujFAM4AUGCdhzKSKvBvUX24KB567ocZ8tWjygZCMBWKfa0DpoIoflE0s/J26xxBxgKAqJ102LBwda/VxzviXKTQ4dZ5iP4/wWpAJovrVqvI75DGk00V+LxkRuVO1jmCjAUAURttenyvabRArgIw0DoPUaZzVHYonDl/nnWOoApbByDyu9iI0m5uJOsiJJovBqSLdR4i2sR1cCqA31jnCCoWAEQtqB5VNlBEr3RVzgTUV0uiEhHw/QJGLAA6iLcAiP5L9eiyfURxtQInAHCs8xBRyzQRKi159osl1jmCiCMARN+LjSnbQRO4QRUj1DoMEbWJhOJHAbjfOkcQsQCgjBc9Y/BgdZ1fuQmMBr/xEwWMsADoIN4CoIy1YWz5tk7cvUGAM8FimCiQFKgv3tjcSV5Z3GidJWj4oUcZJzp2SBfE5WqNu5fBZ/udE1H7CJAbKw7vDuAd6yxBwwKAMoaO6JsbDRdcrXG5Gly1jyh9hGR/sABoNxYAaU5HIFQd2bFI3ebicEQKEgnN3tzPuarNjmiNG47EnbgTK5nx+Ubr7MkUHVl2QlRwF4D+1lmIKLnU1f2sMwQR5wAE0MazdikJJxr7uglsq6J9BE5fKLYFtA+AroAUA1qoQIEAuVtzKABVADZCsEoVq0XkWwVWiepycdwlhY3hr35Ye9yPoqcNGaRh3AOVI62zEFHKrCueUdndOkTQsADwKQWketSg/o44Q12VcgHKAQwFMBj+Gr5OAPgGwGJA54vK5+o4n9bm58zrPXlunVWotSPKC3Ii7q8VuBxAlvVJIqLUCjvonf905SrrHEHCAsAHtAJOzcKhZepgb7i6jwp2BVAGIN8621ZIAFgM4AMo3nPFeadkZbcvZM6ceKoPXD2q7HRV3CGCPtYngYi8oaJHlExf8HfrHEHCAsDAd6NLiyIIH6iQfb7fO34vAEXWuTxQK5APFPoGBK8VNVV+KLORSNYvrxozuL+TkMcUcrB1R4nIW6J6ZdHMBXdZ5wgSFgAe0GHDwrFe6/ZR0UMBHAro3uAETACoBjAHir/HNfRil2e++KYjv0QBiY4uuxCKW+Cv2yNE5BGFTimZseAc6xxBwgIgRWJjduqu8ebjFHosRIYDKLTO5HMK4D8AXnAd5y+dnp73aVv+UdWoQQOA0BMCHGTdASKyo8C/SmZU8nOgHVgAJFHVaTts74TcExV6PICfAQhZZwqwxRCZIXF3etGzCxb99//UCjjRhUMvgujNCPZcCSJKCllaPGP+9tYpgoQFwFaqGVHeMxFxTwN0NCB7WudJUx8AMt1pbppZOHvxuuozykvVdR8X4EDrYETkG41FMypzZdNoIrUBC4AO0BHlWdFw4mSInAXgEPCbvicUqBfBi1AcAyDPOg8R+YsTivQonPbZWuscQcGJaO1QNWZwf8cNjY9q4hxAuOiExwTIheJU6xxE5E/x5ngfACwA2ogFQCu0Ak71orKDHWC8JnCiQsMcOCEi8p9QmE8BtQcLgBboiPKsaMQ9PboI1wkwmDeViIj8TV2XtwbbgQVAC6qz3BNF8aR1DiIiahsRYQHQDo51AN9ypcQ6AhERtZ0qC4D2YAHQAsfRYusMRETUdiLI3vrfkjlYALSEIwBERIGiikbrDEHCAqAFKlpinYGIiNrOhVtvnSFIWAC0RLh2PxFRkDiQBusMQcICoAXiao51BiIiajuOALQPC4AWqAgLACKiAHEkXGOdIUhYALSMs0mJiAIkLO4K6wxBwgKgJQqOABARBUdTXmnlGusQQcICoCUOsqwjEBFRm30rFXCtQwQJCwAiIgo8BZZbZwgaFgBERBR4wgKg3VgAEBFR4InqJ9YZgoYFABERBZ6IfGSdIWi4HXBLlJNJiAIsCiDRwv/LBzjJN824DTnux9YhgoYFQAsE0qBQ6xhEmagJwGoA3yqwxlGsc0WroVIlDqqgUgXBBkA3Slw3NIez6kKqtcUzPq8StO+PduX43fOK6+qKE3CLVMNFqm4xxCmBJjqLoidEuivQRwTdodIT0D7gGiH+I1jY7YmFMesYQcMCoAUK5ZrSRKlRp4qlAl0KyFIIlolguau6PKzhFQUzv/DsWe7ek+fWAagDsKotP6+A1J0+uFcihP7qhvpDtL9C+4tKKQTlADobndNMN9c6QBCJdQC/qhpZ9rwITrTOQRRgyyE6H+rMV8UilcSiLBcL859ZuNI6WKrUjCjvGc/ScnExVBy3XFV2VmBnAXKts6W5lQCGFc+o/NI6SJCwAGhB9aih0wEdZZ2DKADiAL5QYK6ofOqIfhrPyv6s09RPqqyD+YEOGxau6ruuPOS6eyiwO6B7ALILgIh1tjTzjSIxrGTGoqXWQYKCBUALoiPLJqvgPOscRD70NYD3IHhPEvpBYaLmY5m9gruwtcPqMTvl57jxfURxgAAHKnRvAHnWudLAMhcY1mlG5dfWQYKABUALoqOH3qyqv7TOQeQDyxT6pkDejIQTb+Q9tehb60DpRkeUZ8Wy4nuqhg4D9AgAewIIWecKqCVxiQzrMv0zbgzUChYALYiOGnqVQm+3zkFkYB0g/xDoGy4Sb3JI1XvVI8o7a1gPBfQIERwFoJd1poBZFHYwLP/pyjZN7sxULABaEB059GwVfcI6B5EHXAg+VBcvQt2/FQ9Z+B9uquIfWgEn+mXZXurixO8nJg+0zhQIgkrHiQwrnPbZWusofsUCoAXRkUOOVZG/WOcgSpE4gDdU9I/hptCLBbPnrbYORG0TGzm03BU9EcDpAMqt8/iZAp87mji4aOai9dZZ/IgFQAuipw/ZVx152zoHURIlBPIvV/Gsg/hz/FAMvo1nlO8sCXeUCEYC2MY6j0991NjsDO8+e16NdRC/YQHQgugZgwer6yywzkGUBB8B+mSoOfRHftNPT1oBp2ZR2f4JYKwApwEosM7kK4KXir7tcYLMmRO3juInLABaEB07pIvGhd+QKKiqBfJswsXDnZ6ZzzXSM4iO6JtbHSk6RqDjARxqnccvFHi8ZEblOOscfsICoAU6AqFopKwJ3DGRgkMF+qYKHi+KNDwvU5dxOesMt2Hk4J1C4owHMBZAoXUeH7i+eEblTdYh/IIFwBZUjypbB6CrdQ6iVkQh+qSIPlD09MKF1mHIfzaMGFAcimSfA8jFgA6wzmNIAZxVPKPyKesgfsACYAuqR5V9CGAP6xxELVgCyL1NOYkp3AmN2kIr4MQWlx8DN3GZQg62zmOkWRU/L5lZ+Q/rINZYAGxB9eiyZ6E41ToH0U/phyJyc+HAyhf4vD51VPXo8j3Vda8VwfHIvFudUddxDuz09LxPrYNYYgGwBVwOmHxF8D4UNxbPqHzZOgqlj9jo8qGuutcAGInM2qBoZSSc2CuTl7bOtKqvfVxdYh2BCMC7UOeo4umV+/DiT8lWOH3e/OIZlWe6rg5S4DEAzdaZPNK7OR56Xs/ql2MdxAoLgC1w4XANdLL0sYoeUTyjct/imfNetQ5D6a3TMwuWlcyoPE+RGALFk9i0WmS62yvalDvZOoQVFgBboOJyBIAsfAPgzKJBlXuUTF/wd+swlFlKZixaWjyz8ixJaDmg04G0n2cyJjpyyBXWISxwDsAWfL8WQB2ALOsslBFqALmzqDl6q8xeUW8dhgj4/3sP3AbgaOssKeQCODbTbrGxAGhF9aiyReDuW5RaLoBHRBM3cH1+8qvqUWVHq+JWEexgnSVFNriu7t7pmQXLrIN4hbcAWveldQBKX6L6KQT7Fc+ovJAXf/Kz4hmVLxfHK3dR0fEA1lnnSYHOjoNZelRptnUQr7AAaIVAP7HOQOlHgXpAflsYD+1VPL3yPes8RG0hs5Eomb7gUTcrexCg9yLtJgrKntFOkTutU3jWW+sAflc1uvwUUXe2dQ5KI4KX3IRenElDjZSeNp5RvrOTcO+D4ADrLEk2snhG5TPWIVKNBUArqk7bYXsJJRZb56C0UC2ilxVNX/CkdRCiZFFAYqOHjFWVOwF0sc6TJDFx3D3TfW8N3gJoRfGzXywFUG2dgwLvtbgb2pEXf0o3AmjR9AVPotkZJJB0eaa+0E04f0z3RYJYALRCAFXgE+scFEwK1Cvwy6JBlUd0eeaLb6zzEKVK8ex5G4pmzJ/gOjocaTB5WgQ7VDfmpfXWwSwA2kAUH1tnoED6QICdS2ZU3spNeyhTdHp6wZzGZmc3AA9h0/a7gSWiV1SNLDvMOkeqsABoC2EBQO0jkMlFzc4BxTMqA/9NiKi9us+eV1M8o/JCBQ4HsNw6z1YQEUyrGblDD+sgqcACoA1CoiwAqK1iqnJa0Yz5E2T2vCbrMESWSmZUvpZobtxJoVOss2yFHglJPGIdIhX4FEAbaAWc6KKydQA6W2chHxNUOq6MKJw5f551FCK/iY4sO0EFjyG4TwqMLZ5ROc06RDJxBKANpAIuVN+yzkG+Nq02P28PXvyJNq9oZuWf425oVwX+ZZ2lg+6pPX1wb+sQycQCoI0E+Kd1BvIlBeS3RTMqz+w9eW6ddRgiP+vyzBffFM+oHAZgIoBm6zzt1CkectLlMUcALADazA3JHOsM5Dt1qjqieMb8Cgn4bGcirwigxTMq7xFHDgGw0jpPuyh+Hh095EzrGMnCOQBt9P3WwOsBlFhnIV9Yqa57fMkzCz+yDkIUVDUjd+jhijtTocOts7RDVdjB0PynK1dZB9laHAFoI5mNBCD/ts5BvvBJXCJ78+JPtHUKZn6xprB5/mGicjOCM4pWEncxyTpEMrAAaAdRd451BjL3VqK5cViX6Z+tsA5ClA5kNhJFM+dfJ5ATAcSs87TRadWjhx5lHWJrsQBoh4Q6b1pnIEOir9YW5B3RefZS7g1BlGRFM+a/4Kj8DEAwNl9TfXDl+N3zrGNsDRYA7VDyzPxPBMpvfpnphaIN8RM4058odQpnzp+HZmdvAP+wztIG/fJidb+xDrE1WAC0w6aNgeSv1jnIWwo8VtRcebK8srjROgtRuiuePW9D0coeRwN6r3WW1ojg8tjIoeXWOTqKBUB7ifzFOgJ5Se4vnlE5ftMkUCLygsyZEy+eseAyCC4GfP23F3FF77EO0VEsANqpKFL3JoAa6xyUeiL6SNGM+ZfyGX8iG8XTKx+Ai+MB1Fpn2YJDqkaXn2IdoiNYALSTTF3WoBqI+1O0FRQ6pXDgggt58SeyVfxM5UuAczCAddZZWiLq3hHECYEsADrAEeVtgHQmeLp40IJxUgHXOgoRAcUz5n0gCd0fwNfWWVqwXX5N/S+sQ7QXVwLsgNiI0m5uJLIKQMg6CyXds0XNlaN5z5/If+rGDurTHA/9DYAfJ97Vhh0MDNIKgRwB6IDC2YvXAfKadQ5KLoG8WdTsjOXFn8if8p5a9K0ifAAgb1tn2Yz8uIvrrUO0BwuADtPp1gkoqT5pzEkcL7PnNVkHIaKWlcz4fGNtQe7h8OdaAeOqzygvtQ7RViwAOqg+FHkefBogLaji27hEju32xMKgLENKlNF6T55bV9TsHKPAn62z/JcIXPcm6xBtxQKgg3pO+6wW0Besc9BWq3bhHs21/YmCRWbPayouyDtVVP9oneW/nFo1asju1iHaggXA1hCHtwGCrdFRPb7zzIWfWQchovaTyXObC1f1HAnBTOssP44lkD9Yh2gLFgBboejb7v+AYLV1DuoYAS4qnLngn9Y5iKjjZM6ceFFT5RifFQGHV40eeoh1iNawANgKMmdOXF3hKEAgyf1FMyoft05BRFtPZiNRlJ93pir+ZJ3l/2dS92b1+aP2LAC2lus8BHDBmGCRt4ua5UrrFESUPDJ5bnNxYd5pUL8s1CZ7Vo8uP9k6xZawANhKJc9+sQTA69Y5qM2+cULhk/i4H1H6kclzm4uyG04TxRzrLAAg6lb4eRSABUASiOAhCMDm+9YAcU4unPbZWuv3DBGlhkxd1tDsNB8PBx/74DOnPDZyyDHW56QlLACSoPDbHi8KlI+R+ZxCLy2ePu9D6xxElFpdpi+OhoGfA1hmnUUd5xrrDC1hAZAEMmdOXBWPWeeglonKcyXTFzxqnYOIvJH/dOUqjYcOBbDGNonuFx09eD/r87E5LACSJOzIZAgafTDkxPa/7etEVtY46/cIEXmr5NkvlkCd4yCotfwMUhFf7hQo1gHSSdUZgx8VCC80/hIX1WFF0xf6cfMQIvJA1eihh4i4LwPIMoqgTsjZsfDJ+fOsz8WPcQQgiRxHbgcfCfQZuZEXf6LMVjJ9/utQnA27z2dJJFzfPXrMEYAki44Z8pwCJ1nnIEAV/ypuXHAwt/clIgCoHjPkBgC/NTp8U0TcAXlPLfrW+jz8gCMASaaue4t1BgIA1CEUP4cXfyL6QdG0Bb8D9Fmjw2c1qXO59Tn4MRYASVY8fdGHArxpnSPjCX5Z8uTiJdYxiMg/BNB6ZJ8rwKdGxz9v3TmDC63Pww9YAKSCuDf4YOZ7Jrd3igYseMD6bUBE/tNz2me1iYQcD8Fag8+mokhcRlmfgx+wAEiBoqcWvQXBP6xzZKg6OHKWVHAyJhFtXqcZlV+L6EkAPF8S3AEusO7/j7JQKqir1wFQ6xwZR+TXxVMrv7SOQUT+VvTkwrdF9Hyvj6vAzlVjBu9h3X+ABUDKlExb+BGAF61zZJj3i+oq77UOQUTBUPTkwimAPOT1cR2R8dZ9B1gApFQCej0ECR/cE8+EltCQXMhZ/0TUHkU5eZdB8K63KwNipB8mA7IASKHOTy38TKFTrXNkBplcMqXyP9YpiChYZPLc5rgTPg3ABg8PW+CHyYAsAFIs5MavEyBq/wU5rdsGaUrcYP1aE1EwdZnyxTeO4DwvP7f8MBlQrANkguhZQ64D9PfWOdKXji+auog7/VGHrb2wvCA/6hY2ZyVyQxLKS8Q1e3M/JyJRTbhxJLKqmkrc5u4Pzquxzk7JU33WkPsFepFXx1PoXsVTF5ltUc4CwAM6om9uLD9/PoB+1lnS0IeF/Rbuw8f+aHN0RN/c2vyCUlewnai7rUK2FWAbBXoD2g1AV0A6oaObxCjiEGzApuHj7wBsUMUKEVmhcL9x4HyTSOjXxQ0Ll3N+iv/pWf1yosh+V4BdPDrkI0VTF3r+JMIPWAB4pHrsoKPEkZetc6QZVVf3KX5q0QfWQciWVsCp+bp0iOs6e4jIDoAMBbQMm4puP9zqbAKwFMCXEF0EyDwXzqfFBc3z5L7Fjdbh6P9Ezxk8GAl8BEFByg+mWF+YXdBbJs9ttugrCwAPxc4ePF0B84kf6UKBWcVTFp5mnYO8993o0qJIVvhAQA8AsCeAPQCYz6rugDigCwH5WCHvq4t3i/v3/FQq5sStg2Wy6nMGjRWVJ704looeXfzEolcs+skCwEOxMdt313B4PoAu1lnSQLM64aHFj89bbB2EUk/H7x6paa45QKGHAs7BgO4OIGydKxUEqFNgrgL/dFReLyiMv8tRAu9594VNnyyasugsiz6yAPBY9OwhZ4KPBm41gd5fOGXRJdY5KHU2ntWvJIysIyE4TiFHASixzmRBgDpA31bIa4LEXwunLJ5vnSkTRMcO6YKQfgGgZ4oPVV1YkOhhUeSxAPCYAhI9Z8jfBXqodZYAi0lzvLRw2pK11kEouXRE39yagrzjVGQUgCPR0cl56W2pAH8V6Iv54cJ/Wt0/zgTRcwedAJU/pfxAihOKpix8wev+sQAwUHXOoAEhyOcK5FlnCSJR/U3hlEU3Wueg5FBAasYNOUhdPQfACQjmvXwr3wH6nKg8W1Cz8J980iD5YmcPnq6S2lsBCnmm+IkFI73uGwsAI7FzBl2kkPutcwSPrmnIiZTy+evgqz63vDPc5jNl07roQ6zzpIHVAswS151SMPXLT6zDpIvo2CFdEE75rYDamnBB996T59Z52TcWAEYUkNi5g/8E4HjrLIGi+EXREwtvt45BHRcbN7BM4VwJxWgAOdZ50pEI/uOqTNGsyPSShz7faJ0n6KLnDjoBSO2tAFGcVvjEwlle9ssPz8dmJAFUET4HwArrLAHyXUNO2POduyg5YucOPDB6zqAXVZ15UJwLXvxTRhW7CfQ+p6lpZfTcQVOrxg3Z3TpTkBU9vujPAsxI5TFcwUle94sjAMZi5w48UCFzwNeiVQK9vvDxL2+yzkHtEztn8HAVvRHA/tZZMtzbIrivwCl8nhMH2y86dkgXRNxKAN1SdIiNhdFF3bycx8GLjrHYeaXlqs4X1jl8TxBNNDdt12nqsirrKNQ20fOG7Kvq3ijAIdZZ6CdWQ+TuGond13vySk/vOQdddNzgcwF9LGUHUNm/6PGFb3vVH94CsKbOKdYRgkBV7uPFPxii5wweHB036EWo+zYv/r7UE6q3FLgFy2LnDfx11QU7drIOFBSFjy18ApB3U3YA0aO97A8LAGMKjLDOEAC1TiJxj3UI2rKNZ/UriZ476BY4+imAY6zzUKu6qcrvnObG5dFzB92y8ax+JdaB/E4AdRyZACAlSzUL5EiP+0NWYuMGlqkIV/VqhUDvKXz0y4nWOWjzFJDYeYPPhuptEC5zHWAbALmtriH7/p7TPqu1DuNnsfMG3afAxSn41RqSUJ/8yZWrvOgHRwAsifDbf+vchOh91iFo82LjBpbFxg2aA+jjvPgHXmdAb8nLaVgSGz9wgo5AyDqQX8Wbm64HsCYFv1oS6h7lVT9YABhSgPf/W/diyeTFS6xD0E/piPKs6nEDb1SRTyA40DoPJVUPVXk41mngJ1XjSw+3DuNHnaYuq1LFL1Lz270rAHgLwEh0/KAhACqtc/idOM7wwocXzLHOQf8ndn7ZDq6bmCbALtZZyAOKlxGWK4oeWrjQOoqfKCCx8YPeArBvkn91VeHGRV29eByQIwBGBBz+b4PPCx5e8E/rELSJAhKbMGg8XPd9XvwziOBoJPTz2PjB96wes1O+dRy/2LSYm14BQJP8q0vqupTu5EUfWAAYUSgLgNbdKcn/46IOiJ1d2q1mwsBXVPGIQrmJVeaJKPTSvNyGz6onDPL0UTU/K5785fsAkr5EcNyVA7zIzwLAQPSCwYMh2BECsLXY1hZmu89Yv1YExM4ffLBmOZ8p5AgfvC/YbNsAAV6qHj9oZnT8oK7W701fCMl1EDQn8zwLHE/m1bAAsJDQk60j+J88KfctbrROkcm+H/K/QVX/jtTuhEYBI4LTIfgiNmGg5+vX+03RQwsXqiR5dUDR/dWDOXqcBGggOqH0LUD2s87hYwrHKeOkIztrLywvyEk0PQXgROss5G+qeEYioYuLHljwnXUWKzXj+vdwQ+EvARQm7Zc6zpBUfwZyBMBjVRds2wkie/tgKM/P7S1e/O3UjSvtm+s2z4HgRB+8F9h83sTB6Ugk5lVP2N7TVez8pOCxr9aI6J1JPbduIuWbZ7EA8FhIsw4DELbO4Wsij1tHyFTRCaU/i4flPwrl9rHUHj1EnJei5w+6WcfvHrEOY6G2Nu8OJHNxICf162uwAPCYQjxb5CGgqmsSNbOtQ2Si6ITS4yHyOlK33SmlNwfQX8ac6FtVFwwaYB3Gaz2nfVarorck7Rdq6m8TswDwkAICAWdSb6GpYAa3KPVe9PzSc+DIHyHItX4PsAW+7eVAP45eMOgEz9/Ixorq4w9DsDJJ53FA1QXbdkplXhYAHqo7v3QXAL2sc/iayBTrCJkmdv7A67+/7cJbU5QsRYA+Fzu/9DdakTnXGZm6rAGCScn6dSHN2jmVeTPmhfGDhDgc/t+yL4sfXPShdYhMUn3+wJtUcKN1DkpLjopUxNYM/MvGiZmz1XADsh4GkJQnIlxJ7YqbLAA85R7tg+E53zZ1ZKb1K5RJqi8ceJM4+JX1686W9u3noabIh9GLhgzy7t1tp/uD82oEem8yzp0Idk1lVhYAHtk4sV8JRPa2zuFnTtx91jpDpoheOPB2AX5lnYMyRik08Xb0wkEpf7TNDxJoug9ANAm/igVAOgg3RQ4G77G2TPFp4SOL51vHyASxC0pvAHCVdQ7KOF0Bfa36gtIzrIOkWslDyzcCeHjrf5OU6Vn9clKVkwWAdw60H4nzb4NghvULlAliFw28FCK/tX692TK2ZTsiT8UuHFThwdvdlBOJ3yVAw1aer3BdQfYOqcrIb6ReEfVkd6eA0kQiPMs6RLqruXD7sQq9e1PFRWRGAP1N9OLSosL7F18pabrjZ8E9X62pubB0ugrO3Zrfk3DdHQB8lIqMHAHwwIbxA4oBpPRxjiAT4INODy9YZp0jncUu3H64ijwK8PJP/iCKy2MXlT6ZzisHKuRObGWBI6IDU5WPBYAHsiPYD0DIOodfucBfrDOks9glpUMh8jyALOssRD8mwJjaSPXzeklptnWWVCh88MtKBf62lb8mZU9PsADwgDrOgdY33vzcJKQsAFIkOn5QV3H1JQhKrF9nNrbNNRUcE1P8KZWT3Sw5qvds5TniCECQqQve/2/Z0sJ7l3xhHSIdacWwsETcWSrSzzoL0ZYIcFRNQfgFvbxvrnWWZMt/cMnfoNrh3U0FKNVNpUDSsQBIMR3fOw+CPaxz+JZw+D9VatZ/cwcEw61zELXR4TXx3Bd1fO886yDJtGmQQyZ39N8rkF9/SWmfVGRjAZBiNVm5+0CQZT3M5t/G4f9UqLm49AyIXGb/+rKxtaNBD4ll5z2nFeVpNV/FRfhJCBo6el4SKZoIyAIg1RxJ+Z7OAbaxoPM2/7YOkW6ilw0erIKHrHMQdYQAR9Z81zhdR6TPxOmiBxZ8B+C5jv57dSUl2yuzAEg1xT7WEXxL5W9SMSduHSOd6CWl2ZJIPAOgwDqLT0UBrINiKYDPAcwF8CkUSwW6DECNdUACAJxS26v00VTd+zbhdPw2gAB9UxGJCwGlmmB36wh+pY6+Zp0h3dSI3A7RXaxzmFF8I45+puosFdWlruArRxJf1TXnLe3+4Lw2Xdx1/O6RuqyabolwYjtR9BWgrwLbQrENgFIAQwGk7bPrfqHA2bFLSzfi3sVXWmdJhsJ7vvxX7NLSSgBl7f7HwgIgcOov6r9dHOhqncOvIvEEC4Akqrmk9HCFXmydw0MNEMxVF++JI++GHHkvb9Kib7f2l8rkuc0AVn7f/odWlGfVfddYnoDsLI7uDBe7fF/oF1qfkHQjwBU1lw5cXnDvl/dYZ0lKfwSPquKu9v47FaRkEmD6DK/4UOySASdBpMP3fdLcl4X3LsmI7UG9sGH8gOJIjnwGYFvrLCm2EcBrIvhrfXb4T91uWxizDgQAOgKhul7b75JQPVREDgWwP4C0fK7dgAvVEYX3LX3eOsjWip2/fXdkYQXaO4Ik+LzwniU7JTsPRwBSSWQ3llgtet06QDrJypW7NX0v/tUAZgrc5/PrO8/5/hu6r8hsJIAlc7FpTsGtennf3Fpk7aeuHAvgFAC9rTMGmAORp6svKT24+L7F71mH2RqFDy9ZW3NZ6d8Uekw7/2lKbgHw8pRC0cu2f0WAI61z+JOeUnjPUo6OJEHtxO2PchUvW+dIgY8VeKgukj+j5x2f1VqH6SitgFPzXekBcNxTATkZQA/rTAG1Lhx398x94KuvrYNsjdhlpSMAbffmZ1VOY942k1bUJzMLC4AUil22/VoA3axz+FDCdRq7F09ascE6SNDp5X1za9zsLwCk5DEhA80KzFQ4Dxbf8+X71mGSTUcgVNt3wHB1ZRyAk8DJhO31cUF9/f4yeWWddZCO0rP65dQUh1YC6NSefydZiV4Fty9bncwsvAWQIvWXDdg2Lrz4t+BTXvyTo8bN/jUkLS7+CQWmuwm5seS+xUusw6TKplsFS18D8FrtxO16uQiNB2Q8eIugrXatyc19XIFREtBthGXqsobYxO1nAZjQnn+XiIeS/mgv1wFIkWZH+Phfy962DpAOolf2GwLBVdY5tpILYBbg7Fh095Iz0/ni/9/y7/56VeHdS39bUFfSDyKngX8XbSM4PTZx+6utY2wNVX26vf8mJG5+snOwAEgRAXazzuBXAn3XOkNaSITuQpC3+FW85ziyR+HdS04rvPvLSus4VmTy3ObCSYtnFd69ZH9R93AA/PtohQB/qLl0wCHWOTqqsNPSd9DCY6YtcV2HIwCBodjJfF1tn7aQ8pvO1qq5YsAhIjjK+rXsYKsW0YkFK5fsn3/X4o+tz6WfFNzz1T8K716yr4geJiIf+OC18msLaUim107crpf1a9YRUgEXon9uT58djgAEiGCwdQSf+jb3nqXLrUMEmVYMC6tKQBdG0T86kfDQgklL79l0P5w2p2DS0tcKJi3eWyHHAbLAOo9P9XAlPE0rAnod0/atEeM4whGAINDxu0eQPrOyk+0d6wBBF6tacRaAcusc7VQF0VMKJy0dkX/bwnYNfWayokmLXywozt5ZodcKNLCPQqbQITXVA35tHaIjCkq2+ReA9W39eVdZAARCTV60FIKID4bJfNfEEd7f3ApaUZ4FR39t/Tq2p6ngw0QovFvhXVz3oSOkYl5T0aSlt4RcDAXwvPXr6b8mN0SvHLC/9evU/td1TlxE/tLmvyMobwEEgYZcDv+3IKGc4LQ1aqobxwmwnXWONlIo7iksytm/5I6FX1mHCbrce5YuL5y05GRRHAVgqXUeHwmJytS1F5YHbgdMgdvmolg4AhAUOmTTI6ps/9USRTV1n1m/OkGlFf1yIO51Pngd29LqNg35L5koFfOarM9dOimYtOTVhnB4F4FO9cHr7Je2fW523Z3Wr0175TU7rwMabUsfVTgCEAgOMNh+WMyXbWGQV/CyVhNzzoKgjw9ex1aafqchObzwzuBv3uJX3W5bGCu4a+nZAE6BYIP9a+6D5sj46qsG/Nz6tWkPuW9xI4C/tvFWRyjZx2cBkAIKGWKdwaf47b+DdARCAK6wztEGi13X2afo9iV81NMDhXctfS6ksguAN62z+IGjeHTjxH4l1jnaGfqFtv5k0g9t3ff0pJwDsBkq+MQ6Q1DVbNv/RAADrXNsiQAfoMnZt3jSksXWWTJJ3l1LvikoXHooFBUI6PK4SdQrHJJbrUO0h5tofg1o/ZFYUZVkH5sFQJLVXNa/BwSdzIfDfNgckU+tX5/AcpwrrV+/VtrbNVJ7cOF9i9dZn6pMJBVwC+9a+ls4GCGCWh+8HwybnBe9uv8B1q9JWxVPWrFBBB+1oW8sAPzODYuvv6VZkuY4C4AOqL1y+92huo91jpYo8GFzCD/veccaPqdurPD2pc9B3P0BZPJiWyLqPKKXlGZbB2krhf699V6xAPA9JziPaHlLsCb/7q9XWccIItfB+dYZtuBTTTQd2fnWpdXWQWiTgtuXfSLNuhcyetEtLavJcq+xTtHmtCqtFwAqLAD8znV0O/shMB82aMZu9rI1Nk7sVyLQkeav3+aHWisBOZxbO/tPwT1frSlodA4G8Ef794lRc/DL+iv7B+ILWWHhtu9BUN1KfzgJ0O9EnH7WGXxqkXWAIApnOaMUSPrzv1tPv0uEQscU3rFkrXUS2jy5b3FjwddLTxfFFOssRnLjIec26xBtIRVz4gDe2NLPuOAtAN8TF9taF76+bOJwZnhHqIwxf+3+tzXDxUkltyzianQ+J7ORyC9YOg7AIz5433jfVE+NXd3vIOvXoS0cwd9b6U9V0o9p3em0I7wFsLkmwJfWL03QRH/Rf7CI7mP92v3Paym4tPDOr/5lfX6obaQCbsHtSy+A4G7r947N+9W5+/t1NHzNDTnPQVDfUj8cB3OTfUwWAElSf9V2/Wuu6f8kRAf5YFlM3zVXhAVAOwkwxvp1+5/lSIGH829b+rD1uaH2EUALblt6OdS9xfo9ZNB2qe0/YKz1a9CawpsXr4O4FZvrg0Dfystd8rdkH5MFwFaqu7xvn9qr+z2YcJyFUIwFz+nmuAW58SXWIYJGgBHWGf7L3IKqTpdah6COK7h92bUKPGqdw3taEYTHAgtuXXYboGcBqMSmxYFWA3J3XnPz4VIBN9nHE+sOB9WGawYUZ6n+CoKLAeRa5/E1wdcFt3zVzzpGkMSu234HSbifW+f4kXp1EnsU3rx8vnUQ2jo6AqGa7fs/L4rjrLN423G9vOC2ZXdbx2hz3O+vz5LC1R35bbWdtAJO7TX9z8uCLoLgavDi3zoVThZrJyeROMk6w0+oXseLf3qQ2UgUNDafLtDMWidA5Nq1FcHZMlgATeXFH2AB0C6xa/ofWFvf/yMFJgPobp0nOPRb6wRBo3COt87wozRv5Octu9c6BSWPTFpRH2+KHwtIJhV13fPr6yZah/ATFgBtEL22T5eaawZMEWAOgF2t8wSPrLROECTRa/t0AXQX6xzfi4XgnJ2K+49kq3jSig2huB4NYL11Fq8ocPm6XwwutM7hFywAWhH7Zf8RjmbNh+hZEIj1Iy1BbApdYf06BokgazgEjvXr9v0dyD/k3ro0k9eVT2u5d371NUJyOgQJ8/eaN61zbqhpgvV59wsWAC2o+9X229Rc2/9VAWaBw/1bxwH3AGgHB3qwdQYAENEl+XXOJOsclFoFf1j6uqjeaJ3DM4ortKJfjnUMP2ABsBmxX/Yf4bruJ1AcYZ0lHYQSHAFoD1XxRQEAF1fKfYsbrWNQ6uXlLrsJ0Jetc3ikV029c7Z1CD/gY4A/Er22T5eQZD2k6rvnrwMt5Mp2HEZum7pf9e3juhE/FEyvF9z81aHWIcg71RV9O4caI3MB9LPO4oGv8hd/NVBmI2EdxBJHAL4Xu2674Q6yPuPFP/lycnNXW2cICteN+OHbv4q6V1uHIG8VV6zY4Dg6EsiIi2L/+u23y6x1EDYj4wsArYBT+8v+14s6/wDQ2zpPGqqVinlN1iECwxfD//pK/i1ff2ydgryX9/tl70Fxt3UOL7jiZPyqlmHrAJZi15Z2q22OPwVHj7TOksaqrAMEirh7Wt+Yc9X9g/VpIDv5taFf1RbGjwZQZp0lxYbVXNd/p4I/fPWZdRArGTsCUPer/nuJxD+Gghf/1Kq2DhAUeklpNgSDjGO8WXTz8retzwXZkfsWN7oqE4D0X/tB4V5incFSRhYANdf1H+uq/hNAH+ss6U5ZALRZbWG8DEDENoX7e+vzQPaKbv7q36L6oHWOVBPIqA3XDCi2zmElo24B6AiEagf1vw3QK6yzZAphAdB2IjumeOnv1swv+P3y161PA/lDbXbBtXnNtccD2MY6SwrlZYfdkQAycovrjBkB0Kt65NcO6vcnXvw9JpwD0HbuTrbH18etzwD5R/eKeTVQ+bV1jlRTIGPXBMiIAqDmuv49arNy3wRwrHWWTKOqMesMwSE7Gh68Sd3INOszQP6Sn/XV0wA+sc6RYnvVXD/A8m/PTNoXANFf9x8MR9+Fgz19sA51xjVH0GD9HggMwU5Wr5M48mLhzYvXWZ8C8hepgAtxrrb+HEn9nhfuOdbn2kJaFwC11223mwP9N4D+1lkylcLhGgBt8P1EpF5mARIuh/9pswpuWvoaBK9Y50gpxUgdgZB1DK+lbQFQ96v+e6kj/wDQzTpLJlMB15Jvg4gTt3wipTpvfdfXrM8B+ZeqXglo3DpHCvWoHTxguHUIr6VlAVBzQ//DXEffgKCz+dBSpje4af8scVKEpKfh6/SKTJ7bbH0KyL8Kb/q6EpDnzD9PUthUEqdZn2evpV0BUHPDtodA9S8A8q2zELWVOIbD/9AXrftP/ifi3m6dIaX9g5yo43c3XofDW2lVANRdv93PROXPgOZsep6azb6l13ssZVT7GL1GCTce/5t198n/8n+3fC6gb9h/pqSsdanruT6jdsBMm4WAaq/fZk9X8CqAAuss9H8EknETazpEpKfRkd8quvnb76y7TwERktvhqg82rEoNV3ASkOYTHn8kLb6d1Vzfd0cV5xUARdZZ6L/IppkA1Bo12YlSRf5p3XMKjoKKZa8CSNudIkXxc0XmfGYFvgCIVvQbAgm9BqCLdRbaHA38e8wTKj0sDuuofmDddQoanWSdIIV61V2/7W7WIbwS6FsA9RUDtk0g8SoE3a2z0OaJINc6QyCEUOz5NgACTaD5feuuU7DkO87sWtV7AZRYZ0mRYwDMtQ7hhcB+O4te26eLq4nXodjOOgu1TJUFQBvleX1AUSwpqli53rrjFCxSsaxBBbOtc6SKOs7PrTN4JZAFgFaUZznZ4ecUKLXOQq0QZFtHCAT1/rFVFfDbP3WIQp+yzpC6zunu0YreXa1jeCGQBUAtah4GcJD1whFsrTeF8qmMthDkev/66OfW3aZgKvzN8rdFsMT68yVFzRGJHGR9jr0QuAKgpmLbXyCDt28MGoEUW2egzVOVL60zUDCJQCGatrtHOorh1hm8EKhJgLUV/U4A9GbrHNQewqcz2kDg+RRAwEmwAKAOCzn6dCIhFdY5UiQjCoDAjADUVPTbBaLTIHB8METE1vZhZpPH2wJHIB6/Nm5+ARZbd5uCK+f6b5ZAUGn/GZOSVlZT0c9qcS7PBKIAiP6hTxcR9y/gKn9B1FVnZd42mx3g9WY8K+SKFfXWnaZgU03bVfPEgbu/dYhU830BoAoJNYeeBLCND9aKZmt/c2rn9+OWzK3SRi9fF4V+bd1jSgOir/rgMyY1TbCX9elNNd/PAai9aburRDRjnstMSyI9AKy2juFnIqj3chKACF8P2nr56vy7znHrYLCORaq5kLQvAHw9AlB303b7iurvrXPQVtIEV2pshQK1nh7Q1bXWfabgk4plDQDetM6Rkr5Bd0/325e+LQCif+jTRV13JoCM2p85LQk4EbB1G7w9nEStO0zpQQTpup10Qe2CvkOtQ6SSL28BqELqbgpNhWBb6yyUFNtYB/A7FVkvHj4JqIKYdZ8pPajqexCxjpGizsnuANJ2wSxfjgDU37Ttpdi0IQOlARHlks2tUV3n6fEECesuU3rIK8n+DECTdY5UcAQ7WGdIaf+sA/y3ht/1HajAH6xzUPKoykDrDH4njq7x9HiqvLVGSSGXLm4EMM86RyoonHLrDKnkq1sAWgGnFs7jIuk3ozSTiWB76wx+pyLLPR1EVWEBQMkj+AjArtYxkk/TugDw1QhAfXibiSI4wDoHJZmi17pbBxdax/CzkOpyTw8oLAAoiRRzrSOkyDYbK/qVWIdIFd8UAA1/6DNIIb+zzkEpIbmNTQOsQ/hb2NOFeURdbtNMySOargUAsrO0zDpDqviiANAKOPFE6DGk4WIStInjuJwIuAU58a++AeDd0rwiXJuBkqYukrfQOkOquG76TmL2xRyA+kjfiwTKof80ppK+VXQySAXc2t9rJYDdvDkgH82k5Ol2zcJY7e+32Qigk3WWZBNI2s5hMh8BqPl9/x4KudE6B6WYpuMEoeQSyHyvjqWKvtb9pTSj8HYei3cd62+dIFXMCwBB/DYAJdY5KOW8+WYbYK64Xi440kcVabp6C5mQ9CwAJI0XpDMtAOpv2XZ/CMb4YO9nttS37aor+na2fL/5nap+6OHrkVt7ez8u0UzJI1jug8+ZpDcFC4Ck01kIua7eD/BbSIYQJzu0i3UIP2sIN34EeLdCn8TjHJWhpFF4/Cird9J2tMysAKj/ctuLAexsfQLIO6IuLzhb0O2a9TEAlR4ecg/rPlMaEXxrHSFFsqtv2bbEOkQqmDwFUH1X387aqL+x7jx5y+FEwNYJ3gK8Wn9cdrfuLqURkfXWEVIl5EhPAButcySbyQhApEmuRRo+LkJb5gr2tM7gdwJ9zcPDcQSAksZx3bTdYjqccLtaZ0gFzwuA+lt6b6uKi607Tt4TYGDtrdv0ts7hZ83ZeBPezQPo3XBbX27UREnhOlJjnSF1fUNaTmD2vABwNXQjBDnWMzvZbJq4OMjr91yQFF+xYgMEc716PdyEcNttSoqwot768yVlTwIIC4CtVnNL3x0hGGPdabKjwgKgDV707EiiLAAoKTQSabbOkCqOSpF1hpT0y8uDCfA7QB1AwZaZTaDDvHzPBZEL+ZNXr4cCB2y4ZUCxdZ8p+NxEvNn68yV1fyealruZelYA1NzWZxcIjrMeymGzbSoYVHNbv55eve+CqPCXy+ep4EuPXpNIjtN8tHWfKU344DMmFU1EOQKwNcSVX2PT6aTMJo7bfKB1CL8T1We9Opa6OMe6vxR8Ek6ErDOkikLzrTOkgicFQOyWbcshONG6s+QPKnKodQa/C7mY5tnBRA9puG2btN3xjLzhJEJZ1hlSRp0C6wip4EkBIJL4NQSO9TAOm08acEy6Lq2ZLDnXfbsIgvc9ek3EhY6z7jMFW9x1C8w/W1J1C8BRk0XzUi3lBUD97dv1F5ER1h0lHxH0qrtzGy5C0xrRKV4dSoGztKI8fb/BUco5jqblt2QAcFVYAHREwnUvBZC294aogxLusdYR/C6vVqfBu+VHe9blVZ9l3WcKLhdOWs6UBwARTctrWEoLgO/uLS0SR8+xHr5h82Fz5LhUvvfSgVSsrFPgKQ9fl19xFIA6ynGkk/nnSqpamn6JTWkBkNtUf64ARdavHZsv2871t/RO2322kyUc0gcFcD16Tbaty4uea91nCihFLx98rqSoqdnOuamUsk6pQqByoXUHyb9cJ8TbAK3IufLbRQD+5NXxRPRavbc027rfFETayzpByoh4tT+Hp1JWADTc0fcgCEp9ULqx+bSJoyel6v2XTlScmz18XbZpaGq82rrPFECCXtafKalrkpbLHKduBADgUCK1ZljdrX36Wofwu/yrls8V4G9eHU+h1zVM2naAdb8pcNJ3hU/RuHWEVEhJAbDhlgHFcPQk6/Wb2XzfHIT19FS8B9ON68ivAVWPXpdcTcQftO4zBYuq9vbBZ0pKmqo2WZ/fVEhJAZAdaTgDQJ79sA2b7xvkjFS8B9NN/hXffATB8169LipyRN2dfU+27jcFhzjoaf55kqLmcASg7QTC4X9qq51jt2+zg3WIIAg57vUAPPwg0odqb92mt3W/yf82TupXAqCTdY5UUZFa6wypkPQCoH5Sz34AdrXuGAWH47ijrDMEQfblqyoB9XJovpuE3Rk6Kz2fgabkyUZzmXWGVFJFjXWGVEj+CICEDrQermELVhPBaK3wbmfKIGtqCldAsM7D1+eghm/7XGfdb/I3gZZZf46k9haAsABoi7iLButOUeBs21jUmzsEtkHJtcs3iugvvTymKm6on9TnYOu+k3+pOkOsM6S0f3BZALRF4RXfzgLAGcTULi4cLhrVRjkTV04R6KseHjKsiuca7+g51Lrv5Fea1gWAKEcA2iw3+u0lEMy2HrZhC1LTY76fP0KtEIG6kdC5EGzw8DUqSYRCL9Xc1i99n/WmjhOk9S0AN6QbrE9xKqTmKYAKuLnVkbEA/mndQQqMkCuh86xDBEX+Jd+sFJHLPD5sPyfS9KI+0C1tt32l9tOKfjkA+lvnSCURrLfOkAopm3glFcsaGhE5AcCn1p2kYBDFOK5D33a5E1c8DVHP9gnYRPaob8p6Re/tXGTdf/KH+k5NuyFNd8v7gRMXFgDt1enyZVWJUOIwEZ1nPYTDFojWvUEbuPhMO8TjGA/BGo9fp/3r3bw3ovf36WLdf/IBxX4++OxIaat3ImutT3MqpPzRq8JLV69zQ6HDAV1svZwjm/+bqntRqt+T6aToqpXrXbhnAprw9rVydw/H9e8sAgiQfaw/N1LcmksmLqu2Psup4Mmz15vuV+IQKL627jD53r719/Te3zpEkBRMXPU3CDx9NPB7u4Xj+m7jfb3TegY4tUb3tU6QYk31d/VOy03LPFt8JfeylcudUOgQCFZYD+ew+bypcOGZdsq7bOUdEEw3eL0GJly823Bv78OtzwF5r2FSjwGQ9N0D4PuWL2F8Xndvr7TbvtzT1ddyLv1mieMmDgKwzLrj5F8qemTtvb13tc4RNLkJ5zwoPjI4dImreKnunl6XqUKszwN5R8VJ92//m/oJFEPlj/X39Lk+nd7jni+/mnP5mqUCHATBYuvOk2+JqHIUoJ3kihX1cOREAGsMDh8G5O76e3u/ELu3Zzfrc0GeyaTbdaLQG+vu7T0lXfbHMFl/PfeylctVQgcBWGB9Asiv5CTeW26/vEu/XaHqHiuA1aSlY0PqfFZzT68jrc8FpZ6KZNzrLMCZ9at6PaMV5VnWWZLQFzs1d3fv4YTCr0Kxi/WJIP9RYGr+pSvPts4RRHX39d4PilcBWC3ao6p4ItGMXxZdtTItn6HOdLH7e5aHXOcL6xxWRPTlnObQKXLFinrrLB1lugNbwcS1axqycoYBOsf6RJD/CDC64YG+pdY5gijvkpVvi8pxAKw+nEQE54azsLD23j4XpMuQKf2fUMI5yjqDJVU5uiHsPq+P7B6xztJR5luwdp6wtDoX+UdC5TnrLOQ7ETfh/t46RFDlXvbtm67qSQAaDWN0FuiD9at7f1B7X8+MvmCkHcHR1hGsKXBkfePqx4M6MdA3oXUWQg1ret2vkPOts5CvKNTZJ+/SFR9YBwmq2vt7Hy+KWQD8cM/yPYV7Y/4lq1+xDtIeem/nogbJuVChJwKyrQDrVPFyIpK4q/CCNWm5Slxr56NectbBH+8pP7gt75KV11iHaC/fFAA/qLu/9zVQ/AE+GJ0gv9A5eZesGm6dIsjq7+kzXB19HkCJdRYAgMqHAtyfUxiZJWcva7CO02LMW7sW1udmnQ/gFxB03cyPrFVXj86/bNVc66xeqru/14lQed46h7/oxLxLVt1jnaI9fFcAAEDdvb1Ogsg0AHnWWcgfVOWY/Eu/fck6R5DF7u9ZHlLnZQDbWmf5ke8ATHESeCxn4sqF1mF+UPdA722guEQU4xUobuXHv23IyinvPGFpWi4Xuzl19/d+GorR1jl8xoXoKXkXr/J4g66O82UBAAC19/XaQyB/gWgv6yxkTxRf5PRYtYucioR1liCrvW+b3iLxlwBfPnnzqShmS0j+mHOh98WATumXU1/bcJxAzlTgCLRnhzvVq/MuWX2H15kt6O098utznTUA8q2z+FAsJNg7+6JVldZB2sK3BQDwQxWuzwPYwzoL2RPIubkXr3zCOkfQ6eNdCxvqI7MU8PMz3AsF8obCnZMI6ZxU3Weve6hvH0m4R6jgSKgehg7eIhHg1dyLV2XEJMf6+3qdoYJp1jl8bEGu27i3XLohah2kNb4uAIBNVXldbdNDAj3LOguZW9vkRIaUXLh8o3WQoNNZCNWt6X29iP4a/t/LXQFZCuhnCvlcxP084eiCAie0VCasrGvTL1BI3f3b9HKcxAB1sStE9wZ0b0CS9JipvJ938cp9rE+UF+rv7/WKz4tHP5iRd/Eq398i8X0B8IPaB3teJOpMAjSwz1zS1hPgkdyLVvFJkSSpf6DncIUzHQjsrbb1EHyrinUC1ALS9MP/EGi+Coqh6AqgH4DsFOaYmXfRqlHWJyPVau7u3sOJhFYACFtn8TuBnpl70eqnrHNsOWOA1D/Qe3+FPgOgj3UWMuNC3X3zLl7zvnWQdBF7qEd3x3WmCcAd/TpIRU7Mv3Dln61zpFrdA70uA3C3dY6AiDmJxK45l65dYh2kJYF61C73opVvxcOyiwAvW2chMw7EeYgryyVP4QVr1uatW3UUINfAbuXAwBLg5bwLVr5gncMjY60DBEihGwo9oRX+vc4GagTgB6qQ+gd7Xw3BTbwlkKFELsu7YOW91jHSTcMDfUsTSDwogsOsswTEn3NDMrqtcxGCrO6h3vtB9S3rHEGjohfmX7D6IescmxPIAuAHdQ/22EcQehrQ7a2zkOeibiJcln/JNyutg6Sj+od6jYaLOyHoYZ3Fn6RZxb029/zVd4lArdN4of6B3s9C9FTrHAEUVZUd8i5a+Y11kP/m26GJtsi7cM17Odq8CwSPWmchzxVJqPlh6xDpKveCVdMbJVIGxSMA4tZ5/EQE/3Hg7JF3weo7M+XiX/dA720gepJ1joAqcqC+XCEw0CMAP9bwUK8jFDIlwLOZqUPk3NwLuDZAKtU/2qM/Es4voTgX/n9kMIWkWcS9K7tzlxvk1HlNW//7gqPh4Z63qErg1rr3E3HliJyLVv7dOsdPMlkHSKboI727RhJ6JwRj0q1v1KIoEtgp9+JVX1sHSXdND/fZOe4mficix1pn8ZoI/gyEfpFz/oovrbN4TR/pndfg6nIAXayzBNwXOWtW7SoV/hlRS8uLZP3DPQ6BysMAuJd8JhC8mbN69aFSAdc6Siaoe7DHPo7IlQqcgDR/HlyAj9XFlbkXrX7TOouVhgd7jVfRR6xzpANRXJxz4eoHrHP8/zzWAVJF7+qb25CXuB7QqwDwSYE0pyKX501Ydbd1jkxS90DvbSSkF0B1HATdrPMk2UcK3Jq7evXzmVxY6iOINGjPBQAGWGdJE6tzxNneL0+NpG0B8IPGR3rs6Ko8AuBn1lkopeodcXbLnrBygXWQTKNT+uU0NDWc9v0cgf0Q3MnFCug/oLg194I1b1iH8YOGR3qNV+W3/2RSwS/yJqy+3ToHkAEFAABoBZzGXj0vUMXv0frWnhRQCvk0ty70M7liBRezMVL3UN8+cBIjRPVUAPsgGJ8xywF9ShLukzkXrVtsHcYv9N7S7IasmkXw1/bR6WB9TiQ+QM5dH7MOEoQ/zqSJPtK7a1jcG0RxPnhbID2pPpp7/prx1jEIqH+k97YiiRNdlYMd6IEKKbHO9CNfA/o3EczOXrnmjUwe5m9JwyM9L1Lgfusc6Ul+nTth1e/NU1gHsNDwcLeBkNDNCpxsnYVSQGRs7vhV3K7UR3QWQnUbeu0qjg4TxTAAuwLo7WGEDap4xxH9BxKhv+VcuHKh9TnxM72rb25DfnwxvH2NMsmanKycfnL2sgbLEBlZAPygbnL3fUWdO8D5Aemm1hHsnT1+9TzrINSy6sf6ds5KxHcW1R0U2BEiAwD0AtAXQFEHf21UIV850CUKrVTF5yEJfZo1fuXCTFm0JxnqHul1uUDvss6R1lTH5Z6/5nHLCBldAADf7yswuecpIvgD+NhgOpmf05zYWy5aV2MdhNpPn+qR39gc6ptwtSCkbicAcEVK4P7oM0sk7sCNuYIaxwltzI4kVsjYNbXW2YMuen+fLpHsxEIon/tPsXk5563e0bIwzfgC4AdagXBD714jAb0WQJl1HkoGnZ47fs0Z1imIgqR+co+HAZlgnSMTCOTInPGr/mZ1/KA+rpN0UoF47vhV03JWrt5BHD0OwIfWmWhryei6yT2vsk5BFBS1j/TeDZBx1jkyh3u+5dE5ArAF9Y/03h+O+1sAB1tnoQ5zHehJ2eetyZT92ok6RBXS8FjPt8E5UV6KJ8KJbQrOXrfa4uAsANqgfnLPg0TcixVyAtJ86dM0FXOg+2eft/Yz6yBEflX/aM+zAeXGWh5T1Svzxq81mXDJAqAd6h7q0kfCkQmAngegp3UeapevE9C9C85bu8Y6CJHfbJxSUpITz14AoId1lgz0Re55a3a0ODALgA7QWeVZ9dH1Jwn0QkAOsM5DbfZuTij3YOtnb4n8pv7xHk9AcbZ1jkzlqrNH/nmr5np9XBYAW6nx0V5lLtwzIBgNYDvrPNQKwcycb9acwZXfiDZpeKzHsQr8xTpHhrs5d9ya67w+KAuAJKp9tNfu4rhjRTEKQFfrPLR5Cn0wb9zai6xzEFmLPtmnS6Q5/gV4S9OYLModt3qw50e17nY60ntLs+vyokc5guMBOQYsBvxHcFPuOWuut45BZKn+sR7PQHCadQ4CHNcZmn3eqkovj8kCIMW0Ak5dn167Oo4eC+ip4CJDvqGqV+eNW3uHdQ4iC3WPdz9RIM9b56DvKa7LHbfmZi8PyQLAYw2PdSsF5BAVORib1hfg6IAdhci5ueesnmIdhMhLtY937e0g9Cn4+eMn7+eeu2YfLw/IAsCQVsCp3a7bTmEN7a+i+0CxD4DtrXNlmISqnpZ37trnrIMQeUEfQaQh0vMNQPe3zkI/kchpbuoiEzZWe3VAFgA+E3uiZ7cI3N1cQbm4MgTAUBEMVaCTdbY01qwio/POXj3bOghRqtU90eNuAS6zzkH/SwTH5Zy95kXPjmfdYWqbmindeoZclKrj9BXFYQDOsc6UZhIQPTv37LXTrIMQpUrdlB6ni2KmdQ7aPFG5K+fc1Vd6djzrDlP76b2l2Q0Fsc8BDLTOkmZUIJfmnLP6fusgRMnWOKX3EFcTHwAotM5CmyfQ/+Scs3Z3745HgdT4RI/jXdE/W+dIQ6qQK/LOXnO3dRCiZNHHuxY2iLwPET6F5G9uY1Zj15LR1Ru9OBi3Aw6o7HPWvADgVescaUgEOqluavdfWAchSgatQLhBnGd58Q8EJ6cxey/PDmbdW+o4SeglABqtc6QjUdxa90SPe7SCfyMUXKqQhu16PALBUdZZqG1c0V28OhY/3AIsZ9y6xeLgXgjAlvwmjl7a2K/7H/WR3nnWrzVRRzQ81f23ED3H+m+Jre1NgF29en+wAAi47Lj7OwArrXOkKwVObMiKvxF7qkd36yxE7VH/ZI9xUHC566ARYQFAbSPnro9BcI11jrQm2Dvs6rsNj3f1fLMOoo5omNr151B9yDoHdUipPt7Vkyc1+BRAGlCFND7V401AD7LOkubWu4oT8s5a+7Z1EKKW1D/V9SBR52UAvHUVUA50t6wz132c+uNQ4IlA4brnAai3zpLmujqCNxqe7H6hdRCizamf0nOYqPMSePEPqgRUrvDi4g9wBCCtND7V/RequNU6RyZQwfSc+vB4mbCyzjoLEQDUT+12oIi8BKDAOgt1SBQqY3LOWvMXrw7IAiCN6JsIN67o8R5UPVtJKsN9rJCTc8eu+co6CGW2hid7HArRF8Bv/gGllVA9IefM9Yu8PCpvAaQRGY64uHoOgGbrLBliV4F+0vhkj+Otg1Dmapja/XCI/gW8+AeSANOyc7CX1xf/749N6ab+qW6/E+DX1jkyiKuQm3K2Wfs7GY64dRjKHI3Tup+sqk8DyLHOQu22XlTGZ5+59k9WAVgApCGdhazGpq7/gUq5dZZMoiofSEjPyBm97kvrLJT+GqZ1uwzAXeBIbvCIvuYm9Ky8M7/71jSG9Xmg1Kh7svvPHEffAj8cvFajgstyz1j3hHUQSk86C6HGhm6TILjEOgu1WxVUrs0es/YREah1GBYAaaxhWtfbAbnKOkeGeq7JzZpQdOa331kHofShj/TOa8xrmg7ICdZZqH1U8WwigYkFZ69bbZ3lBywA0pjOQlZjY7f3IN6tLU0/sRKKc3PGrOOujbTVamZ07xFx3RcUsrd1FmoHxWeq7uW5Y797wzrKf2MBkOYaZ3QZoq4zF5whbEZVpsezncsLT129zjoLBVP9tG4HiOAZAL2ts1CbrYHoDdmR9Y/LqUhYh9kcFgAZoGFa1wkQedg6R4bbCNFfZo9a/6gf7v1RMKhCGp/udikEtwOIWOehNlmvKg/kSPwuOWND1DrMlrAAyBAN07v+ifcN/UBfhyvn54xZt9g6CfmbzupU3Ngcmsq/24BQrBbB3VkRPCCnrquxjtMWLAAyRPTJPl2ywk2fgUOIflAvwE1ZTfl3ydnLGqzDkP80Te+2iwv8EcD21lmoFYJPVXF3TqfimXL04kbrOO2LThmj/ukeh4i4fwcfDfSLrwS4Jnv0utnWQcgf9E2Em1Z1u0oVFQCyrfNQixoU+DPEfTR3lP8m97UVC4AM0zCj622AXG2dg37i347oFVkj139kHYTsND7Tpcx1Q1MFupd1Fto8Ad5V6JPZjfFn5eyqKus8SegPZRJ9E+HGVd1eA3CQdRb6CYXgj+qGr84dvepr6zDkHa2A0ziw6zhAJkH4tI7PJCB4T1y8qK7+OWfM+oXWgZKJBUAGqpnVrWc4rnPB+QB+VKuQ+5oRubNo1Mr11mEotRpndBkCOE8o9GfWWQgA4AI6DypvC/DPrKb4q+nwTb8lLAAyVN3M7vs6cN8EkGWdhTarBoIHm53wHVw/IP3o052LGkPO9QAuBf8GrTQC8iXEXaiuzBPIu9nh+Lty6sZq62BeYQGQwRpmdrkIkPutc9AW1QJ4qLk5dHvh2DVrrcPQ1tEKOA2Du50l0D8A6GGdJ20IXoai9kf/IQzVQohWQeQ7Vdkgqt+pIxsEWI2EszA7suZrvy7Q4xUWABmucUa3J1V0rHUOalUdFA+rxu/NHV3FOQIBVDez+74C9x4B9rDOklYEL+ecvv7n1jGCiAVAhtNZfXMb3YZ3AOxinYXaJAHon1Wce3NPW/cv6zDUusZZnYe6rnODAKeCn7nJVqsa3iF35Opl1kGCiG9GQv30ku0kFP4IQFfrLNQunwB4KNvJmSanrqi3DkM/1Tir81C4zi8VGAUgZJ0nTV2Zc/r6u6xDBBULAAIANDzb5VCovAyuNx48grUKfUziztSc0eu+tI6T6Rqf6bSDInQDgJPBRbdSRoD3s3qs31+GI26dJahYAND/V/9s1/MEmGydgzpMAbyjwJM5kpiVSbOZ/aB+VteDBHIpVE8AL/ypVi8h3S37lO8WWAcJMhYA9BMNz3S9DQKuFBh8jRD8BYpp2d3Xv8JvSamhL3QtbGzESAAXQbGTdZ4MckXOaesnWYcIOhYA9BNaAaexrMssQE62zkJJsxrAC4Dzp2xZ+6aciibrQEHXOKvHjuomLoDgDACF1nkyzFvZlesPkgq41kGCjgUA/Q99sXdeQ33TmwJwTfL0U6WKlxyRP2c1OK/I2DW1W/8rM0Pdc537OgnnVAVOF2BP6zwZqgaus0vO6WuXWAdJBywAaLNqZnXrGYb7HoDtrLNQytQD+gaAf4irr2efvvEL60B+E3u+R/dIIn4KVE8HZD/w3r4pBc7OPfW7qdY50gULAGpR46zOQwH5lwJdrLOQJ1ar4nU4+jpUX889deNy60AWGp/ptIM6cjggRwI4GHyEzxdU9Znc0zaMtM6RTlgA0BY1zeqylwu8DqDAOgt5brEq3hfRD13Bh7k5OZ/IsSvrrEMlW+z5Ht2z4olDIXq4Kg4DN8nyo2XZcHfhky3JxQKAWtXwXJdD4eKvALKts5CpOFTnQZwPofjQhft5PNy8qOik2HfWwdpKp/TLqS+M7ewodhdgD920LO8O4Gehn8Vd6EF5Iza8Yx0k3fBNT23S+MfOJ6vKs+BwKP0PWQ/FQjhYIKqLACyE6OIsN75KTo1usEikU/rlNOXG+qsjA+Do9lDZEdDdseliz8WuAkWuzhmx/g7rFOmIBQC1WdOszueqyKPg+4bargHQlQpnpQArRXSVKtaIyncqqIVorQpqHJUqdd06N+TW5jRotMVfFnEKQwh3ToS0k+NqJ1Ht5IrTSaCdIOitrg4QkQEA+oDv03TwfNYp350iArUOko74B0Lt0ji7yzUQ3GKdg4jS3qKsBt1TztgQ3fpfRZvDR1qoXTSkn1pnIKK0Vy9wTufFP7VYAFD7qMMVAokolRSQc7NOWfexdZB0F7YOQMGhbyLcuEGP540jIkqhm7NPXj/TOkQmYAFAbda4ocswAbpZ5yCiNKV4IeuL7663jpEpWABQmzlwj1N+/Sei1KjMcvVMbvLjHRYA1GYKHMXrPxElmwBrEuHEz+Xkaq705yFOAqQ2afhjt4EQKbXOQURppw6KE3KPq/7KOkimYQFAbeO4R1lHIKK0E1fVU7NO3vCedZBMxFsA1CYCHcbhfyJKJlWZmHPyhpesc2QqjgBQ2zj4mXUEIkojghtzTvruAesYmYzf6ahVDS90KxU38aV1DiJKDyL6QNYJGy+2zpHpeAuAWuWou6+yVCSiZBB5OvLxhkutYxBvAVAbuNB9rTMQURpQfSGr6Luz+ay/P7AAoFYJwAKAiLbWq1nZG0+T4YhbB6FNOLBLW6Qvdy5qasZGsFgkoo77W1ZR0QkyfFmDdRD6P/xQpy1qbMbe4PuEiDruFV78/YmTAGnLFDtA1DoFEQXTq1lFxSfx4u9PLABoyxwdbB2BiALphazwxtNk+MZG6yC0eRzapdYMsQ5ARIEzI2vVxhFyNHjx9zEWALRFAnAEgIjaTAUPZf1n4xiZgGbrLLRlfAqAWqR/KilpCstG6xxEFBCC32cfs/HX1jGobTgHgFrUnBUaDJfrdRBRqxIKTMw5ZuP91kGo7VgAUMs0MYSDRETUiloFRuYcu/FF6yDUPiwAqEUKbMfrPxFtwUpx9Jjso6s+tg5C7cdJgNQiUelunYGIfErxcSIu+2Tx4h9YLACoRSrawzoDEfnSrCzk7p93woZvrINQx/EWALVIRbrzDgAR/YhCcFvWURuvFdnIJUIDjgUAtUjgduMkQCL6XrWKjMk5mpP90gULANoC4S0AIgKATzTkjsg5MrrYOgglDwsA2iz9CJGmtehknYOIjAmmZcXzzpefr6yzjkLJxQKANm9tQQk4/k+UyepEcFHWUVVTgSrrLJQCLABos+qRlR0CVwEkylDzoDIy6+iNn1sHodRhAUCb5biJLAlxAIAowyggj0biuZfLsRzyT3csAGizJBLOgpuwjkFE3ql3REaEj9z4EsA9wDIBFwKizRJNZFtnICJP1W+6+FOmYAFAm5fQiHUEIvJUgXUA8hZvAdBmSTiUpcpJgEQZhJN+MgxHAIiICAA46S/DsACgzdKEW2+dgYi8oywAMg5vAdBmuZKoc4T1IVGmEKDWOgN5i5/wtFkaDnMEgCij6CrrBOQtFgC0WTnNzSwAiDKKfGudgLzFWwC0eaH8OkiDdQoi8g4LgAzDEQDavHfX1APcDIAoUwhkpXUG8hYLANosqYAL4DvrHETkDVd0hXUG8hZvAVDLBGsAdLOOQUSpJwlZaJ2BvMURANqSNdYBiMgTiUhRwSLrEOQtFgC0JSwAiDLDEtl3BZ/8yTC8BUAtc3QNlMuDE2WA/1gHIO9xBIBaJK5wYRCiDCCQj6wzkPc4AkAtcgVfCdQ6BhGlnPuBdQLyHgsAapE48iWUBQBRmmsOx/P+A8Ssc5DHeAuAWhRpzl4McAiAKM19IEes4UZAGYgFALVIjlhTKwDnAaSUfC5ABTgJi4wo8KZ1BrLBWwC0RSqyGNDe1jnS1LRIbf75cuzKOgC/rf9Hp21DIfdIVT1WBEcAiFgHpPTnqLAAyFB8xou2qOmNwocBmWCdI81EVTAhe3j0mZZ+QP9V0K05IceJ6xyjogcDKLIOTWmpNiLRrjIc3PkrA3EEgLZMnU8gnAaQLAr83VVnfO7BVV9v6efkwJp1AB4H8LjOQqi5a/EuIjhUVY8F8DPw9h0lgYj8nRf/zMUCgLZM9GOOEyVFNaBXZg2LPSHtfLZSTkUCqJ4LYC6AW/VfBd2a4s5hIjIcovtCUQaO5lEHqLp/tc5AdvihQVuk7yC3ubEoChaLHabAKwknPCHvoA3fpOT3v9y5KJ6b2MuF7i/AfoDsB2iudb/J5wRuRBN9ZHjtausoZIMFALWqaU7RPCiGWucIHMFaVVyZPTz6tJeH1Y8QaY4V7S6q+8LBfq7KzwToZX06yHfeyhoePcA6BNnhtzpqi48gLADaIQ7gwYg6v5HhVVVeH1z2QDMQfQ/AewDuAgB9u6B7vDG0o4ruCMgOEN0JwFAA+dYni4yoTLeOQLY4AkCtappTfB6gk61zBIO+oaqXZQ+v+cI6SatJFU7jG8X9JeTu5EB2ALCjQsoA7QegwDofpVRTJAu9ZN/oBusgZIcjANQqlcRbwl0BWzNfoRXZw2pmWwdpKxG4QPUSAEsA/OnH/0/fQW5jorhXKB4foI4zQF0McEQGqGhvKHoB6A9+gQgsAV6SfWO8+Gc4/gFTq1Qhzf8qXAOgm3UW/9HlgNwQOTA2bdMFNTPom90KGp3GXo6Dzk4CnROCTiLoLK7bWQWdAemkis4i6AygE4BsQMOAFP7o1xSgbYsdNQOogSAKxbbg59ZWU+jJ2QfVPG+dg2zxD4napPmfhc8rcKJ1Dt8QfA1Xb43U1TwhR6PROk7Q6SyE0Kv4p4sdSSQu+6//yQ41Tf8smATIROu8QabAqqz82Hab5opQJuMtAGoTFXlDVDO+AFDB11CZFElEH+ECKsnz/VoHG1v7uUh+zS/itYU/A7C3deagEshkXvwJYAFAbeQm8GooZJ3C1FxRmRRORJ+V4Yhbh8lUsgeaG96UM0IhnQsuj9wR8XC4+VHrEOQPvAVAbRb/V+FiBba3zuEhF5A3RPTe8AGxF63D0P9p/nfRkVD9K4DMLkvbTWZHDoyeap2C/IHriVPbibxqHcEj6wFMSiRkcOTA6GG8+PtP5IDoq1CtsM4ROK7eZx2B/IMjANRmzW8VHwZ1/26dI0VcqL4mDh4PRWte4MQ+/1OFNP+7aKaInmadJSD+HTkgdqB1CPIPzgGgNgvnVM+J1xduANDZOksSLQTkmbDjTJH9trxDH/mLCFRfjp4ZLyzsCeAg6zy+p/J76wjkLxwBoHZp+lfhVBGcaZ1jawiwRBWzVNxnsw6o/dQ6D20dfbOkJB5O/BvADtZZfOyjyAGxPa1DkL9wBIDaxXFklkKDWAB8AcXLKs7syP7VH1mHoeSR4VVV+q+8w+Oh0D+hGGidx49E8QfrDOQ/HAGgdtE3EY5HCpbD/7vLVQN4XSGvRMLxV2Wf+hXWgSi19J+52yRCzj8V0t86i68I/hPet2bPTFqpktqGBQC1W/Nb+bcBcrV1jv8SBfAeBO8ggTnhRM3bfF4/89S/W9Iv7Mb/zpGAH3H10MiBta9bxyD/YQFA7db4VkG5A5judifQr1zIO1C8o6pvZa2unbdpNTnKdPp2Qfe4ysuA7m6dxZ68Gtk/dpR1CvInFgDUIc1vF34AqBeTitYC+BzAPBWZJ8AX4azwPNljY7X1OSD/0re6Fsal4U8ADrHOYsh1Q7pr9j61n1kHIX9iAUAdEn8r/0wVmbrVv0ixGiLfQHUFBMsBXS4qK9SRFeFGLJLhsfXWfaVg0peRHS8umAZghHUWCwKdGt6v9mzrHORfLACoQ/RlZDeXFP7f0wCq2QLJ+5+fE2x04MYAJ6bQmIobc+ORquy4G0V9LMYFdyiVVOHE3ymYBOBS6ywei4bVLZP961ZaByH/YgFARGkv/m7+aFU8Aki+dRYvKHBx1r41D1jnIH/jXgBElPbCP6ud7sLZA0CldZbUkw8jK2oetk5B/scCgIgyQva+sQVhN2dvAH+0zpJCcUViAp+IobbgLQAiyiiqkPj7+VdA5SYAOdZ5kkvujPwsdpV1CgoGFgBElJEa3ykc4ohOAbCPdZYk+TKcl7+r7Lym1joIBQMLACLKWKpwmt/PGycqdwEI8gTBuIp7QNY+9e9ZB6Hg4BwAIspYInCz9qmb7KqzB0TfhgDBbPo7XvypvTgCQET0vfi7ece6IvcJsJ11ljYTfSf8dd2BnPhH7cUCgIjoR/Qj5MWb8y+B6K8BKbDO04raBEK75uwT/dI6CAUPCwAios3Qt3O2aw6Hfi/A6QBC1nk2RxRjw/vUTrPOQcHEAoCIaAsaPswZENbwNap6LnxUCAj0vvDedZm2xDElEQsAIqI28FchoO+EC+qGSzmarM8LBRcLACKidmj4MGdACKHxAMZD0ckgwqpwWPeQ3bjRD20dFgBERB2gb3UtbM6uGymQiVCUeXTYZjjOwZE9Ym9Z95+CjwUAEdFWUIUT/yj/YFWcJcBJAHJTdyw9L2vvuses+0zpgQUAEVGS6EedipvdxlMFMgaC/ZDUxdbkD5E9a35l3UdKHywAiIhSQD8q7JpQ92hVjIDgSADhDv8uwfTI7rVjRKDW/aL0wQKAiCjF9P3CLolQ/GCoHArgMAX6t+Nfvx7Oqz+aM/4p2VgAEBF5rGFudqmjoUNFcCgUBwHoutkfVHwUzqsbLuWosc5M6YcFABGRMf1PznYJld0Vshtc7K6CMgdoDsVlf9mndo11PkpP/w9kwkTVSsoJ+gAAAABJRU5ErkJggg==;" parent="1" vertex="1">
                    <mxGeometry x="2044" y="730.88" width="162" height="162" as="geometry"/>
                </mxCell>
                <mxCell id="38" style="html=1;entryX=0.995;entryY=0.63;entryDx=0;entryDy=0;entryPerimeter=0;strokeColor=#999999;strokeWidth=2;fontSize=20;fontColor=#666666;startArrow=none;startFill=0;endArrow=classic;endFill=1;edgeStyle=orthogonalEdgeStyle;" parent="1" source="21" target="26" edge="1">
                    <mxGeometry relative="1" as="geometry">
                        <Array as="points">
                            <mxPoint x="880" y="812"/>
                            <mxPoint x="880" y="793"/>
                        </Array>
                    </mxGeometry>
                </mxCell>
                <mxCell id="21" value="" style="shape=image;verticalLabelPosition=bottom;labelBackgroundColor=default;verticalAlign=top;aspect=fixed;imageAspect=0;image=data:image/png,iVBORw0KGgoAAAANSUhEUgAAAZ0AAAGaCAYAAADU2p4aAAAAAXNSR0IArs4c6QAAAARnQU1BAACxjwv8YQUAAAAJcEhZcwAADsQAAA7EAZUrDhsAAENxSURBVHhe7d0JmFxFuTfwU92TjVVQSPoMi6AIZHoCggjihorIoiTTQ8QNcbtuVxRRLt7rAu4LyiIgXMXLKgrJ9ISwu4HsIiBkesKOApmeQADZIgmZ6fre/6kK3yTpmenl7Of/e553qup47wPMdJ/3VJ1aHCIiIiIiotRRtiRKvWW9e6qcXr2pVLeU2EJiM4nNJXBtY4lNJKbbmCYxxUZOIi+x1qhETWJEYo3EaokXJVZJrJR4QeJ5iecknpX4l+Pop/VIx/Odi+/W0ibKLCYdSrxHDul2pkzTSCSvlthOolNiG4mZEgVbbmVjqkQUn3skGySppySekHhcYliiKjEksUziMfk3e2z6yJQVW176dyYnSiUmHUoEm1iQPHaV2GlM7CixgwR6KWn4PCPZoLf0D4mHJB6WuF/iPpQdI7XhrRcvZUKixGLSodiplro2k49mt1R3k0BZlJgtgSGxLH9mkWyekbhHoiIxYGOJW678S0qi2GPSoUhVS0W8T3m9xN4Se9pA7wXvUagxeL+EntHfJf4mcQdCEhESFFGsMOlQaB7v7XZGtUZCeYvEmyT2lUAPpkOC/IXJDugR3SpxE0K9pB8sXD7IoTmKFJMOBcYmGbx3ebvEfjZcCX7uwodkg4kLN0hch5AkdB+TEIWNX37yVbW3+Cq5vb1LqgdIoMRsMn7O4gfJBjPm/iTxB4k/uuUKZtURBYo3A2rL0GHFnKp572QOtvEGCQ6XJQ+G4+6UuBKh9Ojthf578K6IyFdMOtS0aqmIhZMYKpsncYjEthKULhiKu0xisXSJ/tRZrmDhK1HbmHSoIZJoZkiBIbP5EujRYPoyZQN2VUAPqE/iardcwToiopYw6dC4hqRHIx+Q/aV6uMRcCWwbQ9mGrX2ukPidxDWSgLAFEFHDmHRoHY/2dqkOrfaR6ocl0KvZGteJ6nhSAr2fC1RN3VJYNMB3QDQpJh3yVHuL2zja+YhUPyqxiwQ/G9QozIR7UOJ8hPR+HsVFonp4Y8mw6mHFKU7NOUiq/yHxHgnsqEzUDmxqiinYv1KOuqJQHnjJu0pkMelkULUkvRrH+ZTEJyQ484yCgt2zz5E4W3o/j3hXKPOYdDKi2tMlD54K288cJYFJAdjinygMOHPocomf5/WUv8zs57ENWcakk3LDvd3TtNaYEPBFCSzc5N+cooJkc5fEqfIpvMTtq+DgO8oY3oBSqloq4lCzz0p8XgKHmhHFCRafnil3oDMl+WAWHGUEk07KVEtd28qf9Rip4n0N19VQ3OFo7/+TONktV/7pXaFUY9JJCenZYDfn4ySwvgZn/BMlCRaZXiTxY0k+OCWVUopJJ+Ek2ewsxdclPiDBKc+UdJh08FuJHzD5pBOTTkJJsnmtFN+Q+JAEkw2lDZIPttr5PpNPujDpJIwkG6yrQc/mYxLY7ZkozbC49AK5VX3XLQ9wrU8KMOkkhCSbV0qBdzb/KbERrlFolktcKoETN1dILJbg3yBc/5Y4U+JH0vPhbLcEY9KJuWqpa4b8mZBoviaBxEPhwbDODxxHX+KWB73zZCT5/1IKbBtE0Xha4geO0me4feZvQsnCpBNT1d5iztFOr1R/KPEa7yKFBTez70icJE/VL2/dbydt3C3BYc3oYYPRr+dyuYWzFi7h7tYJkrMlxYjc3PaUhHOtVC+WYMIJ1/0S+zprpv1wbMKxjpZgwokHTKS5uFar/UW+L3txX53kYE8nRuTL8yop8ISN4ZsOXKNQXStfiPmFcuUp236Z/G2ww8M/JLjgNn6wszUWmH5THhSe8K5QbDHpxMBwqdghT2qflOp3JbbyLlLYMDngA3LTqrsfmCQd/H3ONi2KKUwwOMFR+n/dvkEkIoohDq9FTG5me0jCuUGqZ0kw4UTjKnn6Ony8hGMdZkuKL4wUnO5odbN8r7C5LcUQezoRkS/FplJ8SwK7P/OYgejcJrG/JJznTXND8rfaRIplEpt7FygJsLj0DInj5W/7nHeFYoFJJ2TDvbMdrXMHS/V0iR28ixQVJJI3yU0J5bgk6eAcIvRGKXmwoPQop6YucxcNmCsUKQ6vhUhuXq+UhIOTFC+TYMKJFmamfXiyhGPtaUtKnu0lLnVy+nz5/mH4jSLGpBOC6mFzkHBwWifWeGD7Gv7eo/e9KSNrrrf1yWAHb0oujOgcIXG3fA97q73dHOGJEG9+AauWurd0arXzpdovwcPU4uFmrfWPt1rc8D6S29iSks2VWOBo/ZtqL3s9UWHGD8iKQ3d21nRMeZdUfy2BLj7FA2aovdEtVyqmOTl5OkaP6K2mRSmBYdXPjIysuXK7xh8+yAfs6QSg2lPcSBLOSVK9RoIJJ15OLsxpPOFY3NwzfdB7vayjY8pp1d7ujc0lCgOTjs/kqbhL+o83S/XLEnnvIsXFo452fqxOsK3GcW+vdML97wuO1rfK93Y3c4mCxqTjk2Xv31XJB/fTUr1Vgh/geDre7W9pzcb6e7BRuhQlbpLv72er84t85RAwJh0fVHuKW+RG8jhiF7sKYCEhxQ+G1HAGfys22IuNUgdDbL9wRp1LJPnwCJEAMem0ST6gb3CUt6r9cAk+JcUXjj3GKZStwCFulH74/mK7o7/K93ov7wr5jkmnRU/Mn4PhtM9JFTObsM06xde9cj8p23orsLs0ZQeOE8GRCZ9ZXtqdD5I+Y9JpgXwYNx4ZrWErdeztNMO7SHF2mlseaLWXA5K0KGPwvT6z5oycO2z23iOfMOk0SRLOq6XAWfnYWYBPQfGH9zEXmmrL8D6I54RlD77fH5U/PHo9O5pL1C4mnSbIB28/KW6R4LbpyXFRu7sMy53nMSkeNy3KoD0kMK0ai72pTUw6DXh83m54f/MFqV4tMcu7SEmA9TXYYLUtBTMB4Q7ToozCWVdXyn3gS8tKnFbdDiadSQz1FKeO5kbx7ubnEjwfP1nudpTCJqt++IstKbtw7tXJctM8q9pb5L2gRUw6E5Cnmi2U8o4xxiw1Pt0kz8Vu34Bfuwn82ZaUbbgPfNrRzuVyf+B6nhYw6YxDPlCYBo2Du97jXaCkGZXAzt7+UA5OABsyDSJnf4kb5D7xOtOkRjHp1CEfpH2kuFGiy7tASbTU0fkHbL1tbp/3XucPpkXk2VUCiWdf06RGMOmMMTi/CwnnfVLFzWWmd5GS6mq3/26/pzn713OitNha4hq5b8x7bP6bzBWaEJOOJR8aZ4tRhQ07F0pwMVjy/d6WfrpW4hlTJXoZ7heX5Eef/1y1F3uH0kSYdMRQzxy8HPyWxJkSmKFCybZS4nZT9Y9brjwvxVWmRbSOKRKnO9r5zvLe3TjpaAKZTzrSw8krVcOBazhlhUk4HSorX1wVVI/kYlsSrQ/3j2/U9OipQ73dPEtrHJm+yQ71dOPp5FcSR0vw6SQ9btvpqgdt1W8a7/ueMPVEWyHBrX38h/vIUUrrc4Z7uzhqUkdmk061tzhdKf07qX7cXKEUudOWvnPLg/+Wop0dq+MAMzNPl+CDVnCO0FrhbB4edb6eTCad4R75IGhvwkDJXKGUwQadQTpfIqm9hCslDpaY67UoSPgd90niwQFxZGUu6VRL3Rtr5T2pHmKuUMrgaOmAz79ROLQv6MQWBEyCwCFl20vwSPVwHCixSBLPpqZJmUo65g+vL5UqdxlIr6eVowOd1uyWB7DbAXo7SXKTxOFuufKilL0SfNEdHuxesHi4VNzMNLMtM0lHEg7m0iPhcHvydBsqlAeRFIL2W4lVphp7mFXRiynfTx3kHXL7XvygUO2nHecy9ngyknSqvd7LPAypvcO7QGm23JaBym2cwz5s15hWrGFt0XxJON55QKtnTC9IMQd1Ct3bJDDUlul3PKlPOtVS9wxHOwuk+m5zhVLuaVsGatYFS1Bgun2cYbLDFyXh3GWaHuwryKm80XmnRN9whme1pTrpyB9WvlwawyCYrUPZ8KwtQ+Ct2Ql40kJbfpPT+jxbX4sbhEXvPfI0cHG1tyuTZ/KkNukM9XR3yB/211Ll1NBswW7QoXDLg/hnrX9Tj4tHleMcPat/cP2p3a+3JUXrvY5W58iDcYdtZ0Yqk478IXNK6ZOl+hFzhTJkjS3DgllsoSW6BuHguqMK5cpTpmkM9RbxfedxHfHxQXki+Hm1Z07qX3OMlbr/2OVzi0r+kN+W6hfMFcqYEVuGoiOvMbwWxI7W7eh3avoyW3+ZfDFw0uWWpkUx8TlH1b43/P5dMrM7RKqSzvD8LqeWd46S6tfNFcqgUHs6Wy8YRBGnCQUvSBzrLtpgWA06JXi2f/x8TY90HD3UO9s20y1VSUePKqy2/pkE95TKrlB7Oh7lTZ3+p2lE7mS3XBlvcgOmS1P84H51otK5w00z3VKTdKql4lulwEvdzL2Yo3VgxX2o3L4Ktt6Jw4SCYQkc0zEenoYbX9gh4hy5j+1nmumViqQjfyj0S7H4kzu6Bi/8nkRzMLwUBSSdqCcUnCi9nIm2ANrclhRPMyQWyv0s1cePJj7pyB8IZ5Rje5tXeRcoaFhou6sE3p39TaLeu4MoRZJ0cjoX9YQC7JBwtqmOi8ewxx8me1wq97XU9koTnXSGeorTpcBN0NtQikKBzVKXyRP16TnlLTQ8VOJ+/A8xEUnSmdXv7VAw2U0/SHiXgy1vJoJDCyn+dpRYOFwqoueTOolNOsO93TmlnLOkiv2MKDyYcuuNO8/qq4zKje5yqb5B4v8k4tDrCWUbnPoUJhQ8ZuqhetJR3kLoyXBn6eR4i3yZfjnc052a9+5rJfI/aFlPt6O1Pk6qR5orFLKDbOnxnrBz6j+kir9JGDs8T2SdBZFhcssD2HX6QtMK1a/dvgnf5awV9/dxtK6PaKX/p9qTrvW8iUw6OaWxNft3TIsi8I7H5q97Bpi7cKAmHZ2fSvXLElgRHwXcVAM9S6cB50qEuVYIie5MU51U3HZOoMmd4CiVqq28Epd0qqXiLlJg6xFOjY7Oa/Kjoxu86HTLWJCocPb+d82V0OEGvNJUI1JTeL91vWmE4orRvH7E1icz2Tsfih8MiZ5rZ+imQqKSTrXU9QopFkps4V2gqGBr/Lp9frc8gPc6SDqXeBfC9byT11FNmfa4iwZQ4P1WWM7a1uyK0Iioe4HUGu++J4knFfe9xCSdam9RMr7Cl5kbFsbDuH8Ht1zBe53PSjzgXQjPsLug7vYvYcO+Z0+aaqDuk7jOVBuywpaUPFimcM5Qb3fiJ4MkIukMzZ+DeVHHSrXHXKEYmHCauiSef0nxCYkw329UbRkpO3UZPfKgXSj/rGYmB4RyqioFZq7S+tjH5yV77Wgiko4areG0PU4ciJdtbDmuvFI3SoF3PGGJRdKxsENBkL0uJPOLTLVhSDphH/1A/vrOaC7Zx+7HPulUS13YpPACCS5sixfsBDGhmX3e+w08LIS1dqXRF+qB047Cbg0V0wrEjUo7D9t6Y7S3huk506CEwn3wwmqp6Jpm8sQ66VRL3R3Sz8ETY2J/wSmGl5uTcs1eYGEdNRGbo6M7ywN4r4VZlkG5uNDfXE5z+yvo5cRlN2xqHe6HF8gDeSJn8MY26SwrzZGfGu9x3u1doLhpeHNVrdTvpLjDtAIVm6RjXSyBHaj9hqnhi021affakpLtnfJA/rVlPeuul0uC2CadnFPbV4oTTItiqOGnrM6+ATxhB/1ODj2LR001Hqa9uArDis3MLmvUDfkR7xiDVgQ55Efh+lZOjb7F1hMjlknHzkfHexysB6F4am7XAeVcIT9vN41A/EuFM025Ya+86kEU+Bz7bdHMxS3njrttScmH9zvnV3uKiTqCPHZJZ9m82ThFDzOesNMqxVdTw0Zun7d2B6e6BuXhQrkSx21esCHqs6bqC/QakcBbhaTDGWzpsYM80J1R7elOzGnJsUs6uZx3ZOsHTYtirOmV/0o5/VIE9d4FCyVjxy1XkHDaSRLruytX0y0PIypdw7BcFDthU3AOlz/sh2w99mKVdKqlItZ+nCaRmKydYVj82ZSCOdb5V6bluzi/IG92Pc1Erp61qPVdFwr9S/H/e7NpUUrgfvlzuX9uZ5rxFpukU+3pwr8Lbkg8ATQZnrBlszAF/kVT9dVSW8bRnyUeN9W2XWXLdmDRLqUL3uv8ariE7cLiLT49HaU+LT8PNA1KAByP3LRpL67CrgFXm5Zv8PTe8K6XYXPLFSTZVqc4j4XE9XdTbQtm1EV1/AQF5wD5ImDPw1iLRdKRbuGrpfiRaVFCtLT6387oQm/HT/+SvBP39xR+7Lp9oyQwrNFpi1I5/BFis3sD+eoHcj+N9SSsyJPOslIR/w44hGpz7wIlxUO2bJpynD9I4eeOx/e45cG2b8ZBkv/mG6Rod2+4P9myLYW+JZhJ+HvTopTZTOLMIXNfjaXI/8XkX+BjUnBYLVkwNNPysQWFcuXfUvgx3LSWH0NOgZL/ZkyiwJEHrcIQ4rWm6osrbUnpc4A85GCH91iKNOlUe7xN6040LUqQZ+UWuMzWW1W2pR+CXHTqp3aOO1gmX1ZvbNIneK/j5/ohipcT7Wzg2Iks6Qwf2oUxBywWTNRqWvLc6/Z7T+7t+IsEdj1uF3oASUk6mDXW6iy2W2c1d3bOhNxyBbtNY1YdpRM25D1peWn32C0/iSzp6A51kBRYCErJc6ctWyY3vZVS+LEv2VMSfvYAAmMnAbQ6rIV3Qn5bYEtKp8NqzsjBth4bkSSdak9xYym4CDS5/mrLdvmx5uROuZkHsZNzUFp9rxPE2hr8/jnEll64v55WLRU3Mc14CD3peEcWKO98ldeYK5QwmERwq6m27Y8SmEnVjqStrr9eotnFsdj9wfdtfiRZ46wjP7foofjZQeIbw/N2N60YCD3p5JzaLlJ82bQogYYdRzd3YuX4sIdYu0NjQQw7BWb1Zi9gOLDZnZ6XSILAjL8gBHnQHMXD0To3gvtuLISadIbNTqinSEz3LlAS3eSWB9vtnXjkRopeEyYUtAqbjoZxOJxvdjjXO7gTvZ1m+DWcuQH5QmIaNk8TTbdpEidXe7pi8Toj1KSjlT5UiveYFiWULwsUx2inp4L3OUl8J3GLLRsV2Ow8exyE3ztEUPwc6Cg119YjFVrSqfYWZ0jxU9OihEIPx++TMPFOptV9wJI65Re9s0Z7i5gS3vZswUmcK5GkyRjUmp9WS959OFLh9XS0c5T8fK1pUEL9wzH7dvlHe+91Wt0eBtvpJI/S+O9t9Ljpx+UJNdB95aS3iOE1TihIP0zeOtpUoxNK0pHsOlOK/zYtSrCr3b4lvu5O7PZ7Cx5b2cZmhdy9g+4BBMLt896JNXre9FK3byCME1FxWi96VZRux8n9uGDrkQg86QwfVkTxLQmskKVkC+ppuJV3Fn92ywOx3uRzEo0mnWZnurVGexM6EjUpg1qCjZWPHy559+VIBJ50dM3BVL1PmRYlGNZ0BHX41122bEbSh4PuseVkQkk60uNED5b7IGbDJ6RLO9vWQxdo0qmWulB8T2IqKpRof3TLFUxRDsISiWaGdtDDSfrW/I0u9sTvJhzaWSQ/43zsN/ljisQPhs39OXQB93TUXvKjx9Qp4XBDCojCS/UnTb0htxTmVPw6/jkqOI9ojamOCwtC/VqIOynp7eDdEWeYZsOh2lFvtvVQBZZ0hubvioVI6OUEPoRHgcPN7xpT9Z9bHsB03WZurgvVCbaWUEp5G5ViyHIiy5TKYzfo8CjnN/Kz5bOSKDG8+3O15C3YD1VgCUGN5t8hxbtNixLuWrdcaaYn0oqltpwMEpSfB8BFotBXQS9nsqnQSwt9d4c6o8zt83bC/r5pUcrt5zg69Ht0IElnuKeI7PldiVhsu0BtC2ML/Eafrm9Y+eKqdg+Qi4t/2HI8Ub1f+a3EgKlSyn0n7KOtA/mHaeUcIMW+pkUJh3Nvwpgp1uii09/sdFUijs9pxGR7nvm+s3QjpFeLdzvYCZ7rdtJvb+kZ4Gyz0PiedKqml/NN06IUwKy1oIfWAC/WJ4NjsgOc0BC6yYbXIkk6kFMKDxp+77NH8XR8tTe83o7//yDl7C8/I5kVQYHAUEsYMGQ22X5k/W6/dwZMWkyUdLBTQyOJOBCz+gawbudrEpPNsKPk20se5g609cD5mnSGSrPZy0mXZ7Q/p3s2QGOW1kQJBUM9Z5tqakyUdJ6WBzgc3haZQrmCHQq4A3U2fH2ox7t/B87XpKOc3NukeKtpUQpc1lmuhDJld8qLNcyaesK06rpLO7rZIwHiDuuTxtvL7hHXzHCLjL0DHS+Rpt4l1bevUjnMOA6cb0mnWupGwU090wVrNkKx1VXerjAT7bx8Rmd50NfNRmMAZwGNdyJoZENrY7nlCnbE/olpUcp9bXhu8LsU+NjT0a+XH5i1RumwzNG+n50zmeW2XB+uX2yq6VFzNGYGjteTnGw6dYj0afKDp4um3/46r95g64HxJeks6/Gy41clQhkTpFAscPsrYR/sNV7S+UWA+75FZhvTcxtvO5/YJB23PIjffcL3gKAG4P79VXsyQGB8STo5pbaXYr5pUQrgZnihqYaq3tRsvE84y1RTabxEG6uehXI0hlp59EH6lXTN2cHWA+HX8NrnJbBzKaXDwKhWrRys1i7sR7Y+9HJW2HoajdfTecSWsVAoD2IKN2amcsFouuE+/p9B/pHbTjrVUvcmUvC8nHS5cNv+gShuLk/bci20TzHV1KrX05lsJl8kck4em76G/Z6PwveJ4VJxU1v3nQ89HX2E/NjS1CkF8B4nqpf2mM011okp7+VAvZ7OvxytY/cOa1b5bgy7orcz2SJeSrYtJI40Vf+1lXSW93Tj//8o06KUuE5u9JNtzxKUsTO5cNQBzu1Pu3o9mmG33xvOip2RkTU3SZH0U1tpcl+oHjY7b+u+aivp1JR+lxS7mhalxPm2jMLztsTQ3tfSOGOtjno9nSFbxs52i73t4HBOFns76bazU8sFcuxBy0lnuTnqFBMIKD2w7crlphoJrFuBK7Vy+mw97er1dLAgM7ZW1zr+JkWUnxMKx+eHe71F/75qOenUHLWtFO81LUqJS6V3Ee5JlevCC3RMkf5iZ18lbbsPjAfTxNfvNcS2pwM7LLoLBXs76XeQ1hrLYXzVzvDaJyQ6TJVSIoq1OWPhHJdjJPE1c3R10mEIcf2tcCbaDigWpuen3S5FYEeYUyzg/v5JU/VPS0lnqLeIfxkkHUqPR7TjXG/r0VD6GYlzbSsTcrkchhTXDiuuNd6C0djYcoG3ThR7smWlR5pVH5f7va9rMFtKOko7eMG0nWlRSlzcWY52V2O3b1AjbDMTZi1cgpv2+tPCx1swGi81jYeUtO38TevaRu73vu6p2XTSWXaYN1nN9y4XRQo3votMlSKwfs8mEUnHXeQ9IPzUtCjFPrn8MP92n2466eRquVdJwQkE6XJ3Xo8usXUK39ikg8kUUU7maIqqeWt27jctSqmDazW1ta23rYXhNXW4/Jhm6pQSv53Zf0+mhrViZmzSeUG+Yy/aeuwVFnlDsmeaFqUU7vcfMNX2NZV0hg+djeKjXoPSAjeNBaZKERmbdJ7VI2vCPlKiXRdIJKZ3Ri05YnlpN1+Ormkq6eiO3M5S7GValBK3FPK78oCuaI1dl/NU5+J7bTUZ3HIFu4PzwSXd9qw5o7vYeluaHV77kAQPakuX36kFvF9EbOwOBPWOd0iCsyU4fTq9cN/H/b9tDSedam83/qF4n0PpgWGcS02VIoSks/adWiKTjsrp26QYNC1KqcOHSsW2Ox2N93S0fr38xPAapceNbrkS632+skCyDbbCWTt5APvfJU5hoXf0Nt7tUHrtJBlnT1tvWTPDa++3JaXHJbakCCmVx+7aa5PN+mcKJQk+T9jKiNKr7TzQUNIZ6ulCl6rXtCglMLTGnYJjwO3zDkdbe4YRNjxNpEK5giO2bzYtSqne4Xmz2xpiayjpKKV2k+K1pkUp8VcOrcXK2hmEie3p2DsRZ6Wk2446l8OrlpY1OrzWY0tKj7ItKR4esmViezrWZRKR7uFHgSvZsiWTJp3l87291uZ5DUoLHIXMobV4edCWSX6n4xReNQ3DhHeaFqXUvGVtzGKbNOnURvM7SOH/8XEUpaWj+XyWzqxJggdsmeiko37pHXnAB5p065LE8Rpbb1ojw2vvk2jrxRHFzuXbLribe63FC3o6mPmFQ92S7moJfr7SDXmhJRMmneHD5qDgjtLpgpsBn0RjRjkKZ+o8IbH+gW7Jo5275WcyzgSiVh1S7SnaanMmTDq6VttUireZFqUEbm7eGAjFR6E8gGnTWNG//tHVieP2eztP32BalFJvkSelzWy9KZMNr71TgscYpMt1brnCBXzx9FeJtMz8us6WlE7IC+8y1eZMlnTeY0tKj2tsSfGDhZVpSTo3SvC9Trq1lB/GTTrLe733Ob6ejU2Rw1Tpa02VYkc5t8jPpJ2lU5dWDs5neNq0KKXebTeCbsq4Saema5gq3fK0OIqlf+adGs/OiSm3r/KcW67gwSDxOvu8Idy/mxal1I6O1k3niImG1/a3JaXH9TPLSznkQWHhhJX0a/q9Tt2ko+fPR4FJBJQufLlLYeLOBOn3zsH5XbbamLpJ54nagxine7tpUUqMSuCdAVFYBiTYs063t2++Rk80YraBuv/Ho3oNDmsrmBalxBPa0f+wdaIw4P0hzgqi9JqZy+V2sfWGjJeh3mpLSo/bOsuD6O0QhcItV3AaKs7YoXRrKl+Ml3TeYktKDyw8JAobpk5TurWXdIbnzkbxZq9BacKZRBSFtUc2UHrtu3xe4+t1Nkg6Op+bKcWOpkUpgVXueKlLFDYeoZF+O9RyuuE5APWG194kwaMM0mWFVmq5rROFie90smEfW06qXtJ5oy0pPQY7+wY4dZWigJNE+dlLv71tOal1ks4Tc72jqZl00uceWxKF7UkJ7mqefnsNz2vsfJ11ezodUzGstqdpUIrcZ0uiUCmtnpECU6cp3fZQucYWia7zfzSiR7F52ytMi1KEM4goEoX+AWxg+pRpUYptXnPUa219Qutnpj1sSemB8XTuREBRwhAbpV9Do2TrJ53dbUnpsUrSDs+rpyixp5MNu9lyQi8nnX/M8/JNQ/9PlCjPaT3ynK0TRQHvdSj9dltR8iajTejlpDMt723L5R0XSqky3LmIO5FQpJ61JaXbnBGVm3SN58tJR9U0JhB0mhalyBO2JIoKd5rOBldrZwtbH9fLSUcrByfxcCeC9OFLXIrav21JqacmXawzdiLB5INxlEQcT6eoMelkx6R5hEkn/TiJgKK22paUfpMe6DY26eC0UEofPmVS1LgNTnbsoufPt9X6vKQzXPKG4V6HH5Q6q2xJFBUcrUHZsNPy0Ym3evSSTi3nTJHi1ahT6mAbEqIo1WxJ6bd9Tauptl6Xl3RUzdlOCiQeSh9uK09RY9LJjg6l9Pa2Xtfadzo8KTS9xr63I4oCl2Jky4T5ZO0NaQdbUvqwB0tR67AlZcOE+WRt0pmwO0SJtpEtiaIy3ZaUDQ0Nr+GdDqXTprYkigoffLJl4qTzyCHdKLf1WpRGm9uSKCqb2ZKyYZtnS2+31Q3lpkz1Jjdxo8/02sqWRFHZ0paUDZ0rJ9jyMTddeQ8hTDrpNdOWRFF5lS0pG1zVMf4RB7lVznM40mCGaVIKdT42HxuIE0Vmli0pG6brET3uEQeYSMAPRLptkR9Rm9g6Uaj0fvuh4EhK9oybV5B0tjZVSqkZjnJcWycK1fAWT2EUhfeY7Bn3b46kwxfN6Yax1deaKlHIlMYTL6dMZw+TTsZNesYFUUBeI7F2PSBlx7iTR/Bh4HTG9JtjS6Kw8XDIbBo3ryDpjDvLgFJjN32CrRGFa9Iz8ymVmHQy7nXDA0WuCqco7G5LyhYsxakLSYc3o/TbyNGOt98RUViqpSImEHB4LZvG3X4LSYd7c2XDvrYkCstsCW44m03jdmaQdLhwMBvG34GPKBh80MmuTQbH2QkFSWdjU6WUe1O1VOS5JhSmt9mSsmeTV9Tqb7/GpJMdmE2yl6kSBWu4VMSJtW8xLcqgjZR3gMGGkHT49JsdB9qSKFByv8HaMG5/k13j5hUmnWx531Pz97BVokAdJDHu9vaUehMmnammShkwe/XoSzvbOlEgls/1Zue/12tQViGv1H3oQNLB2CtlQ16ix1SJglHL6+2kYJc628bNK0g6HaZKGfGBFaVdOexBQZorwYfZbBs3ryDpICg7utc4+d1snchXdsLS4aagDMurkZqtrotJJ3vw9/6oqRL5a7hUxNlNe5sWZdrU/LjvdDjUkj0fsvtiEfntwxIcsienltPjJp36fSBKs5kS80yVyB/DpS68xznStCjrZox21M0tTDrZ9Z/Le+awl0u+0Y56jxQ7mBZlXG2VHrHVdSHpjJoqZcw+NVXbx9aJ/PB5WxKNm1eQdNaYKmUM/vbHmCpRe6qlIrYUfrdpEY2fV5h0sm2u3Cx4yBb54WgJTiCgtSZMOqtMlTIIL36/ZqpErZEHl22l+JBpEXmQV+ruM82kQx+Qm8Yutk7Uiq9IcAo+jTVuXkHSedFUKaOwMd8JpkrUHNvL+ZRpEb1M8kr9ybFIOi+YKmVYr9w83mjrRM34HwkeBEnrWznO2lAv6aw0VWoCeoenSfxJ4nFcSDi8AP5x9bAiPg9EDbGTUD5uWqmCdxH/lChLfEvieQlqzguz+pfY6rpwk3nOVKkJ0yWHXzAysmZ/qbsS2ModO+v+QOIaiRUSSfN2p+b02jrRhB45xDsz50cS01BJMCyOv1/iEonjJDDteyvJOju65Qq+Dwsl2JNr3riJWsnTynlScgPI5p0iH8ov2/rLHj10Z2dKfqr0LPWO0sSQFTY/RLm7RNxPacXT3Rz57+KTHU1I7hvYfeBKiST1jjGNFwnm7xJ32PIupfRzhb7BujOt5L8TkyR+alrUhN/IfeQjtr4OJJ2fS3mUaVITqkqrHQr9Ay/Z9riqh8lTodbTpdOOc+ORhLATAAJbhsRtK5qfyIcFT3xEdVV7itPlU3unVOO8xguzp+6RGJtgBiRWyue7boKpR+6PN0rxZtOiJvxCfs//aevrQNLBzKXjTZOadJD8Yq+29aZUS92SbPTWUl2bhN4ksafEphJRQhJ9k/x34aZCtAG5Z3xTiu+YVizgvfSgBD6zCCSYitJ6VaEfl1sj/50YNn9Igotem/c9uYfgc7IBJJ0vSXmKaVKTLpJfLLZyb9tQabaTU2qq1grbiYztDe0kEfYQxh3yJPtmt6+y2raJPHK/mC3F3ySiWpfzrAR6LEgu6MGgvD9fUy/NXITL/pH/VmwT9TPToiYdI/fGk219HUg6uGleaJrUJDxhbSe/3KdN01/yt8HQ2ysl8E5oXwkkob0kNpMI2gny3/VtWydyqj1dUxylrpVqWMNNT0pgChSSy11eqdVDHbn8yNZ9aAZn+RFznNrKGv65e5gr1KQj5f5xvq2vA0nnACkx44pa81n55f6vrQdqqLS79IZGp2it0RtCAkIiwrDcayT8fjeEYba3y3/braZJWSf3CmyZ9EPT8t2wBDIJAr2X2x3tPKZ0x2hhUbAJph75b8WR7vj34DKC1hws946rbH0dSDqvlxK/XGrN7WtWq722v8Lfrn2j7LuhraSK5INAMsK7oU0k2oWZPnvLh+cZ06SskvvEG6S4QcKPGZiPSax9wY97z11aO9VnOnSta0Hr72D8JP+9eOWAVw/UmjfIfQN/3w0g6RSkrJomtQDz/PeRXzDGuSM3NG9X6Q11TNNKY6bc2iSE4TlM4W6lN3RRTtU+MqtvacMzfihd5B6B4dy/SrSyRx+mKSOT3GzjJqWdRwv9ldgeHjlcKm4kH3YsH8DDHLVmG7knDtn6OiTpzM5LDxIvjKWkFp0tv+D/sPXYqfZKb0h7M+XwPgiTFPDUih4ujq2eDJLNUfLfd4ZpUpYs752tajp3gVQbnTCDYbLbJW6TuFUec/6ma/q5zv7662DiSJLsEVLUfR9BDalplZve2bek7vEGaqhUxOMvMhJW1lNrXpB7845ueTAROxGsOHRnZ03HVHnI0JgSiuSDnhASERawYuLC+rDm4d2SeLBmgTJEbsBYw3eqRL1eMhYRY1wZvSCTZBz1WGHOwKhK6Bayy3p2UTnVcYtU8XBGrcHWYLPkfmFa61HLS7OdmpPDBwZPwdS64+SX/BNbT5yhQ3dxVEcH1iNsL4FEhMDMnaJEpwSeYLF+51EpKQMk4ewnBdahYasbbAyMBINxeoT0ZtT9Old7qXNhPN7D+EH+m5FsMAzICQStuzOn9J6z+up/LrynF/lF90sxD3Vq2aNaqdd19g2kam2L9IRz8iHB0BzeETmSdH6PktJtuFScqs2LdDxs3Olo/aDKOy8VUpRg6pF7IZaP+LL2LsMWy30Ce1HWtTbpcKaGP8adm05E8VbtKW4vd8T7pJr0TUyjdrrcB8fdWm1tF5JDJv74ylCpixMyiJJIeQ/eTDjte8SWda1NOpgeSO2boxw1breSiOKp2lvE9OhPmha1acJ8sjbpPGxLat//DJd4GBpRomjni/IzjO2lsmDCfGJujlox6fhnD20OdCOiBKiWurBMoO42/NQ8NUk+8ZKOGh3F6aFpOHY5DjA549vyQeZ26ESJoI6WH1uYOrUJaxWxE/i4vKSjp05B8QB+kC+65YP8IVsnopiqlorYlYOHWPrnAenFTLj7hJd03IV3o8BUQfLPt6u9RZ6tThRv2Dl7c1MlH9xfKC+11frGvvC+15bkj1c7mmufiOJKejnYBPczpkU+wRHhExqbdCb9P6am/Zd8sLGLNxHFz/ckZpgq+WTSzsvYpJPu/S2igW57UIdeEVGL5GEQx36837TIR5Pmkf+fdEZHsSsBdo0lf31EPuBvtXUiithwqRu7hvxMgruH+OsFZ3TyjQZeTjq5fAcOVWJvx3/4YJ9SLXV7UwSJKFra0R+RAj0d8tdS1SFpZxIvJ51ZZe+4ZW8aG/luD/moY8UzEUWoWipuKQWHvINxd6Gv/hk6Y419pwNMOsE5Xj7wr7F1IorGtyU4uScYDeWP9ZPOnbYk/20qcVq1p6veCYxEFDB56NtHCk6RDs7fbTmh9ZPOEom651qTLw50lDrS1okoJMM93VOl+IUE360GY0TubS31dF6UmHg5KbUDvZyfyRPXdqZJRGHQSh8rBY5gp2Dc6+jaSluf0DpJxy17L4Fu8xoUFLzIPHOop3v9hE9EAZCHvKIUXzctCshtbrmxyc/1bnx/syUF5yCl9KdsnYgCMlwqYljtbAnuPBCshjsr9ZLOLbak4GCY7afyBLazaRJRELTj/LcUe5sWBehWW05qg6ST094ebBOeh0C+wGy284Z6ijyTnSgAdrYakg4F6zmlag1vLLBB0hnNT8WK0oazFrVlb6Wcb9k6EflEEg72PTxPgg91wbst50wZsfVJbZB0Ohd6S3Vu9BoUhmPlC/JOWyeiNg3NLWL4+lSJ13kXKGg3zOxrfF+Beu904AZbUvCwbuA8STw4wZCI2qTyzsek+KhpUQia6qTUTTpaezMRVpkWhWAbiXOWH9bFXW+J2iAPb5gejV4Od/4Ix2pHN/c6pm7SydW8RaJ8rxOug2o1hQVsRNSCaqnrFVJcLIFJOhSO23LK+betN6Ru0ilc6i0SvdZrUJi+LU9q77B1ImpQtadL7mXqV1Kdba5QSK6dZTYVaNh473TgT7ak8GAh24WSeDpNk4gaotTX5OdhpkEh+qMtGzZ+0jHvdZ4zDQqRK3GRJB5O9SRqgHxX5kmBIwsoXM9rrZreNm3cpJOfsga7TV9nWhSyt0n8cHB+l2kRUV2ScHaT4lyJDu8ChekvU0Y6Vtt6w8ZNOjMvuQ/FNV6DovClLUbVh22diNZjh6EXSWAhKIXvmq0va+gInXVM9E4HrrYlhQ9/m7Pki7WnaRLRWvK9wAy1ssSrvQsUhZbyw4RJZ1Tph6XAXmwUjU0kFsgXjAtHiSy7c/RvJN7oXaAo3Oc46iFbb8qESWfbPm8Ptyu9BkVlB4nfVkvdnFhAmVftLea145wp1feZKxSRK93ygPwpmjfZ8BostiVF5x2Oo09aPrebq6wps5b1dClHOz+Q6ifMFYrQZbZs2uRJp+bcLD+fMg2K0Odqef0lWyfKlKfn7+nklMLpn9y1I3pPK936ptCTPjk/cNBrnY1nTMeUxCPNFYoQprGfIDHstYiyYxeJr0o0MjpDwbpwysiaI7Za7M1wblpDwzXVUnGuFJiaSERE2dbrliuYOdiSRp8a/iDxvKkSEVFGvSDR1vrNhpJOTeexiyhnsRERZdtVo8pZaestaSjpbNPvnQq3wGsQEVFWLdy2r7ldpdfXxEs5dZX84AagRETZhFcsV5hq6xpOOh35GobYuGaHiCibLlO1jraG1qDhpLP1Am93gou8BhERZc1FhUV32Wrrmhhe8+DAnuWmSkREGfGEozVmMbetqaTjlitYnIgzyImIKDsudvsHX7L1tjTb04HzbElERNlwvi3b1nTS0TkHg3reHGoiIkq9Ae2oO2y9bU0nnc6FFWxnfY5pERFRyp3T2eIxBvW0Mrwm3R3vAKVVpkFERCm1WgL3e9+0lHTU6OiTUvSbFhERpdSlHXn1hK37oqWkU1jsnWD9S69BRERp9cutFwzYqj9aG14D7VwvP73sQ0REqXOfUrlrbd03LScdt79Sk+Is0yIiopT530LfEtznfdXWmfvVUvEVUjwqsal3gYL2tMQppkqUOTiu/ZWmSgF7QZLD9oVyBfccX7WVdFYcurOzpmPKaVL9grlCAXvQLVd2snWiTJGHXJyP/DrTooCd5ax56XPuZffbpn9af6cj7BnZp0uMokJERIlXk+7Iz4NIONBW0gHlKGSeq02LiIgS7veODm6SWNtJp1D2ptPxPQMRUTqc4pbbOx10Im0nHVBa/VkK7sdGRJRsA0r5c4TBeHxJOoX+AUyr+5lpERFRQv2s0Dfo+zTpsXxJOh7tnbPziGkQEVHCPCo38t/ZemB8SzpufwUH/LC3Q0SUTCe75UFs8Bko/3o6oJ3/k5+PmwYRESXECrmBn23rgfI16UhvZ6UU7O0QESXLKdLLecHWA+VvT8c4U8LXrbCJiCgwT0mcYarB8z3puOUKsuVJpkVERDF3qty3n7X1wAXR03GUcn4hxQrTIiKimEIvB/tnhiaQpFPoqzwvxYmmRUREMfVT6eU8Y+uhCCTpgPR2MEa4zLSIiChmqnKnxobNoQos6Uhv599SfM+0iIgoZr7vlgdCmbE2VmBJB7Sjz5HiAdMiIqKYeEg7zq9tPVSBJp3O8iB2KfimaRERUUwc31muBL77QD2BJh1QWi+Q4hbTIiKiiN3u1ILfY208gSedQr+3Y+l/SQS6cykREU1KSxznLhqM7LTnwJMOKEffKEWfaRERUUQWqxF9ra1HIpSkUygPovgfiVWoEBFR6PAO57jC4kH0diITStKBjrx+UIpTTYuIiEJ2qqp13GfrkQkt6Wy9AL0d/QP5MeRdICKisAw5Wn+/sOgu24xOaEkH3PLgc1IcZ1pERBSS49x+7/4buVCTjkc5v5Wf15kGEREF7HrlKNx3YyH0pOP2VTB1+iiJSBYmERFlCBboH1UoD8RmyUr4PR3I64r85AmjRETBOtlRaomtx0IkScddMIi1O9+XKvdlIyIKxsMS33X7BkwrJqLp6YhCeRC7UGOYLdI540REKYT76lFuubLSNOMjsqQDWutrpLjAtIiIyCcXOaP6KluPlUiTTmf/IGazHSPVqrlCRERtWi431i+7l0a788B4Ik064PZVcEY3h9mIiNqH++iX3PLACtOMn8iTDuRH8/1SXGJaRETUorJWeRwnE1vKlpGrlopbS3G3xCzvAtWDDVPvMFWizNlDYoapUh2PS+zulivLTTOeYpN0QBJPjxQ4AiFW/15ERDGHYbVeSTgYNYq1WAyvvWzNKH5h55oGERE16Fx5VI99woHY9SiqPcXN5d8KQ0ivMVeIiGgCD8utfA+3PPCsbcdavHo6wu2v4Bd3pAT2DCIiovGtkfh4UhIOxC7pQF6pm6T4jmkREdE4vj+qnOttPRFi+8K+2tPV4Sh1tVTfZa4QEdEY1ylHHVAoD6C3kxixniVWLRW3kQLvdzCdmoiIjCcl9nTLlUdNMzliOby2lvxCl0nxCYlR7wIREeF++MkkJhyIddIBrdUVUvzItIiIMu9E5ajFtp44iViEOdzbNUWSz5VS3d9cISLKpGuVdt5T6K8k6j3OWIlZ+V8tFbE9zt8k8J6HiChrsBv/Xm65kuhd+WM/vLaW/KKxn9AHJLD/GBFRlqyW+GDSEw4kJulA4VXTsH7nSxI8BoGIsgL3u2OcNdMStR5nPIlKOuqXdzj50dyvpPq/5goRUeqdrVX+TPeydGwwn5h3OmNVe4vTJPf/QapvNVcoYpjCOWKqlAIdEnlTpYjd5Gi9v9s/mJrXColMOlAtFWdKcbPEjt4FitJvHEcfbeuUeOqn8gP7H1K0/imxr1uuDJtmOiQ26YAknm4pMM75Cu8CReUC+WJ81NYp4eR79X9SfNy0KCLYwHM/+V7dZZrpkah3OuuTP8iAFB+WSOyc9ZTYxJaUDpvakqKBoeoj0phwINFJB6Y4o1g0eowEZ7RF55W2pHTY0pYUPtzHjs3XnMtMM30Sn3S2Kt8j/ZzaGVI90VyhCLi2pHTg3zM6J+dr+VNnLqrYZvok+p3OWNWe7ryj9HlSxXAbhes5+SDNKpQrL9o2JdRQqWuactTjUt3cXKEQ/U76OUe4/ZVUzwRNfE9nLbd/YFRy6Kek+kdzhUK0iebTcSpIwsHfke90wnedxCfSnnAgNUkH3PIA5rK/X+JO7wKFBZ+joqlSws2WSNV9IQEwYaDXzchIQeo+XPKH+5cUh0jc612gsLzBlpRs/DuG6wGJQ+S+9bRppl8qn2jkD4jNQQ+WSOQhRwm1ry0p2d5sSwoeDqk8SO5Xid/EsxmpmUhQT7VU7JLizxI87jp4z0t0yhcIJSXQcKm4sXacIalyEkHwcNz0O+X7grWGmZLqsVv5gw5KcZDEU94FChJePvMpOcEk4aC3yoQTPAylHZzFhAOpf2Eof1hMKsBQG971ULDm2ZKSiX+/4GF7m/fKfQkHUmZSqofXxqqWiniKw+4FfJILzrBy1I4FM4uQEkS+H9OkeEii07tAQcDQMxJOKs7FaVVmpkbKHxo7Uh8qgScNCkZBO/oAW6dkeZcEE05wnpOYm/WEA5lJOmD/4BxqC9anl/XsYquUBNX37Yni016DgoAH3ffJ/eda08y2TCUdsD0eTi4IzgE51cGskyRTVu8kP/GdIP/hAReTBjLfw1krc0kH5APwVyneI/GEd4H8NEWCB7oly5ckppoq+QjTog+0D7pkZWYiQT12Hc9VEtt6F8gv/5boki8bTj6kGJPvAD7790hs7F0gv2C9E3YauNs0aa1M9nTWkg8E1vHsJ3G/d4H8spHEN5YfMce0KJb0p713OV+XYMLx14MSOPWTCaeOTCcdkA/Gw1K8QyKVp/RF6IjaytrrbZ1iaPjJ1Xgq4LHU/loigYSDxEN1ZD7pgHxAsPcRpoxydol/8I7gpGpPV940KU6qpW78XU6S4Lsc//xFAlvbYGiNxsGkY8kH5WlHe7tT/85cIR/s5yjFJ+lY0kfIj3eaOvlggQRmqXFW7CQyPZGgnuHeYl5r5ydS/bIEfz/twz5Te8qXkZMKYqJaKm4nBbaHeqV3gdqhJU5TjvpKoTyQ+gPY/MCeznoKfZVRZ6T2VakeI7HGu0jt2FLi19WeIqZSU8Qk4XRIcbYEE077kGSOzddyRzPhNI5Jpw538VK9erMXTpFqrwS3zWnfO6XP+PXl8zmbLUqPH+od7vrfEu9GhdqCfdTeP+3FVT+buWgJejvUIA4fTUKeDHeTYpHEq70L1Co8CeJI3sWmSWGTzzK2gMJnmb3O9uBwyJJ8lu8wTWoGk04D5MvqSoEXhTwdsz3PSLxdvqyYVkohks8wujmYXYXhTmrdrRLz5TOMUz+pBRxea4B8wKqSnfeX6q8l2JVu3SskFssNEC+yKSTy+8auA+hhMuG0Dt/7c+Q+8C4mnPYw6TSoUK682KHy/yHVoyRWexepFdtLXCk3wpmmSUGS3/NWUlwusYN3gVrxksQxo47+pNwHsMUTtYHDay2QLzK2zvmNBIbdqDV3yYfvQPkSP27b5LNhSTjyeI69Bb39bqgl+Hx+WHo3fzJNahd7Oi2QD+B1UrxRAiW1Zne5If5BEvg2tk0+kt+rK7/f30uVCad1N0jsxYTjLyadFskHEVtd4HiEEyVquEZN65a4Tm6Qu5om+UF+n6+TAg9Eu3sXqFn4Pp+slPNu+Z4/Zi6RXzi81qbH5nc5+VHVI9VfSXDBXWtWSHxgNL/pn7ddcIu5Qk3T++3nDG/55NuleonE1t5FahZ20PiMo52Fbn/FXCFfMen4RJ4usY7nPIm3eReoWZiccWzOyZ0xq7yEPccmDR02W6la7jNSPVliuneRmoXD1o6Q3g12nqeAcHjNJ/JB/adyNKZVf1eCW2I0b5rEqTWndoEk8C3MJWqE/L42l4SDB55fSDDhNA/f1x9qx3kHE07w2NPxmR3iwO69WNPDXQxagy/+kVrVbuzsW2qu0AYe7+12RrXGguVzJXbyLlKzsLvAJ1e+uOqPO13FI3DCwKQTEPu0fqrERyT4e24enj5Pkzhenj6xzxWNUe0tbuxo51tSxW7o3NameVjs+Tv5Zh7l9vE4gjDxZhig4XndSuf0fKmeLoFFetQ8PH5+xcnpy9yFg7hRZJo8zOA7e6AENqTFLDVqHpLMFyV+Kw80mf9MhY1JJwRyo+iU4gyJQyX4O28ebgxY5His4+SWuuXsbd1W7e2W34LeRao/lnifBD9HzcPn6AqJz0uy4VToiPCDG5Llc3dXtfzIB6WKJ1T2elqD840ulPjOFGf0n1uV7/EuptlTB73WWT1jOvaq+7rExyR4vHRrnpT4qta18zv7l7J3EyEmnZBJr2eWFD+XOEyCv//WrJK4SOLEfF7dO3PBgHcxTZaXdnNqziiGz74igaOlZ+A6NQ0Jpl/iKOndVL0rFCne9CIw1NOtlNIYakOvhzPcWofJBhh2O11+oX8q9A2MelcTbLjUldeOwgLPL0i8V4KTBFqHIbQvK63Khf4B9m5igkknQtLr2UyKEyRwg+HNpT33SWDo7UJH6UfcvuRMOhiaN9tRuRyOH/iwxEcluC1QezAMe5bc3L5ZKFd48m/MMOnEgCQfbMqIGW77eBeoHej9YC+dPolF8gl/1O2L3wyl4VK30k5NEo1CjxfHor9FogP/G7XlNgkMpaGkGGLSiYmh0py8cmpHSvX7EnjvQ+3DdjqDEtht+Q8St2mlnunsC3+oZbinW0kPbFP5B+8tTexccYAENjzNS1D7npD4htL6nEL/IHcEiTEmnZip9ha3cLRzvFQ/J8GZSv7CsAtmHfxN4i6JvztK3eNo/UKhXKn59WWolrpzku82lq8Xpjhjp+fXS+AoDCQZ/k39hb/pLyWwiJiLPBOASSemqqUiblA/kcDxCfw7BQeTD3BMxT8ksCUKjiJeLoEb2DMS2A3hRfkLvCQPAzUpc1IicWA22SYS2HkCu4ujd4r1WDgZFad0os5eTHDQW0Xv9VhJNtlbuJVgvJnF2FBvt1JaY/X5jyTmeBeJCEOm/y3fjcsL/dylImmYdBKg2lvskOc6vO/BsBtmORFlEXqh33W0OsftH8CwGiUQk06CSPLZSJIPpld/VYK7GlBWYDcBDDWf4ZYr//auUGIx6SRQtVR8hRRHS3xJAnWiNHpO4ufyoHWS21/5l7lEScekk2CSfPACG1vbo/ezOa4RpQCSzZkSJ0nPBlOhKUWYdFLAJh9s1X6UBE/dpKTCbEGcfnoqk016MemkiB12+6wEht24wJSS4nGJ07T0bjrLlafNJUorJp0UqvYWZzja28PrGAke9EVx9ZDEyZJszpNk84K5RGnHpJNi1VJ3h+PoQ6SKSQfYuZh/b4oa1tXcKHGqVurSzr4BblmTMbwJZYA9CAzbsWDY7QMS03GdKEQ4A2mhxKkjI2tu324xNgWnLGLSyZhqqThTio9LfEaCZ/lQ0LC10NkSv3Z5iBoJJp2MqvYUO+Svj33dPi1xkATP8yG/YMjsGglsxHmVJBvuHkAvY9Ih9H62kQITD3AG/064RtSChyXOlThPEg16OEQbYNKhl1VLu8vnYeTNUsU+bzhYjGt+aDI4mRMH5l3g6Nr1bv9SnGFENC4mHapLej/Yuv9giQ9JYPgNbSLApAAMn13kKHW52zfA/dCoYUw6NKlqqWtz+ajMlep8CZx6ydlv2bNa4s8Sl0gsdrmIk1rEpENNsbseoOfTI4GzfjaVoHTCgk0clFaWuEISDTfdpLYx6VDLqr3F6Y529pPq+yQwFIdTM/mZSrbHJK6UuFz+tn92+3mUAPmLNwjyxfL5u6raaL5LqpiGjXiLBN8DxR/ez9wsgXc01+Q7cktmXrKEp3FSYJh0KBDVnu4ZjtKYCYd3QNiCZ08JrgWKHtbQ3CVxrcSf5A5wo9tXWYn/gSgMTDoUimpP16aOUvtK9a02kIQ2lqBgoSdzuwT2O0Pc5JYrOEKAKBJMOhSJaqlrqnz8dpPqPhJ7Sewt8VqJnAS1BmtksHMzksxtErfIF/yuQrmCmWdEscCkQ7ExXCpuph3n9VLF5qRISCh3leAU7Q2hB3OvxIAEhsvulLibM8wo7ph0KNakR5SXjyl6QJiksLPEbAls1YNrODE17bDi/34b2Jp5qcQ9SusHCv2D3NOMEodJhxLJO65ho2mvdLTaUZqI7SSwazZK7CXXKYGkFOfhOswSe1JiSGKZjUck/mHj4dW1jid3WISODFE6MOlQag2VilPlA46jHLaW2MrGqyS2lMC+cpvbwAJXTGpAYJo3hvOmSWC2HUJ6W+skL7w7GZVATwOBdyYY7npRAjPBEM9LoJeCwJAXVvCjXCHxhMRy+fo97pYHXpI6UUY4zv8Dca94CUnyyYEAAAAASUVORK5CYII=;" parent="1" vertex="1">
                    <mxGeometry x="1137.6000000000001" y="740" width="144.8" height="143.75" as="geometry"/>
                </mxCell>
                <mxCell id="23" value="" style="shape=image;verticalLabelPosition=bottom;labelBackgroundColor=default;verticalAlign=top;aspect=fixed;imageAspect=0;image=data:image/png,iVBORw0KGgoAAAANSUhEUgAAAPgAAADLCAYAAABDP14IAAAAAXNSR0IArs4c6QAAAARnQU1BAACxjwv8YQUAAAAJcEhZcwAADsMAAA7DAcdvqGQAAFcPSURBVHhe7b0HtC3ZWR74Vzrhxhf69Xvdr9VBLSMJAQIJhiCNAWNskBl7GA9hxgsTBBJgWB4Qkg0jEMZCIghrYRt5ZozAsDDLeGCMwciAYTBhSEYCZbUCarW61d2v+4WbTqo03/fv/VfVqRte6JfuPfXdtW/tVDt/+//3PlW7grIspUOHDkcTN53gj//E95bn3vknspPnsr68IjLakV6BMgSFhLgUYeBjwisI1BAlLmYnyipeXf5meMDEgKLI9GphQTBf315s/o17YWe7NP2IdpwCzplz8B9tzqpwZU+SeM5t5Q2CUK+Gct4p4uuX469ZlhLtRARBpFdYqjDC6s17wjDENVc34eLZ/T79RjnMr5leUczHJyo7+yyBHdcIf0QBO8N9MUQiZ2Eu9K/DQy1JXhbajgbrH8uj2V/q5+8nNCSM9P7It387/8zX32pZ+gBeeF+O+BxbhnZ+ceLutDyZa21HOrGrN2+jf47ozXCmRrfVsRmG1KUXrqKMPcninqx9/pvqwOuEm0bw9/7g95XDRz8oK9kFyaabMuLAjUPpo31QfXSAK0ebyFHkGjBv+OtVOwKdGedws3Xniey7H//nBzgHPAc+7yWKsj0BOMJYu9Tp7bYzhQz/S/W3geDuo5txYhLAjyBHygZhELcox0rKmrguLl20h54ghhJui0Pkkuq18vMDnMZNDN67KpeP6/PLPDGaaRJtN9H0c3bUPWI67D/XT6wHwyxmoOG4Inv6W7i1z9RPwISl6a4OZjU/m8AIlzPaEEH7TTB0E3TTn3EtH3YLppcW+Xz+/r7m5Eq0+xcV9OGu/91YsLSqrlfQz9wWngwiSfOZjPMd9GQETixLNDwj0cpdUsSfImcefF0jhavHDSf4k7/8k+WFt/+RbH7gIbkTw/GutVCSKJNJhMaGcJvORoiFRvUN22wAls01s0MzPNSGBn2jiV6D0BHZGs4Q+p42/+YAIWwAorv0WqXv3ZQwRDOcaTF72ktoAHoP/mkeCNCrTyjNVMbjbjcA5sKDXAnOyckGpkbB1d8uSc8PHJYA/gXiunjOPy9d+oT6+4Fpafn5EWhPQA4pKO7gB6wN8Eb8ttuB7kJmzL9R9vp+g+/BRr5VOK5hkqBusKqT9XbxrL2NqVX7h67+jMY2ynJH8Pk86fb3+fpbeDOa3o/cqQ2Gvp9NM3T6BUrv29M0BNO0IpYV4zO3dJEd82hL6rbb+tW5S5AZEw21GNgzXjXNBEzpQzt8tiyd/nI59Unf7++6etxwgv/uN35ReSafyh1ooLVsKsGlJ0DqbZku9yU5tiQRVCCd1X0DzTcAJoC8PcM7OHstQXQIeL9mPOtgwvnXM7LmhYmBndCc4QnrUOgZeq1VQBfPjTvkryr+Xvm7kZAZwb1K3SZIDpLb/YrWhBRBA9By+fyDsBG3jCSH06Xt/NoEjjCRGjTNaoJArrjk0GjYDs0JSC/eHdr9vmMqjR5uDnYSrjk5wadhR/q50zAMNsEyDm1xr6/lqNvXla/KxgiOC/0LlI9XFpNFytAA1mcu3/n8qWI7KezSISxc70f7M4Q+9OcEY+kTlWbl82d9CTfhUMDMNO1KA/XlZeNoOj2/RPMNZ+m7ibiQC1tPq7BitBj+VC45eaRIJiuWZSs9JrL+V+X05/6cK/RV4oYS/N3f/sXl2mxLliYjiScTSaZjSSCxkgTduTKQArN3WvgB5huQqjjBShKpn1kJbWDGxZXx1U/XuKHnBZrZS3I2J+NlpRtg9QBxg5HhTHkmU9fB8CPsaojjeE5NmwtHIdwa1w8ChLXL13bb2trcOQjLcBsXhUkcux/Va+ZZaSA6gLD+ROnZRJoHDPMjqi0Kf6/TeFgelx+djMv8WXprL9p5dcPRalb3RzNcpVtMCejLBLSJlHmC0+6uFu4oQXJamV2cegIimhM04SY4wN9EIih8vQxmpwbXTk/HPGcnNJIR3NDU8HgfpatB05lbChYoLTWwvSY45y4xQbq9EHWy2hXYbmHfBUQpOprjjOMRy0aUDCnFMsojmYXHJR/eJ8mpL5D157/BMroi3DCCP/yGbyzH7/wDOYEKDFHgBJKOy9GomKnay27PMG+76ZcE9Q3iG4rOutEc6OYmBqFrPnYS1vE62G2UtFTu3K+xzW1Moou2EgOURbC82nmS4ETTv7ZTerAm6CjvV/Wjd1PlYvzqbu/P/zrYY0wQGCAmAUg4wgRne4KrJihGh73Acsfd725oEtjcRJW/bz8NRyKcQPbSoOr28/fvEc77ckyovJYI0HwtY4BuLkMqu17rcG33MJ5v/wbBCN0umUPdHgy0+uFOn4a7n6q2m5i5R+PSJrSu6kbCuBY2YVRw4VU9q01SD8R36WL8MZ1Kw/QFtZmVCTAdL2BKr8HZZECZz3rnHD9lAoIP4JMgAsjNonFtxbYtN2VSZLIdhZIOnifR8b8tp5//vT6Ty+OGEPyxt/5gufNH/1nuwexW5puSjrd1rTcYDCQeDCFxQNQMFQFbQ3RwQIKSsB7zHeKuNgjMbTImgwbQjF/P8C68vQazDmSHkCwp/lynW/6NAQDYgNwd7uyhTig2azvQTsO2tfa18GY8dnaUIBzXWs21+rh4KZY3REUCxCNcHNzDTTi91/qxWT64ql10k4xoax/Oeod+iUSYf/P+PLf75/1pp7pceBWd9XSbl0iXdj9DxZyAgTptK6fr2xlUbPq0JSfrQViabGOiHc80PmK+fD5eq26WLt3MX9fguDK4eb/dZ78i1O06nx43gWmnHqB+nuB2l8VzeTg7QXsBJlODDaQHudSHMhTrqHNFp+DBkra3I2WvlDEE0Q7U9TR+rkSrf1XOfNrr68QOwA0h+G+/4m+Vn5pdlJXpU1CBILFJOlWHYhQ0kggz1gATX4xRy/5qVrz6+Yukh389Q7t4FcH1HnRO5CRolQbiz6XnB3jtV4drB0foGssTqAegEcHyn3eb3U0o83k27W2CE5WdZdVdcp8H3Kbuujgkn5MQ9QBhuJdWGBAkvrWVg7fbfQfWn4MIeTd26ut4zt52G2hn3+Q+jf0IWte/FQ631gkzsNbBw7Ko8/JtA7j7nNvC+TMXUcVHuvW9zfrvriPzt7FpqO916ewut+UHf2gHOVRqp6W4dq37yaGqWzsPL4Dcz2oqz1XQheBGWGLSoOYE4VGEM6RRShr1sBw9JpN0VS6Nz0r/2BfL3Z/1j+tE98H1J/gv/nj5yK/9ghwbXZQ+ZqAJJFSGSmDYYS2RyDjqwx7L6qyUhLM3JADryoYhrHG0XdEovFgjWQM6u4aA4LaL6+uBa7OBr4jgcLvmpp8Lo5vxXHfudrs1KcuP9OfytPRdinX++2gIUL3mMEdwxPZEJehX1V81HqfmzRPc3+sH4oH1p7qJsuuk4gdcRVSfZttdDXDkrwTX/tur/g678te+cnamxPqzDvxdnLA9lPpnL+fmEo73FY1w3q/jB9e90idsDb1f/kZwGz5GRBJM4/nuoS/dJnA4njmJZiF/xcnZExpuP+e6VFh+d63y9OFWXxef7UdNjfdRTWcYVXWswnuhrgIKGSBOHxpZKNujPpa8D8jy6S+S5AWvtaz2xHUn+IUf/OYyeegdUm6dl15PZIQ1OOcn7pIW0pftmKpIImvTTHpYn8ziKdaROTrOlcMIRrgG9Q6A7vkGQ2PjXl6r23Z1cGuA+Y4gmLauIRuza93B7p6KUC23djDS0l38uTzN7gfsngT3dszUYYBGcsNDvapdap+eSlgPzd/v4irBEVaG1GD2yt8B8lWv1QQINONygDun86tvdYRqu5miulDQpopepbmr/S1/86vDtS1BcKZI6aXQ/mSLuDYyDUaXcbivNMLjj/dzQmAO++ff7n8/GbHt4KIEnZvg/TjkRfNrua0/bNPRTS8Is3AkxKs1t+0ZaZ4AvTVcXczbLcks3ZJrStS5CKGeIxEuUcKyJ/k0kgQacJzkMpvMsLTpyTT5TDn9hb9pSe0Jq9d1w8cffhiN6mrHn3Cc8oHuQs1j1DaB4VWXjhoNHaidxo6k/WDDDnedTuM6iXkgUE2JgUGDllLDMBfujA4KbZLaz+LSBCgnzZW4S2UjJy5XR2egNqs5yO3tKAfXYRiSVVkw/NRYfdqw+mg94OawcOm4dbySbs6Yv5lmfF4Zx/yuzrh2vHYga3d1FwX9zJ+o3VrTulXUkwb+qEtlKrj4Lk7DtOIxGba8gUT2nFbscntj0ImHYwP96ozF8G4/btxupt9vMr8KdPfBm6G6tG1xb4m1+SwNJIUKzHmqyDBqcB3EsQzjEQTlI7L5vh9olG43rrsE/8P/5fPKF0RjidOx5JDQ6cDNxEsZS+1UdEqwpJiChlPJIME5C1eDpSFNObO1N1FYeUJVODRSoZs5nOVcg5m6aIMEMkqvpAXBfNwMSvXUSXB4aBjBMEPTTrTDSBL2PlXd/e6r16B7hSPMawAVfJhJcs3Dg/e5yQ2DhPFQZ+ZtYQ5WFudf5d8YT3Vc1B/pO7eLUEt6l0fbbemyD1k2nXB9mzvMt8VBKjpRVksUy78d3/I3v7q+bpLhhN+IDzi7u8+eZKzD6/wdkWB0zLXaEfnSvlvzacRDXfhDmaaJvqCf04gYz9Wn3sA0jaRZf9xPSU21vFhBWUDqCHxAnpzkGS+b5dKnKsxqpDm04gEokuK+HRnH98j54KVy3+f+X5bgLlx3gv/x17yk/KRyU5ZRyDQbQ41wG2nLGeRO0VOCF9wZDUdoAqoi87vgcHiLa0RTcYhmvGrX3e+yVu72AGo9itoMZ9OrytuaVAxNO9EOU+lHgrfybNr3Jbh2PLoxZvnYnW4gFH7Dy+LbACHoZ2tSe5bdaSd0W/1tt9zhIBWZ4LPoTXfbvivMl8eWCFyDa/l3peHiHUQwRURJV8PW/E1iOfg8LH/YaWP7kKhVfFyb6V9uiaZmrv8tX5fO7s1DBxePefNBJpbEtaMrC7WwecznwYka98A4FR2TZTlgJAm4p0RAGLr1uEiSQLrnU8nTzP2qwHvisZSD4/JUelxWznyprD74w3UGDVx3gr/j5V9YPphdlCUQl09xQY5DHS9kGe0coPZTEHwWBzJL3COqUZFIgrUoK8e2bDeEwWZpXgkXhgaiBENDNeNaGHGwBMHw0xl3v06s7UQ7jGXJY87i+993oARnWVSCYzBZEaoB7uLoJpAH/ZwEZ3s4grEOrGtFcLU38tcnDur0KgL4huRqoxm/bT8ojKk7DWM+T7WrP2JU7a8XRTNuac/S+gawsN0E93n4dGlXcmKwG6kcWvXf1f/1BKAtx/T2GnPwp3332KjzJ9wi0cH8eG1qnsRugjs7hQQfsw51Nx4Epr/yoYeiDpAOdNUokYLPjyBOkIzdT7sYJ0F/XbblmIzCz5T7XvyLrRwd3PR/HRHGQ4kTFAw1iEBk5kr1hc/s5iptyXT+9ozK6QYC7iliXDF7cdNJiV4bV0SGtQ3T9aG8YhJRA63AmWqlO29AuNrYfbxanpaeN9V9LTcMZQh3W5t+V2WQnsJ6m9DONbICKBON5c8S0FDQc25wZaKxdM3tjb9vl8HApMEM741rT2Sm5srdDpafEhDG8rH4VbiH2XXp1EwIdTASKTih+UnNkdulVxuimZ/DLjfial4eDGOrsxxWFy2GL/+Vw2rmzD69sNv4fnX9TT+iLp/+TIZxHORQx2cjaMMThM5U4Yn49CBCS5B+JQHdt8/pPXvhukvwzTe+ugw/8naZjh+WJb4pMwGhMRtFwt1igOuHCNIdkokzLzffuGPqyIxg39nVrGy9hEbXmc+5XBhgP5uYm51d25H1ZdaAOdJvutvp7JrBfefTzhD3JFfzvnn7QRJc6wiW6v2Wje9ri6MaBsMa9dd20+HJIeHqR9g97mqDtJV/o/6MwSfhdBfZt3+9a4xJFP62B9B26x4I7NQAeEWo+ttyxepT7YF4D2srOmnnGrw5vyHIX316u+pXt7+mruVFnt6PLk0fV8IXA/lbeq1waGB69eVz6QI27jxY7yqM8OF8go9gKhru49ndVXv5W7nkbKbjHuRBHJ3EOAkxjOOOVz8YFEwXMXRJhPjIn60+xbp9Wz5dTr/0d+tEG2imcF0wPHFaNlNkjqkmTfnbHrOI0E3e+GJQCpPczsFG8Ib2vYw2GQw7ommOKEhiGkKJwCuM+VXhJOZeRtudhpEaph3HX+v8rsKtdgBpOPnowmj4C4P7lcG7vbG8aef9rJulvafB3XNmLpxpE430vblSd21IytqwbE3Tjl+HuXJpH9HQTj9fRvMnsWks3Iy7G9Bddr5ZR8MddOYDL4x9Z2jnPybC3Xin9Q7gNyg3XBp7gLW9rkhe+V3BB7HOznpQ01MrHCqxDyFR5DlYwywCTEiwWWwgdDic2E/etP3ZxQd2c3NJsifcBGUTsyoAUOc33/1P9sj9BhCcGKephNwYwBykv/OiRqxkpMyF4Wxl8DN6VfAOHQ4hbtkEHYBnWAZm+dh7zOOGMCro96XII4mDnqoZqDoy4jqJLrfz6qmuUqy13FlItGd6a5f9/M10uD2wXz8Z2uE2/nehEniXA+PxmXW3n5AVO867hRtC8OOnziBDrBECbvM7Ce7WGjSgebV2AlR9tzCaDh0WEVc7/rlRiXV6AUFabspS/g6Zfey1jSnE4YYQ/M6zz9KH4iWIQWbulkNi+xnMbVgACL/VEsiy53WXwaS0p2nFeaa43MzODqJp+3e4PWD9s18/mb+h3d812jEPAsnNdMCljFuCPPrrokwmj/vwGlea4lVh7c4zUhQ9kBnrA0hrkrzal9SCdUP1crh1hG4PtMu5O+yFK++/a2lPP0OAV2WWS1jw16otmaXnnX8D1/13cMP7vvZLy7PZeZkkWyh+JsuzRH8WG8ee8MEUZKdK4ipnj5ry1NA5VGLeX/0TQfZbov1uSzg/pt1sWqf2VH6at78XRt9ia8Rvx7Pf0Q32u7iGISofHbX5qroXMHv7SjTtu05FbTzjQlQPqPl62S8MFp8bLIa5PKp2adUfta7uxcW9DVaHN9Mg9nPb1d7uItQP7VbZFebeXU7my/6ef8rLWwAXz91P7JX+rvwbV+LAJwkB96gt4NvLwviEGWFu/SUIqNw+vr1VRjCs/Xu5PQdgXs22JtrpNtuJaD4qS7hofPsNljKGIBVJMUZmy4FcLD9Z7v/s+d/Db9hUnEM9L/iUDivMwYmKsuzKJ15B9lZdOgBsk65dDgeMPM3+4vhucvJG9yfziqAlk1/uDct53DiCUz0P+eM9n1Tzj9aB7PrkGtfn6tbLLYNlz+su4ztml2nFeaZgSzSNoZ2vwQZQeyB1uLmwvrK+2a+fDBbe7Ltm+LWA91ND0V+oYOcjx200x9R1xWBlVcKYx8+4DQGSu1IvPcE7dLjd0Z5426CQuvmCyhGZB0ZyCdk8JKWNG8a0O87cLUHc99KuXkcRz3TmOsrYb2Y3CdDh5oIjd370zqPdL233fv15PcB0+ay+e7AV+ea7M7pxBL/v2TKN3IMuLAg3H7ihZTvo9ZxzUPMtLm6NZOhwpbBRe2v7iBLcbZpyv5oHqDz+gTfOsfyGEVy+5puCR/tDJbnCpjVcu3Fboz3jG8y/Hd52d7g1MOJYX5iktol5v34yfwvbK87VwZO8hBxHxtMxD4GsceMIDvDDcm7djWz8e87N+rjKXVkRmg3TNDcL1nHMsjJat8MNVsEG57WYmweOE46jhlE8005w6bozBixN1o2vMNe/WbbD58tQ43LjshpHvtj1G3cGc7f8q/x4o7uZ3MphDyL3ZlmCRMtsS8MMN+x3cOLXv/l/KJ89eVhO5TvSkxWsFXrulTn9bXkiQVFK5pR4lN0Ven4K4M9t7kgnG0zN3731N3GkZ+pS8/fF/X8Hnv+dkp+uIeojj1x+drf7zb6O3/7dPfK9qR0Ltx0xVd/j47fuqzYcC8vfebR/R+WHCQz0b/9uypO5Dc377PfU5u/4Gg7/Zjw9xQ8wv+Zv0kSO8jOs8p3LA+Vp1ctGd53H/u3PQZ75wz/q8Hm7fV2W2CtOVr15Nd9ue/9+7ODiuXJV/WARWvfxd2yGtX8XJ9S+q/7z9d3V/o1yKkEvc54AsV8Yx2wZJrK9vS39lb4kKyflE5s9ue+vvauKVI+eG4C1O+6QKOmhsbEWR21mea4fE+Qg5rjkGVM2K7KdWm2raPvvF+/awfz58I0bcFxAqPFu9zZcber3nA3u/tocDVg7c6TQdLj9QBpwAuIHPCMKpmxbeuFFmT38LRVDbuiIvOfe+/36AGQuC5mlqWRFikK5/PlZHBbAT45XBR1813Df1aKeUDgzY/bdJ1+bEOr4hxuULibdOty+4KepEn6aFATPi6kkUHg2Ni76UIxFf70huPcVrws2Mh4YBxWPqoUekeuMEkVj3R7QL1noo7MdOhwSQBPmxw2THnVOaMb5DKvWXHa2bhLBiXQGJYJnooPcEacXnsHl1/1J+9uwtxHakvqoSOYORwkQSjARBqY+zaYfMoSWnNY76Tec4IPBCpgSq4rO71BF/N62z7a5gXIYYY23l8reocPNQakbeRyDerBkXkBNr09MuuEEP3nqbon6S7r+nuUT3d3kOdD8LOuN3MG/UphkNtOW3G13Fde7m2EdOtxM6NjEYOQro7QnEmMpXshyf+Bj1OP0hmHtjrsk6i3JFIUo+WUGym8sdUnu+tvLiwduyBHdRlaHZwK+Zk0a8TtmQZiA7IEMe+4bZ8QNJ/j6q98UfGB4QrLlFUmwBt/Z4eFwWDGgVEmCAoHoTWOS3cyNxn4Smrxrcq/tfqawPJnXQWi2RbttaJ4p2uldbfs34+5lnimaae1V/8uZy6Edv50Hzy3nBnHbmP+tRgbBGYX8CgqInoaytnZMti8+Lk/8xY9o5W84wQmessr1N5pPErQJD3pA20nWbVp36PCMYJMMz2bjB0SoovNTYVHuvnF2cwieY5aJMPOB1P0w1oLoTImykeOmrt5KsAjNYvCzQPrZMNjVoOxqWu4OHW4lSHBQqYIboxmIdRMJnsegdBTpa20RVBsec8OjhkDx24LcTdia+HYrV4cO86CALEBw2IoMGjEfiQXT8wnEZ6pX4qYQfPnYMS52JAZrVDLqY58oA/X0Www2QLMReCSccZsktzV5G50E73A7IAShijKFqASpiylU9YkMyvOyUrxd5IOv3ON1mBuAO86clpRPiXHGwRohBoVUteCqnDOQMeoQgeTvpHyHWwpIGP7kXAqITX5BiofBFNzaxhr8ksjoEzdHgt95z92SZe6tH75gQr2CBGfRbheYpGaJaPaT0Oa/X3iHDjcF+tYaBCaWvOQRSS4hiC4ziE++7zGS2fg8xuhNUpPf8/LPLh9ML8hsp5D1Y8flqY0NCeJIEv9d1bBWjJX8FXSdQXHp5qK51wCpBcT1NNG8r37hiw3RDPPpeVj9zc9e17Tb269vNqdE+tvrkpTmLp7Lz453NndTV9L7LBjqFWF5VK+n2g3+YT+73bwtPs/lMpgfsf/rovP14euKRJWet1t+5q7QeJ2U/vb6KqHxvNvusVvrNOr82bZ8Xbf5Sq61o02e/PVFr76X63SdT87XTdVjvl5mreP7BAH18+XM/LizeM2yKHz7tz8vbFd9M9LD+c3Xf6/PH1dhuNix2+ZHNO0E3TZe6jCsu9E0QT+Tyc5EEunJIOkhwTG05QjtdhppL90cgp/7hR8rt3/nF2Rt+5wUWDMs9ZYlCZdltDHW9Ti70ArOdmxWqCbgfAMT2ri4ea6RPeGq9KqOrSeOOg2fD1rK/HZ1MO5vugN0iIHvTvN1veYSY1c5G/Hn06Ed5eamRKPTiabdztWuJsAGwZgvX2PX2u8qp6/3HgPQXfmzJdPgbG9hrL+zG6GMwHZu/a73rI0BHlQZ9erTs2udr/dD+dhvsxD5s839jFLlb9kgP+f2ESx9hvNMdbSv9X+d17zd4Pysr92vOKmWQwMZBddW//t2ML/mREEUrfcp9h9/5jeffubPZTc/fl7bvv3O/9Xntqv03JVlZ63DPuyoQJ6Fsra6ItPReRltj+T48bOys52inW4CwT/8z7+7vPj7/4/cNygkGkKBGE2lNxtgbMcSJSgoClsVHIZ259J5SlXnys8qCsPBV/JkSd/BxO4G1ovC+dUNzPe6ead+AN/nWA8wl0494H0elj4vIBs/XMA4FWwcVun5wefztbguvNAJj4PKOtXawmej6hdh4c0DGTQE40vTRIE0ffoB9Qf3ff5wuvzr+jMvm6DMb3f93f3VBOM/TFGN2+rLDK7iuwluEc2vnoiYNgneLBMlpcvf8nNhVTJz7Q/5iPxIcObOeL6X9JcawtzNcF7ppj1v+CkaZXHYb8JyKOzL/r68gdeoqvi+PSoh0kofOoxeza/ZFwTdhPnV/e/6ukxAID5jkqUSxVDXswnaJpR+sgYVnect3ASCf+hbv6Qc/+VDcu+xNRA8knR7LMtZIEkvku0olYw7gb7g9QBTJxrAWaoB5uMxnAOjxL02CIm2BG1KHOfXHEx0oXFw5W/zzm9+QFVuo46l6+3ViSSWjSdATXDnrgiuLrh9uaovZPj4V0Vwpq0ErweVlYXtwKup8LzLhRuBeB8n0P0I7u6ztPVFBrW4C+8nSv1AdQ2TxJbeLoIHGHQ+jCmjVfRaEdK3t9Wf7aNu3w52RDCnZoaxfjxthfEZzwjRbE/CwonqCj+Of7rMT0tU2QnffnaPFcyj7g9X8V0Eb9e/lT6XGIT5MfZceKs96yOSOW5heFxTDE0m3pLReBvz7VCWBicknUXosz7qeAMJ/rGfe3O58Uf/RZYvPCnL00yWIK55xBBfE11GOTNIv3E4lTTmesIPft/BhlpFd37NMDZHoYRyjUrsryK5gULYlYOZA8wGtUMdT1GVZ77jCJaZEpD38z6iPcHwfof5epm18AQxAvFuxrOY9mmiimCNNDiwg9gmOCchTF2tB7iTIMzFwnllM3Hwk+Cu/iaJ58tpSwwn83D1A9gNMLahaz/eR9i91bUiRN2O7sr0kAbrp9LN59+YAAidqFpuZ6F6jryh4loO8/Fqu8H8eKWNSXGPwpXE4u/uf71U91puDiaYDPX400srLdhZX17tqCm7NtNBuGtTlsbB0nETiusL/XQR3RCS0dJENsZbEkbL0huclu2dgdxx6oGa4O/9/n9Q9h99v4STJyQmDXurkueprIB86WQkWV5KfM/zJXjRl8g9/+s/bJRmNx7+pZ8sH/29t8kd44uSX3xc7hpgVsFsMt2ZyDjNZGU4kGU0xHS6I3kfFOEsbKoO0GyUgwiuAxt1tUFNtAnW7BD18wPcwM8bE82B48Lrgezc86qUdjzsKLkSxVDlXw1sw3y+tDuCRHqtJb4Ls+Lsp8EQWn9dh7Ksrpy7CO7XeCyOC3f1o5vl5pl3vFZr6Vb71PV24c321PKj+dxgdPnavfXVx6/SbRBcb0Y4BqorL02L0FBxm27TeHihXY2v89x9DbvB/HhlsVhuPovh2rxdToPzD6px4vIyOAFTo+p/y8vdBjTSbaRftiQ4U2/m79qWdXUWDUO7abJsP9iycCzx2kRG+QRcGsgkf1AuFS+Vv/L5b0FxUMH3/NPvLGd/+DZ57kougyVI1dlIisGSDIfLUozH0oeUKbKZ/OV2IE+e/Ux5yT//pboELTz67/9l+fBv/4r0Lz4mz1ruS4w1Vg9CIBiByCnWTFgnxDF/CUdDFDPMOGyQ+Uadq+ABBNfBjA52B+L58Eol9QPS1kCAu3c+r8J3QO1n4S5fQt27BhFVRBLcEcRgwc14htrP2bXzNI06jGoX7Tbe9iO4G6AITSiBkYJKQYR5iVBLZC8hABde15/5Mn0luPdjvWs7MV/v5sTF8nMPofapw6v4VhHA+dX5c63I/uWJoM085+wtgjfT4/hm3d2kZmlYea3+zt0Md1dqIIWkuoZvTSoNe3tin6s//yEbl7uDTUD1kqqlQfmrxc9b6bvJps7fSl/1u5XDmI/k82Ai8Sp0MXBpW3qyPXuOxOtfIWc+/XvQXG96VXnuXX8m0ebH5OR6IjsykgvbI93l5kJ9Z3sq68dWpQc9//zmJRnNAok/+bPl/jf+u7oUDfzHr39p+UB6ST7lrlOSbl2SyWyMhT+IPOaP8CD2EiQ5Kr9TQCPA37DI3QSAglvfNSt4OQlunWxNXG3y7EfwVmfmeq8PU8v8BFAPiFY8gPbM329oz+CVCgbM3+s6kyp6s1ONbDaO9luDM5wDs6xUdJ+GqdRXQHDCFFxLvx3uJk9/r159wdAeLHeOcdFsgSqeH8HNXx3qNOr0A/uZ0EY8MBfe6q8mwavJnfWvJjjfFr7/za0DBeHclNV4cHP9PqMGY35EKz/WkzC/Zv7sK0pw+jjqAr4eKI23uPh0MQ32Fa+WDM8VVvh+JRjuU6th4bjavSobp5wAcV2CVB8O5eksk53gM+S+z/sdvSEsP/gOWckuyvpKLFk0kw2o5cnxdVk7dRqiP5blO87KxjSSj2/uSLyyLGfOHJOHP/gu3rsnzg4iuRtrgunjj0g0uiTbF5+UHhpwfSXC4p/Hy0yQ61Qm+NsuoPqjQfhTABuLA+ZqjDvl1F21sWnQtGrMrWENo11Rm3aabLM5U4UxL5ffXsawy42y0KDSaup7kL92uBukZuhu+h3kdsSGgb0yFSysZcy/BWsvlphm71g1WIcqfjN/ElpJ3UqhXQ5OfDApJjiaHISkSdFMNNzdpqnC0fY0dbjrzxwDXsN4Nfs+bq5X67HA/nd9an2jpu4gZ5phexlOHLhW/VwmatzeRH1/He6MuTGdqJnLU/PdxzTDYKczjPuSponkxQmZ5fdIGd2LcIfgqa/7LBRnKoMc6+VgJhf6lEp9iYoB5OuybI2QPRo4HkJ974nMtnfkvVDVX/aLDzGXOZz7lX9VXvjVn5W1cx+T01DPixRrgoE7PqaXu86ewjmNYtmJ2RA9gYaJMJfUrgQBvndrqGdRd+VQLDBINGUdvHUYB5fOhP7c8Qo+nkG/D+6h9yK8TgOoJKLlXccnwsTVr9ok8/dbNBOkOvbhT3JaWlQtU8rQRtm1/wCTAGnuVTh/v6FKKzGiW/h8+Run93jM15+D3zCXvm+X3ed6O3+XP/dOONk4ab4XuGSaS9caRgc3GifCOMG1+uKsz9dKZSqsdZPtMWh85o8AlpW/BTOfaongJXgU+7x9+lX/ezfPM5uDhXvkOT+uT7j49SYjwPx6qAeysDo2x8dceao2cP1Po9opNBjaNRquXDLWcRHcsOs9cJpWS4xnU1k5ti58d+yxSytSHHuZPPjf/0h1U/DEd/2dcnLxCTlebkmZb8pTk0uSLC/JIDkmT53bkPXlE3q8cW8JqvlgCPV9Jh+PTsgXv/X365wbePsrvqh8zvQp6W1dwGSwKasnj2uh+D1wXmcRZ+EAV1Y1hJqBoazl9R1wGcxVnv+oouJS+aODmnFC5OUw33HWkc1NEndfe0Da1Szz4dOZey3P0FyjMV67w32p1c7BGgwcUc2vCbrZmU3/OTvy4s90zKPKxteXbsYNoEKbm6gmA7Q7+8N+JrT4Fm4TDHfpNZ3qfj9AaafpkeAa5DHfzrvq791chTLfCQx9mmtmjefHQ3OJ5VCnp7AlGcfRXPldevUE69KzcK0hkuKDco5c8+W2fLRtma71g7Uf/FnvFAKkWX8tegPN8UC028PLBxTC39hOIInAS0xkfCcUVy7RohiSFv5BvCRFGcsIcxA/LSKrL5bTn/1TcwnoJtuvf/tXlyc+9hfy6SegyuTn4Z1Bnz8mFy9syFIvktXBQCv41DiSx3tn5Mznf7mceflrWiVxePf//k3l8JH3y3q5LaeOr8j4yU9AG0ArFn1IiwjLACdxQj47i86kim4DbS8cNMDZKDz03dalRLsBs8yt8XZ3oMNeEryyA6ZAVPn6DjfwVBqi9mtPEDZQ7P46nGSZldNq0M3f5+yX+7LHrJxpG5GQ9KsGuA9vahBElRfcbHfeyQFqzaCTDu613uBSgLA1ehUOb94XYFwxnRo+IY/dA7wmLB9SSaMRrlTX2/3s7uPbUgfCp8/orv7+Pl+DavL0hWy7I/8obAXfPoY4duF12Zr95z7PxRTnyw67z6ffd+OD9yHA2z3gzhsCQoNbxQnBvybY14xEzSuTFdnK1yRNnid3f9F/biXuoAT/87f8aLn9J78lD0RTWQ82JAQp4uG6Rkg3IY0TSBvU5lz/uDx13+fIi1/75j0TM/zBd7+iXHn43XJsuiEnV1eRCaapYogBgTUWOgwyHEuCMYupkpw/5nO9tRfSdP5nBKJqYJi4F+tAI1zD+gFcxbcO23ugZOgIi+uu8wONB1UQVZzWgK3K5yVGk8BE+2cVu59xaEMLOKK07zcVsqFiqr8PZ3z2Hb/tOJ+f2V09mhOewsrj02f9id1puHxUcijm66UDGO6QKqo6XXr8XVrLqi5YNT/c68vPR0stHf6ElyUTXEl6S38+n8hrIPuhEXXuviqP5mkILZCgAcaPbwH9b0syax+uJA1WPmePtN8mPGuQ7sa4mI/n0q2KZv3rUfglAP1o2rWNe40CAE6YOYKnIPiod1rueulv1gm2MPegy69/76vLwSc+KsenUAWmiX7MbG1F5KkLT0pyelXueckXyvGv+459E2visZ/5Z+Xjf/L7kswyrLPRWGUfhY+wBs+hlmeynI0lxvqOEpwN1a6YgWtwltEawKCNwfvQsLwa6ji+IW1AV5jPqTmxuHvnO6p9dHtbIsdUlzyc33zHVgMGsHB39YQwCe0JYOVtEl7hB1w1kHx8e5CFcOnuLQl3t4ODvWxB2H3u6uLXeyDzA7MqR+zKaWvo6sEa3ymOvHS7dKvJmBMU3Whgp735+jUmJMavJrgK7XrMxzeYncvL/cCNthwS0u1D+Hrarx6+PvwZ18afQ91/8MUSK/Hltzzn2ymHhCfa9TIkfolYTYleG7V2Sno9FSIzSHrWhT8xLy1hCb2yKr3PemOd0D6YI3iHDh2OFvy01aFDh6OIjuAdOhxhdATv0OEIoyN4hw5HGB3BO3Q4wugI3qHDEUZH8A4djjA6gnfocITREbxDhyOM7km2y+BPf+Q7ypXxluSzUjJ+DpVPPpZ8npoP3gb6sgmfNkyK3J2AzGCEpAHfCRZZWolklI4k6Eey/Jzny5mvftVlHy9s4g9+6BvL4+kl2JCqdlWBqzNEEPGRT8zT/tHK9qOt7mUNH0a/uUdWCz20ktc27ElUe2Sy7SZYP76txqsd79vGcDjUxyyn06l71LKXyOrqqqysr0m2er+c/JLv2efODtcDHcEPwK+9+n8qH4wvylq6A0KDziQIjH5EUXjmNAZ2Gat/HGDwgvx8zjgAuWcY9XzOmi+T8I2veElkvHxC3j3uy996/X+47KB+6tf+RfnYn/wXWQ83ZcCjrTwJQxCUz/Iz/xB5ZgXPFUeAf22sfubZkdpelqHbnpVWl9p5ngjfZir0SWiGV3f756X3ctuz1HwTLwv5Lnj9/HV19TfahwsIhtkEwbZJYc5lsIPoL/zaX/UhHa4nOoLvg//3NX+jvC97QtaySyAYD5UggTBYw0APpYzzmQ7YTIYqQSlR+foBicDDqGZ8iSLAVBBCsscis3RDT8S5EC3JpfVPkhd+x/994ID+zdd8aflpK2Ppz56WXjYRHkrpXtAAaYNMknKM/FNMMP7AC+RHNF9qIHa9buolONPiq5+8v3qF0pOTaNqJvcL0/n0IbtjrwA4F2pEntWS9vmynkPLZaZFTL5YHvvqfzSfQ4RmhI/ge+PDPv6n80H/8P+RFJwNZyS9Ir5xiMPaUyDxmOIHk6hXuNb8sWYF6SulOF8gDPvENtSzoKcF5IslqHwyfXMBgj2XaX5c/uzCQv/aW9+07kN/7c68vn/q9n5fPursvyfgpJJlJFiV6hBaPG6LkjmWMSYWfXbC3lfYmWJvgnCDMzreoZigzr/pmVOPedjrtMOdCpfXtq5rg1VtRHrsIPjeZ4L6klBQa0OYklo3gjMjZl8hf+cqO5NcLdet3qPC+v3iXvPC5z5V8ZwRyQx0vqJbzEIQIhOljdMY6cJtGEgx6vpzP1xtjEIbv0CeQ3Fkm0yyVfoIJIoU6vD2R5xxflw/9mx/Yd2Z95CMPyac85z7Jdi6AQyPQiN96LvDHL3kI1vdIu4Q0p0QXrPVp+DouDKYfNbXbGXMXDcOzw+zKd/avxvCoYyzg/bU27tw6ThhcyOzh1jLjPjYO758WaONU7lwv5dnHN2X1/G/JQz/9lZ3UuU7oCL4HIJ8hHZcxHJchjgcYjEOosquSlSuSFqsg2hrW1XAXyxWB8nIAAxIVGMQwUg7dfVDhi2IgQQ4SZX0JEY9pl4J098Gp03fKdDbGfTPEhWwtQGyI3hwTS1r2NL8M9hnJjLQylkXMrHvT9NttCpYBZexhxuhDCFcmL9TwDD2a/dzqp4cpOBWdqroa2g90uw0590USTJm9dZnNIplNtrD0uCQryZMSbr9TPvCL396R/DqgI/ge+IwXv0je96GHZIg1M78skmOoZSkIlvdllkPNzkCsHIozJDv9eSpUmSISpJHMsFqfgZSTXAL4LYV9GcSJfgGSkr63siQf39qUT/q6vY+8Ij7zm38seM+HH5XB0hpIgLSxvtbDEbjJR+mHbivVTsnI7TceWsAJwK61oepN48IoPZ2b5OKGYaWym0E1aLhrTrOfm9DVPMjLtThJ7gx31d2xXM4gGzXNOCQ7iY6y93siWIdn0HRmOyB5MZFTg7Gsbb5dPvDzr/Q5dbhWdATfA/d+1bcGJ+67U2SQQouEWOMxU/w5CCOcJ2qoWg7yQFkFtVJIMsjSfCIDrMuHs1SWJjNZy6eyOp1AlkIhHY+lzLYlTFIpeqk8+/nP9jntj+e+8MUSL61CWoOUZBLIyN163TOBRA8hPcOCBy6OUZ4Rrs5E4oy59zOC+wp+NioEsVC/aWV46u3lzQwjJ8PVGFhPJbQ33XsbTg+U6JcmG5JhaRMun4APNCZMngPUc1juSDk5x6Q7PAN0m2wH4Hdf+xXlPZPHZAlkzaBSZyF3zMF3MK5HIvHIqeqIIizDuV7Xn894DjdVaUj6JJbxaBNr8JkEx07JR+SEvPT7fpkcuCze+ZZvK/vn3iMr+aa6uR8QljPknWFmnqL33Jc5aexU0vYuOr/BTqj0xaRkP1PRzrpkmCh4NT9D005Ubs3LwiipMQFqGZyffUSwgv+Zrp2/QHpTgl8Yb+uzBCuDvvQp0VG/AuI9heYzSu6WJ8IH5TO+/qdbiXa4UnQEv0K879++pSxG25JmVIhL6ce59DBqCz23XJXVCtxUUnJjnRz1ejLh5tLqmnz6l3/dNQ/U/+9H/n55dvKoLG8+IieGoWxiXdBbwhofWkKICYfEpjqGuUVhpOX+n4EE42RgdqL5gIr56dXHs3PRLYykru1AKz0717yC/x0c1NY4zcmEPyxianCtx4kS91KqwyIxInL/YlwuyenP/Lsi/93rGpl2uFJ0BD9E+Mt//R3l8CO/I6vZecmXV3SHnj/ZxZDCSnBKSU8wRzu4q1NZ3c9g9q0sIyTXzwbzc1fnv4vgyKeyAzZ6zK/94QJurjvsJjjBzUOGcd3OM+oznZGgIam2EspoFsna8/6mxF/yr+tMO1wxGvN7h9sdz/6mNwfnyoHEq8dkMtqRQeIesCEhPK/2B1V3mhsFThSNyYITR3Py2A8sdz0IzeaufIq2Dw1p+vQFdXe4enQEP2Q480kvkEk80I2+JX6llU/QNXjr6H4T0SL2LvflYHH3uIfrdW5qnr900ft0uFp0BD9kOP3ytwZ/Pj4hy8fvkny85ST41RDqeoOLflv4E233ZcCSW+lNwdCrphHqJmHmzxbvcPW48p7ocNtgZf1O4fc00ilfQsGa+AZq3jcFVQUqqvsr1HTYV+JbOIEdcnQEP4R4zgs+RTY2tyVu/AR1S6X4dUR7skqLVJaGPfnQL333YZ/Gbgk6gh9CHH/ZPwpGwbJ+F3o/OAX39gc30fnoC4nNXXN+8kg33ryan/GXgl4ko61uHX4t6Ah+SFGCCJNJpk+58adOfh+bV35sj9fcGw3zxsIuZ5rxLofmfTTtPHjIA/1o5u0ZrvwJzp5sM8XcpibnGgwGcu6Jx2RlOP8Rvg5Xho7ghxTJ0jE9NYYP01RPh10BKClv5zV7u3wBRmgY8pcCvlHX4WrREfyQYvnEGUnjZRCcz9WFSvIrIbqqxFcxIdxIWHkdnzEUUTD9zHBjFx6yXpbCsZyYPiTZ73//bTw13Z7oCH5Icez0PZKFAy/BuXZFZzaG/+1E5GuDIzzV/BAiPcx35OK5R3xYhytFR/BDiv7ffX3w2PAB2YlWQAQnwZvYpYrfpoxvP/HmNtr8sEQFuF6PwlyCbEd2LnVvl10tOoIfYmQ8Roovsuhz3a2ubDN8F+NJqtvjpzWWnNqH/xb+HEhwvpIS5lPJJ9vet8OVoiP4IUYZJrskd4VKYu9HZKWVs14HWC7XoihY6XifzUF25eus/DUg4Bl43UbbVaMj+CEGjx7mo6p8sZLvZfNVS77N5SSiqbru1BfyhT9INak+J9CvEQW0B5pdE4ad01ahFe5/BiOcbwASxygzN9rqsECmWIPPsBZ3b7V1uDo0W7zDIcNdz7pPhli/8jSZUQoJN+xJ3Asky1IZxstSpLEUeamPtfKcuLyMJAOrM7pzUB3iP8xJrADhPDkGpvoNmxtcIC+jweRIR+1ML8O6mdfCxcW0Uktwu0/9EE6/htFnzGE0LkwuE8l49DP4W6SYiLIY622E8/nzYiKDBAEZJHcYy0ovkYd/bf/DKjvsRkfwQ4y1tTWZzGZSgCB5FEgKlpBwlMw8I45HSrkzz7mRxa525HKg3Uveyg/wBKxB+17GgUkwh8rQ3TAHApOT0yJId+4l2KHLXHe7KyciPpIbUIKXKbT0kYZ0uDLUPdXh0OHOL/vfgp0MUjKKJYpCyXL3tZU4DCFdUx+LYDeTRM7W/J35ymEy+vrAysErlxJcaOhSgjvqnvgMz8DrsMeTaQvpxaFMJu74qg5Xhmvp6Q63EfIgkSDoSwTpR2lHIlASplmmnw1y61n3fPfBuL4ErqEUdtYWtEzVeepQ6UN+ZYWvhlJau1dE+WmoKO4LPwsX4oZpt5N+VegIfsjRXzoOUvTAYbehxSOenWoMcgdQbSkXobZTKvLsNiOyU42fOVTS8mqG7r1MM04jHj8qQTe/cZaFOUjOk2JTJT8/sFDw4wzBEA7KeKzV047gV4OO4Icc6yfullnZVzJzrZqlJEKk0ls3y5RNXjJ71Vc7XQNuXfe7R1I5ATnwQwh64KKeUuvITPAjFEXhDqge5FtyOv2Q5L/3WtSiw5WgI/ghx/DOZ8lI+ujJSHpYi/ONLXYrD1vMqepWcJKb6123Bvdd78T9dYRpCfMwiW12gmWhBOdPYzxC2Z2oyg22TMO0rGEfdYKkxwTGh12GwVjGG4+7BDpcFh3BDzl6KydkIolkUL/5qeBCCQ4S8UOFfkfdCEWoQIebKvDl1+XXD5xHbC6xqz6kowEchoXXOLjjr6H8h3r09Asy/C5cWOTSC6Yy2+neDb9SdAQ/5Ii/7LuCxwd3SdFfkc2Ni7KyvCqzjGSB/NbPHvP3a7pBGP3dOoemzqv7jZv82vdpOEDX8S3DAx/16hVsm0SccRqCuTVP/c0dDpgwd4ZlQAE1LqH76JDglN+6mx7yARrcgjqkaSqbo5GE/USSOJKLF57QezpcHh3BjwDCZCgZSRNg7a2GH17gwyYgGViiRCNgcb6w+uvNhpJW5wUOPTf83DTBzUC1NMC1uNscHPCrrikmC3455maqHoccHcGPAIarxyWbZfrlYv2EEd8R5845YB3sCA2ycNcaQW4tzhDGcBS7FXCfFuaLJo7MLA8f0dHHbvWzSPxtP9MPOMo0l7iM9KsnHa4MHcGPAI4dP6lHIPGDiFSDI74j7jfYikp8O1Alrja1YC4LqtBejb5RIF2r891BYN1DR5Z5yE8vpiB/hrU3v+jK3/NDGYD0j76te2T1StAR/Ajggb/3T4JZ0ENnghhQ1VXAUZJjHVtvpnG9S39eTYo/c0lo6e9rGGePeMyfxr0LDiIrwWEvQWR+b52SXesxhWaSaZn5rLrkMaoQy8b5pxHY4XLoCH5EEEXuK6LckGpuhrU30EiuqwIJqCS8viB5zRAkOD9VxCFJtZ3PzpP8UZhJQlWdG3KoTAHD5ce0eyb9itAR/IggjqF6ozdns1R3yLkLbRKcsM8MG2qi0+9qWX99YDmT5HziTg988I+ukuAsb6QkLyVPcwzWRN86I9HtUdYOB6Mj+BFBEC1JWfSl4DPofAqMT4aBB1kY4RpBxe05NReEyaMU61u+gdZ+IaUxHLjupqnQCt/lvjZQgOvz8lDNaVBC+FFd5zIC6rhuGpL+3HCbQX1PpQhnUNtnLoEOB+KZ91CH2wPxWYl7Z+XU+hrE+KaMYKYgwySI8b8nBQhDyT6DujsLU5nGI0lBlBzE0QdMID0L/mZN6d80VIm9WuwM1WRw0YfXRDejlK1Mdb9/37y+16XH3+gLzaen4XwlNCxgUmgf2UDKfFkmM+Q5yCVYSbEU2ZFk+og8IO+WzV99xa1RPQ4ROoIfEayfvF9mBaV4rGtvdm0J6QdZCAO/HNIRBNIHS1RVh9E3t24xVEtAWf374LTRRKxHkUATx8TA9Tg0jiwYQwOZSBxNoc5vSjo+79LosC86gh8RnPyGHw0+Gt0tW9EayNCXII9AkkDXtQmkZARpGfuNLH7Lj/639zf93CTEJ/GoonOo8iQZXiP/zP3m5iVG7HAAOoIfIaQ5P9YHqSdQbaGaB0EicU5JGDpSK7G5G+1e8uBmFte6Tp2+PUE1nr8IEFTnOWRj7iuA7FtbO+rfYX90BD9CyII+VtQkOA+BgEqec2e6kISSu8xUirsHXbiB5cztAyexa5jdPYKrNqzV7ec/Ep8/CXY4GB3BjxD4WzifX+OmFV8dDflUG8hdH/QAkqgwdGte57jdpLeVlUMTkxDW3wpOSF6SE7QnkOQdDkZH8CME/hbuzkxNJeYiu8S15FNi/A0ZtAE/+NNZCgnovmnWA5UQcisluW701ROQEdvgSG2Smwc/UHoHEoWBrPQK+eh/emO3k34AbmHPdrjeiKMUBIDaWk6wToUsL/lbsTvnjM+k8wWODOTOQA5+0yxX8tzqIWD5z5eDkxENT3KxnXa148qf3SJMUIOkJ1vdRtuB6Ah+RFD8xpvLta0PylJxAap6Ktub52Vl0AMp+OgXyZ1BcvPBF67VQXIQxJEc/KHx6Vwtmr9nm71pLgtP3ja4T0DTTovS2/2W7tyjrQt67bA3OoIfETz6nj+WZOtxWR9ybZpKmk5llk5AXp6QAsMn2yoJ7t4ks/U4odZbAftNfl/YBMAS4uqXE7pRiPu40OiwP4IrmmU7XDe8//v+fjn6+IdlqS+yvBzLLN+Wi1ubsnLiDpkun5L0rufLZ73yR66Ybx/+6VeV8tG3S37uw3JHP5O1Y4lMZzv6Vtn62kmZbbuXMvK4lBk03EnEB0p6EuV9/eksjLg+5+OtjmS2j1VvaHnygYjtTS7CXkslnN98PDBS/1d+jXSYcgnNgs/MV2q4hjkSW3oOuE8foM9VdRfUYTM8LZ/ofap8xje+1SXYYRc6gt8kPPlTP1ymH/gzWdl5UpLphgyHOUi4I70TQzl//hyZJlm0JKN4RSZ3fao8/9U/f+CgfehnXltOPvpn0h+dl2PhVE72MhB2LNvTC/qFk35/TZJkIMVU99UlA5upnk8SdLr0JEn7ElEN1ufRQSKVpCSVXmpCGsFuGcENvA9p6amrcIWxTOWY7CT3ytlX/mozYocGXEt2uOF46sPvk3jrSVmLpzIItiSYPi2zzcdkduFhWZEdWUs35A4Q/t4glf6jH5F3//h37DvzPvW2t5T5B/5ATm4+KvcPIzkRh5JkIPB4JpPJTA8qLKO+bI0g7fgGlvRBM7dB5Z5kK6QHwys322/lIOAygUS3TbUKujGwF2/pZ/4oPyao87/5TzsptQ86gt8EfPwX/kU5nGzIeg8DM92SotgRWcpk5ewJGWWB9FdPSRxT2vLAfxA8zOXxhz/q796Njz/0F7KSXZKzg1LyjSdl/PQ5GW9coDomcW8JwnCoT7SF4RLkK78hDslIaU0ylyR2KUmeqeFJKo5itwYUyiq7tWzOb29oLCfpVdqT5rgB7TXABNdhb3QtcxMw3dyW0faObI1HcqnMZGs1kY9CNX3Pzo6M1u6XUe+sbA/vlk2o1VsSSzHoSzBsfnp3HpMNbqblko+fkj7SWxkuSX9lXeKVY7K8dgqq7FBGU+Sb8WEXpAUT8rFUiMgEXO7xg35egpNUJBmY4s21wiaKa0tnlwTfBT8J2VICWfA1Gv4MOFzCuqPDnugIfhOwNZvJyulT0j95TMZRIHnck+FgVU6u3wl1ui/bWzNJQMoTkOQ5Bi5WmzIYDPzduzEeT/WptY2NDcSnmhpIMZvK9qWLkk1nGPB9GSZ8/ZK/f/N3cKrqHjxQAeo6H3ChZK/RVH0JczMOjEnOhiGNmS53542gOYJo+Lu7/fY+F+6NlUe/CZ7HEuOmGMtrbvy5yQfaiGkaxUxifWhnjJJM0WY7WLaP0ZaRPBndK+HnvAYpdtgL6IoONxqf8Q9eF7x3a0P+cuOi3HH6HunNYhk+jXXwo5uy8vRFOZVNJH3iUSm3L8rxY+vyNFTug56zXr/zrHz0CcS9534pl3oyiTOZ9SMJlwZQyXNJJyOJQYDlIdIIx3pAQk6y6QcSEL9MZBTFshOFMoPhT2b2uzNfRKHhEUk0PLfNmagKowEH1cwwiUzzFGlOZVyMZJxPseyYyIjfLIfR989h+G56ZUDYSTnDMmKmj9PGGQgNk6S4zkBkmAQTVjQbgfxT5M0Hd7YlircliS/CbEiZbEgaTGWTk02HfdHtot8kfPjnX19uvfePZW16UYY723IKZIzzXHYmU1lZXZbZmD+XbYOoPcnvfI7c//q37SuVzr3tzeUT//XfydLmo3JifQACuJ+6CP7c5daybuAHMX8pBiGZGshQcMe6gpfB3NmuhgHcDbh3y3dDN8dwU9gvkSzv2XscJYlTny192zejmyp2FPmjmlhektUIq6o4j5nipiGsCTQC/KXFjsBH0nBJLvQ+WZ7zTb+7bzt1YDt3BL9peNfP/mg5+fCfizz1qBzvQU1OM9mGBOP3vXt9KJ+UmKvr8pzP+5uy/rJvPXDgfvzfv64sPvKnklz8uCxnO1C6c3SmIytBaUwkg/n1qfU2E6e9jJG/klW9d2E/gtuGGOS5s1wl+PNYHqZSDkZOjZcePP1uv57JhgvqEkIz4a/0KfT6nQk0jnJJesO7ZfXYAyInnienv+zbrq0AC4KO4Iccj/3sPy7vmJ4H0fjBvgZRPcHT6Y6nIKQtwu2rnZT0jJv3El0Tm2RtYz+CO4kcylJ/yd/s4tWagAP3AfYC9wWyOJW0D6Vd1+iYiIo+QviWG3/S4xq+kFG6AyeWB1FfiuSU3P+3r/whoA4dwTt0ONLYe3ru0KHDkUBH8A4djjA6gnfocITREbxDhyOMjuAdOhxhdATv0OEIoyN4hw5HGB3BO3Q4wugIvgj4jR8v1XRYOHRPsh0x/PlP/MOyfPSdsjQ7L0sylrU+X7t0xzZxPud56Hqaqp7wItIb8BHWxhjwz7LbV0+qb4rPvQTiwEdJg4SPmdZ+zZdJiNx/x7udnouGcvUYTj/3DLrej7hlEOijtBInsLu34HLUqDc8Lcv3f46s/vXv6R5ZvQJ0BD9C+NMf+/oye/hP5Vn9iZxIMikmm9IPeEpMBmq7fua75oUel+wIPgBB9WQUJdnVgG96FZIneUXavXDQx0dI5mjA8nCSmeerPVM/y0uQui9RMpA0G8hoBxNUeUx6y/fK9PgL5OTXvKkj+gHoCH5EcOEtX1UuPfUB2dm+JH0e9pDlEvcHMuVr5SBQUvKjCP6ARB7wSIKTmOVMv3wShHwbjTIehKf09Ku39ssmdhAiryQ2pXfJG3FtHpKoByQC9fiqw/Wq4W6ScGFuJiCxm+no+RQm/SVBYCJF2ZciTGQnPCWPxffJi77lZ+obOsyhI/gRwXtf86LyOdHTsr090o8DCAjQXzkOJb0PZgQSB/z4INRhEIsE4htkDhOYQiJPSKJJsIMIThT+lFNH0vo+d8TxAQSHmzDBXd/rymcS3PMeFq8lVGnwVJpEov6abCdn5cTLf8US6NDAfO91OLTgd8b4ZdFZnskQKu2JtRX98lhcTkAGSm9HkIDqOqR2Uo7VkPSU2rcLSGwj9+UBDaAo5NwnHpX3/OS3dJJqD3QEPyIYRUuSD07I6ok7ZTSayJNPPqmHQPAss17BdTjJza2sHMSeSj93/qqe68mqhxPj7W05tSxyYvJ+ede/+pqO5C10BD8iuOfTP0c+up3LxjSR9Tvvkf6xk7KTTmUIIg/yKaQiDz90nxPWL47qOSk8NtkR/1rNjcZB+XDS4klzywN+aXQqG0+8U574r2+6CaU6POgIfkRw91e9Idi563PlY+mKPJ0NpRgeF0kg2qDGuo//8zPCWAcrsbmFdnup5vuBa/TWBnsNMH95eSg72xclm5yTB8+uybvf8bs+sAPREfwI4fO+8yeCs1/wP8oT8Qk5N+lLNDwl0whUjvglk0y/ZqIyD4ThGWhF2dufPLccLOvlJ6AkDiUOUsmn5+WulW25a/JeufAbr+6kuEe3i36E8f5/+a3l+hN/LOvpBajk+nuTBMEU0zplOE9bjSUDOYi5HfCG/XK76Dm/Q6641l10Fx7o0anwhXsunQN20Smf6Dtc6snW1iMSJksSrd4r7z1/XF78qt+uE1lgdBL8COP53/aWIO3dCTYMpEhAaJIOjCizSMZ5XyZBH5KcP6O5r6jYerdpiixXU+bFnKFfnufgXf397r3M5UEe7s9F5kHD7483jfNP9Vz1dLSlm4eS7Ug43ZSBn7Q6dAQ/8rjvJX9dHi+Hcmk0UWKEUSKghaQhVHRIvNtXRb8ylCU1CKcd8Gm9KJ/KWjCWR//TG65kdjny6Ah+1PFF3xXsnH4RSL0ChRxqLdRzbrOFvSHW4Oh+e8b8kIK76NQUSPAIhr+L87NuWxc+4WMsNjqCLwBe+J1vDXorJ7AuTmSa5rquTiC5swmkOq6HU4rzFwHbhAtBcPdSCj+P3I8CGV96woctNjqCLwg2klWZxD2JYSK+XZbzQ358oo1PtoEsUGi5RL8aw3tuFWxO4jPvOaR2Jn1oJEP9rFFPJrI+ekjkj374Fpbw9kBH8AVBAZV8nAUSJz0JCyjps7EsQ9xxk4ogYW9r7LOcoDZCOc6f/PhKKdYeUmYTWQtHMnvqoy7SAqMj+ILg2Q8+DwSI3WZUkMtSMZN+PtEn2ijB3VC4/YcDJXdzRRHxY4pYZ5RFJEUeYT2e6O76+qCQ849/2MdaXHQEXxAM/ucfDJ4c3CMbs0gSrMWTXihpOlFyO8LYenYebULthsVoTRD86c3//ObQnkDa7mtDEILY/ie5XEopsP6eYQkSRrlsbz3tYy0unnkLdzg02BjN9GEQbkaNpiB01Jc84Ekp/AIpycjhwKvZof6WgRr7XZs/taldd6/tIRdiP6LDPqdaW7gzSE5NnjNteOHaNFER7mv4nfI0zaWXJDIEoZfjQtJ8hmUI9JLxpqz3mxPMYqLZ8h2OOHrLfDadXQ4i6tNsh+Fp9MvATx48tUb0ARdMPjx8AhNQdcDFAqMj+ALh2PE7IOEySN4Ckpuvm3BnjVL3cMIGr+3m88ppS19/hdYRyVTO/fZiP/DSEXyBcMdd91aPfQZKgMPd/aZ98Hf8AhMWryS36iU8DA4eF8496WMtJjqCLxBOf8X3BNtYX5PgEkDW+Rc8Ditc6fFf1XRzedU8dPsI21uX1H9Rcbh7uMNVI88Ot1rehJPgnKwKLDYCSO9Qf/bT9955ZhsnsGyxXzzpCL5g0M1pbkT5n5eOAlgLp6b79bf6YWiXkcTRQi/BO4IvGjJIOR72cLTghrF+XEF30CHRsQTplRO5Wx6X8o8W9xinjuALhnsffL5EgxUQnQcl9Kvft/czl0MzbvUb+WVMMx6frNOn60K+MOLsTdO8j6a6l0+vQWxnBTcNM+ePK9QSFwZDaR6Mt+Txv3y/L+3ioSP4gmFwxxnZ5kMiUSJFxnPZqMwefgEXgPRcj+sz9f70F+6m94KZlLORuhcRHcEXDIOvfEPwwfKk5L1lKdMZfBwZDiv0R7EAE5azeV9wHHYeNtkLIOEnW9538dARfAExhX7On4n5qEv1YMghBb9p1nx9le+382cz9zkl7q1nMp3suMgLiI7gC4gyGeq3y/gm1rW+JsopgTvXtwoksts5d24SmRJcFxwm0SHB+SWXMndfOF1EdARfQBw7eYe+UgkdHS6T3lcnxTlw7BHRW4d6hnHqeQ4vkNz/XMY35Xg45DDM5NFf/9FbXtpbgY7gC4jTdz1Lv2HGnefA/WJ8aEAaN6eiWougOs7/qI0+2Ub6uy+5DJNYzj+5mEc4dQRfQNz3974/2CkSyTKqtLUUbMIvYSvwN2Y1tHt3qH4YRAcZxFWzVxjMMwXPYGMZeM47P8jE3/jdt8/dq6JUz/tRKePNC+peNHQEX1CkIEKyfByECCQvS8kg6Xitf3N2vzMbsUnmtqG/pIgLgyWwN7SXUI2pHoN9jKNxYzVuyNWmyJ3hI7Q8Ks7ZsYLGrTT89atpAv6+rQZ387E82BlvFiQyDvtaLx7dFOTID+kkUSTpZFvuWGZ+i4fFrHUHKcIhyM0DH9xbWFeMirCe5PDaSyKbBmASf3+AnXNK99WBT6IynzzgN89p+BZZrBKdw5thtCVzh1MsDjqCLygGg4ES20liqrphRRaaNrhb3TQWZY+oNxnNyYHDGW590MWXDLNOv5zIidmjUvzWD9364t5kdARfUCwdPwntWh8HUZK3JfB+4KRAA01aze0DFt5tGvLqdtXhRlmDkN9AT+XppxfvYwgdwRcUJ0/fL7OiDzq4IQAe7FK3aYzQZhxtanPrQCKbIbH9LwKlu7qHd7iJyHfnoJ6XmWxcOA+/xUJH8AXF4CvfGHysd49MwhWQgZtpbkfaiN1GRWqMGJqK8N7cMlAdV5XclVt1EpCbv4XzaTYtc0EJPpPZAj6y2hF8gcHTVKnMchg0SU3i7gXz1zW4t+8X93KwCeN6gGWgJsIlAycqOwqaJoc9K/hAz0SKcszoC4WO4AsM9y6ZHS3spLja9pDgTXI/EzBtJSHs12fwgcyqjnsNBFcrIqtB0vMgCH3xhKr6gqEj+AJjsHpCiogkD5W4URRJlmUynU4ljmN1H0T6K0H9u7ozXBXTmHuvd8Cb74ZfCTQurzQ2gfjyDoZD5JPLZLwpvQU83aUj+AJj+fhJyflueJyQJXp4QgDCR0lcEbCtgu+1Pr/18MMYhSWH7ac/Un42y6XXG8AvlaHsyMO//AMLxfKO4AuMT/6GHwx2spkUfKsMUpPSm1I7Sfh9L8jZFhVMitvjoWZuNTgRhYX7uY9fO3Fl4sMusYwyTFo6YeUIz2TzwmJ9zqgj+IJjM+X74Zl+04vrVXIjINnTGUjB9a2Lx4GipkFughL91kp1FppLjKqESnT9XplqH7H7vBHqFOWp5LNtei4M2CIdFhhRf0nGaQZV3RGbvxrzufQJSa9rYKxvqfoi3DaxmuaWA2TWkvgrJxs3AUWQ5pFEcV+m01TiONQz22J+jXSBcFv0UYdbh/vuv1832KZ5hrU4SQF2qHoONqs8d4Y70e5YYkcgI/ztATcR8ZhkXnmiKkEJHmLJMUtTCVBozF+SXOHG3VFBR/AFx+lPfYGU62syhUrLDbYMRKCqzjU517YG9zhr/Uir0aSiCx82UeNngBsO5uyNSXEYzZqTFOz8jZ8vt4X9nqrw/GUgBdkXCR3BFx0veXVwceWTZStYA7n74EYCysRQ1/sgBwgRRpVxb2g5WilAaOUTpTuvMJSaajALqGEcH0/jtowRc5chaRvE5YaZM64c7mlzrr0ZzeVRBBmuzMUhKUDqWSqrYc9twvWGMp5MfehigK3XYcHxwlf9XBAdf0A2JgOsUY/JZIe/H6/LxnQqG+DLNnfVB0tS9gcgVSJZmkuOdTsPU8hBKhIrD51Jy0xgkzRwhnaaWZjLFPEy+qnBWh/G3jsvQUaaHKTOwNock4safTylh8kh8YZ2M5iAQOw8ZroTyeKJTJOZzHpYbqAsUTGTFUwA6YWLKHdPxkx3aeBrvRjoCN5B0b/nhTLrH9PNttVBLFsXHpN7T63LMMpkSBLlIGkG0lJAQprz4ZKygAyFm0KTu+tqvGzl79H6+imi01SbdIzrDd28V8N43cuAlM7Qzvhu04+GuUkQQ9OAZhGQ/PwyGV81EUw8kOxlLsXGJVmKB1hyLMlFTFxn7nkAoYuDoLnO6rDYeMePvbI8+9R/kxPTT0gyKGW6eUGS4aqUvVWZJEPZ5vIV42WI9fmAu+zpRMLEqeHid6epMusTaKpe4+KfhOX6naDaTvDjgHxmnGq+e9QU6+fmBlgjPcLCeLdOLlhT87CKGeLxCuGPFPhk3BSyupB+hnQLaApTSPLBmoygmXxoelJe9NrfaGRy9NFJ8A4VXvSq/zN4DJJOjp2U2XgkfZCnHG9LOBtBOZ5JL0ypFKuc5GsqfSUdpCfW7WbCwpndbsar43JNzHv12KfGMKRgVuG8D5rhlP7Q+qWH9JMsliRNpJf1JMqQHk+MhcjvrSxJ0V+R7awva3c+6G5cIHQSvMMu/PEPfXW5/sjb5fmn+vL0uUdkdXkoveFAv/eVFyQ4VWREhHo8BVF5TFLBLykAJN+cJI5aMsSHhZoA1HlIXNwFf0hchFGWE5XENjJ7N1Vv2umiMkA1POIkgckDOgDCprr+LqKxSvadoifb8bPk0vqL5dNe/hM+tcVBR/AOe+Jjb/7aMvjYf5OhTGQpyqUHVZwPiWQBJGPB1S4IHSYgEHeyIc9VpabdEdWksh5wymtLRTeCk5BNglej0avohtK7SXgSmffGBUw5wZW3JzDcuS+kiHNJUeYJ1t6PbGbSv+vF8txX/Np8gguCjuAd9sUfvuEbyhcUT0py8RGZ5lDV+xgwCU8xBRkRHoHgKYjGEVTyKRJeQVwluBe9QWS8clfPcxcH+nWIFHjVE1ngRwldhQMmwe3hFSJSeylJMZM435GEXy6BBOckQk2iiHuyk0SyFa3Jdv8uOfWpL5OTL3lNncACoSN4hwPx8Z/8vjJ/5N2yc/ExWeplsoQleliMoSuPsCYvIWhBrkpqO9Buo4oPzzRhktjFNxXdKeb022tTTa8Nic4w3VAT5I2ycLNOXzTh9hpmoWmwJJvJmlyM7pL1T/syOfsF317fvGDoCN7hivD4f/ipcvP9fyjF0x+Q1fAC1uU7shrPJN28KDKbQqqKxL2eSBKD/Lnk2UzXyEECP8Kr5vMEhzvIKzssEMRcX9eTQp5hzU91nqJfw6khRCrZs7AnG8x3uIrlQyQ7O7lsbOdSrD5bVp73JXLP33mtT3hx0RG8w1XjsV98Xbn1wd+WyWPvlfvvOCHRdAJJGsgAZA5ip8LzYwSE/oSmFvczWGBE94tze3RUw7xR+E27QtwpLBamqWGS4P2TOBK+/LmDMRxjubB04j5Zue8lcvff+EcLT2xDR/AOHY4sRP5/rZ8oL5pC4EgAAAAASUVORK5CYII=;" parent="1" vertex="1">
                    <mxGeometry x="1296.7" y="1150" width="146.6" height="120" as="geometry"/>
                </mxCell>
                <mxCell id="24" value="" style="sketch=0;html=1;dashed=0;whitespace=wrap;fillColor=#2875E2;strokeColor=#ffffff;points=[[0.005,0.63,0],[0.1,0.2,0],[0.9,0.2,0],[0.5,0,0],[0.995,0.63,0],[0.72,0.99,0],[0.5,1,0],[0.28,0.99,0]];verticalLabelPosition=bottom;align=center;verticalAlign=top;shape=mxgraph.kubernetes.icon;prIcon=pod;labelBackgroundColor=none;fontSize=35;fontColor=#E6E6E6;" parent="1" vertex="1">
                    <mxGeometry x="542.09" y="330" width="145.83" height="140" as="geometry"/>
                </mxCell>
                <mxCell id="25" value="Example App 1" style="text;strokeColor=none;align=center;fillColor=none;html=1;verticalAlign=middle;whiteSpace=wrap;rounded=0;labelBackgroundColor=none;fontSize=35;fontColor=#CCCCCC;" parent="1" vertex="1">
                    <mxGeometry x="470.01" y="500" width="290" height="90" as="geometry"/>
                </mxCell>
                <mxCell id="26" value="" style="sketch=0;html=1;dashed=0;whitespace=wrap;fillColor=#2875E2;strokeColor=#ffffff;points=[[0.005,0.63,0],[0.1,0.2,0],[0.9,0.2,0],[0.5,0,0],[0.995,0.63,0],[0.72,0.99,0],[0.5,1,0],[0.28,0.99,0]];verticalLabelPosition=bottom;align=center;verticalAlign=top;shape=mxgraph.kubernetes.icon;prIcon=pod;labelBackgroundColor=none;fontSize=35;fontColor=#E6E6E6;" parent="1" vertex="1">
                    <mxGeometry x="542.11" y="705" width="145.83" height="140" as="geometry"/>
                </mxCell>
                <mxCell id="27" value="Example App 2" style="text;strokeColor=none;align=center;fillColor=none;html=1;verticalAlign=middle;whiteSpace=wrap;rounded=0;labelBackgroundColor=none;fontSize=35;fontColor=#CCCCCC;" parent="1" vertex="1">
                    <mxGeometry x="470.03" y="875" width="290" height="90" as="geometry"/>
                </mxCell>
                <mxCell id="28" value="" style="sketch=0;html=1;dashed=0;whitespace=wrap;fillColor=#2875E2;strokeColor=#ffffff;points=[[0.005,0.63,0],[0.1,0.2,0],[0.9,0.2,0],[0.5,0,0],[0.995,0.63,0],[0.72,0.99,0],[0.5,1,0],[0.28,0.99,0]];verticalLabelPosition=bottom;align=center;verticalAlign=top;shape=mxgraph.kubernetes.icon;prIcon=pod;labelBackgroundColor=none;fontSize=35;fontColor=#E6E6E6;" parent="1" vertex="1">
                    <mxGeometry x="542.0999999999999" y="1125" width="145.83" height="140" as="geometry"/>
                </mxCell>
                <mxCell id="29" value="Example App 3" style="text;strokeColor=none;align=center;fillColor=none;html=1;verticalAlign=middle;whiteSpace=wrap;rounded=0;labelBackgroundColor=none;fontSize=35;fontColor=#CCCCCC;" parent="1" vertex="1">
                    <mxGeometry x="470.02" y="1295" width="290" height="90" as="geometry"/>
                </mxCell>
                <mxCell id="33" style="edgeStyle=none;html=1;entryX=0;entryY=0.5;entryDx=0;entryDy=0;fontSize=35;fontColor=#E6E6E6;strokeColor=#999999;strokeWidth=2;exitX=1;exitY=0.5;exitDx=0;exitDy=0;startArrow=classic;startFill=1;endArrow=none;endFill=0;" parent="1" source="34" target="17" edge="1">
                    <mxGeometry relative="1" as="geometry">
                        <mxPoint x="850.0000000000005" y="421" as="sourcePoint"/>
                        <mxPoint x="1090.3800000000006" y="421" as="targetPoint"/>
                    </mxGeometry>
                </mxCell>
                <mxCell id="36" value="reads logs" style="edgeLabel;html=1;align=center;verticalAlign=middle;resizable=0;points=[];fontSize=25;fontColor=#666666;labelBackgroundColor=none;" parent="33" vertex="1" connectable="0">
                    <mxGeometry x="0.2103" relative="1" as="geometry">
                        <mxPoint x="-20" y="-19" as="offset"/>
                    </mxGeometry>
                </mxCell>
                <mxCell id="34" value="" style="shape=image;verticalLabelPosition=bottom;labelBackgroundColor=default;verticalAlign=top;aspect=fixed;imageAspect=0;image=data:image/png,iVBORw0KGgoAAAANSUhEUgAAAMgAAADICAYAAACtWK6eAAAAAXNSR0IArs4c6QAAAARnQU1BAACxjwv8YQUAAAAJcEhZcwAACxMAAAsTAQCanBgAAAkSSURBVHhe7d19qCx1Hcfxu3p9SNP0CglBV4qI/lFSqTAzKsgMJEKp7B//Kak/IgwrCs3IJ4gikvpDwiiLiGtCZBEZFWL2QFSWBBFkJiIoeBW7V+3kw/b57e+7e2fn7Hx295x9mPnt+wVfvr/Zs2fOnp35nJ2ZndnT6/f7ewBMdlR0ABMQEMAgIIBBQACDgAAGAQEMAgIYBAQwCAhgEBDAICCAQUAAg4AABgEBDAICGAQEMDpzwVSv1/ue2iWq4wc3YBm2tD7w/FZ0IiAKx5basXkKS/ai1omjY7zxWh8QhYNrglePkIRWB0TheF6tvqBeUD2oSq8qWKzXqYbPNyGR1gZE4fiV2tvz1MhX9HivijEWTM/5fWqvz1MDGx+SNh/FqofjOsKxdE9HHzpKoUmv2BurK4d5Dyocn48xVmujQ9KVgPwuOtZjY0PSyoBoYdwQw6H6Sz9WbyNDwjvpcJ6NPrRxISEgaKT9vhPUfpOnRjYqJAQElkLyFrWNDQkBwVSbHBICgplESO7NUyPFh4SAYGYKyQVqGxWSVp5qoic8Hea9Ok8NHNDjvCzGM9N87lTbzVnAz+vnXhzj4un5Siv/+XlqEIheDMfofr9WS68oVUWellJsQDSPRf5iN+nnVx9PkWYNSLIpISlyE0sL7x8xXJQPRUdQEDZic6vUfZDD0Rdl0fMrwiaEpMiAaMGdq7aohaTZ9V8TY9SUHpJij2Jpwe1VpX2s3RZH+qbQc1RsSFj4WIhSQ0JAULWrI38RknR0q6rTISEgqDoUfUAr9o0xnJlC8la1YkJCQFD1t+hDH4w+l5JCQkAwohX70zEcepVW6ttiPJdSQlJsQLQgDqr6K65b4sd3Wf3y5sv1e90f47lESB7LUyOdCkmRAdECuFttX55aqY9E7yyt1G9Wq19JeGb8AZi79L2n51mM6UxISn0F2R8dO6CQpCsJl/3BfJ0ISakB+Wn0VSvmwyUUkvQh1vWd9kVrfUjSO8UxbA89aYs4m/frau9RrepDrx/UYzwvxkXRc/kdtbNVp6kW8Ud1r+pU1XBe6bKCY2LcKsUGBO2mZXyH2qV5avCK1Xhq/TqVuokFLAQBAQwCAhgEBDBKPop1s1r6wIXjBjcsV3oSH9JjrF+jjQZd2UkvMiARjo/nqZU6pMd5coxhdCUgpW5ireujek6KjkKUGpCHowO7UmRA9HL9NrUn89RK3RodhSj2KJZCsi9t1664rogfj0JwmBcwCAhgEBDAICCAQUAAg4AABgEBDAICGAQEMAgIYBAQwCAggEFAAIOAAAYBAQwCAhgEBDAICGAQEMAgIIBBQACDgAAGAQEMAgIYBAQwCAhgEBDAICCAQUAAg4AABgEBDAICGAQEMAgIYBAQwCAggEFAAIOAAAYBAQwCAhgEBDAICGAQEMAgIIBBQACDgAAGAQEMAgIYBAQwCAhgEBDAICCAQUAAg4AABgEBDAICGAQEMAgIYBAQwCAggEFAAIOAAAYBAQwCAhgEBDAICGAQEMAgIIBBQACDgAAGAQEMAgIYBAQwCAhgEBDAICCAQUAAg4AABgEBDAICGAQEMIoOSK/X+1m94ku7ovn8XnVY1Y96TPXj+PKO6PtvVz0S8xvWo6q74i5Yg9JfQd41oXZEK+r1qq204mryTaoTB1/IXq66OH1N9VC+aTa6/x9inu9TvWJw4xGnqy6M+T6Zb8IqsYk1A62cP1e7RnXs4AZvf6zwU+l+/1F7Q56a6pRZ54vFISBTaKX8vto789Tspq3M+vrjaiflqdkRktUiINNdFr3qAdWHVeeqzld9UfWcaoxW5kdjOEa3H1A7LU+N+VG/3+9VS7f9N3/pCH3/PTHEkhEQQyviX2NYlcLxRtU3VX9W/Vb1GdUlqrq0DzHJ+6NX3a5AvDfGI7rtJTGsuiA6loyAeGdFr/qU6ok8HPMT1Q/y8AiF7N8xdJ5TED4Q40kejo4VIyDzOaxKQWhyW/SqM6IPKDD3xrDql9EnUnj2q91YK6wAAWmgFfnOGFbdp9q2r1GRNrem2faqpAC8O4aNdJ9rqhU3Y8kISLOxv/xh2nsc6b2KdOh2jMJ2XQyTuY9cYX0ISLOTo1c9Hd3ZFhA5JTo6hoA0S4dY616I7rwYvWqu51mvOF9VVU85mVQ3xN2xRASk2U5X9GOiV7n9FrQYAWk26VDuqdGbpFedfXl4hHaqPxFDdAwBafbP6FWvjd7klarj8rBROsVkjDaXvhTDAQXqSlX13XTeB1kTAtJAK+akU0zSIdptrxAV74jupEPFddPeGZ+0448VICDzOVp1RR5uk/7SfzQPx/wl+oCCd2EMq9Lp82ghAuJNuljpWtV5eTiSwvE51bYVXYE4O4ZVW9FHtJk16byvoUnnY2EFNi4gWhF/qPq2q7hrWrkvUqsf2j1Blc6mTaeVfEz1SdXdqi+o6v4eve7m6FVn6Wc/rvpyTA9o+n61V+cprFraCYxhe2ilSMf4r85TAwca9gkszWdHv5x+1th7IDucz7OaTwrTRJrnn9TOyVPzqz/GrtHvf4fapXmqvb8Pm1izuT76rJ5y4Uj09XQtyR/z1Ny+Gx1LRkBmoJX52vgL17TJVJUueprp1BLdL11um14tnxnc4KVXsbvS41Bdnm/CshW9ibUsenzpCsIzVemqwLSP8ogeX/rQhV3RfL+hlvY3Xqb6n+qg6l+a95XqRenKJhYBwVp0JSBsYgEGAQEMAgIYBAQwCAhgEBDAICCAQUAAg4AABgEBDAKCdenE6fqtDEh/+0drvjQ6ytGJZdrKkxWT3vhFSk/ocU76fxroKC3fp9RGn17JyYq7s09P6E0xRsdpWabLiqsf7TrpQ/paoc0B+UX0oc/qif1ajNFRWoa3qF2Vp0bcv5RYq9ZuYiV6MtNHdu7NUyPpAadPWd/2ySBoteNV6f+c1DeltrQOpq+1UqsDkigk7X6A2JW27nsMtX4fJJ7Abf/IEp33TNvDkXRiJ11PZPrgtG+pZvn/HGi3Q6pbtUxPzJPt1vpNLGCdunKYF1gLAgIYBAQwCAhgEBDAICCAQUAAg4AABgEBDAICGAQEMAgIYBAQwCAggEFAAIOAAI327Pk/XYs5r9FMkJoAAAAASUVORK5CYII=;" parent="1" vertex="1">
                    <mxGeometry x="970" y="345.5" width="90" height="90" as="geometry"/>
                </mxCell>
                <mxCell id="35" value="K8s pod logs" style="text;strokeColor=none;align=center;fillColor=none;html=1;verticalAlign=middle;whiteSpace=wrap;rounded=0;labelBackgroundColor=none;fontSize=25;fontColor=#666666;" parent="1" vertex="1">
                    <mxGeometry x="940" y="444.5" width="150" height="35.5" as="geometry"/>
                </mxCell>
                <mxCell id="39" style="edgeStyle=orthogonalEdgeStyle;html=1;entryX=0.946;entryY=0.49;entryDx=0;entryDy=0;entryPerimeter=0;strokeColor=#999999;strokeWidth=2;fontSize=20;fontColor=#666666;startArrow=none;startFill=0;endArrow=classic;endFill=1;exitX=0;exitY=0.5;exitDx=0;exitDy=0;" parent="1" source="21" target="28" edge="1">
                    <mxGeometry relative="1" as="geometry">
                        <mxPoint x="1314.8100000000004" y="1043.675" as="sourcePoint"/>
                        <mxPoint x="564.3908500000002" y="1020" as="targetPoint"/>
                        <Array as="points">
                            <mxPoint x="880" y="812"/>
                            <mxPoint x="880" y="1194"/>
                        </Array>
                    </mxGeometry>
                </mxCell>
                <mxCell id="40" value="scrapes&lt;br&gt;metric endpoints" style="edgeLabel;html=1;align=center;verticalAlign=middle;resizable=0;points=[];fontSize=25;fontColor=#666666;labelBackgroundColor=none;" parent="39" vertex="1" connectable="0">
                    <mxGeometry x="-0.4403" y="-3" relative="1" as="geometry">
                        <mxPoint x="127" y="-34" as="offset"/>
                    </mxGeometry>
                </mxCell>
                <mxCell id="41" style="html=1;entryX=0;entryY=0.5;entryDx=0;entryDy=0;strokeColor=#999999;strokeWidth=2;fontSize=20;fontColor=#666666;startArrow=none;startFill=0;endArrow=classic;endFill=1;exitX=0.995;exitY=0.63;exitDx=0;exitDy=0;exitPerimeter=0;" parent="1" source="28" target="23" edge="1">
                    <mxGeometry relative="1" as="geometry">
                        <mxPoint x="1402.6000000000004" y="821.875" as="sourcePoint"/>
                        <mxPoint x="638.3169999999996" y="1158" as="targetPoint"/>
                    </mxGeometry>
                </mxCell>
                <mxCell id="42" value="pushes&lt;br style=&quot;font-size: 25px;&quot;&gt;traces" style="edgeLabel;html=1;align=center;verticalAlign=middle;resizable=0;points=[];fontSize=25;fontColor=#CCCCCC;labelBackgroundColor=none;" parent="41" vertex="1" connectable="0">
                    <mxGeometry x="-0.4403" y="-3" relative="1" as="geometry">
                        <mxPoint x="-105" y="35" as="offset"/>
                    </mxGeometry>
                </mxCell>
                <mxCell id="44" style="edgeStyle=orthogonalEdgeStyle;html=1;entryX=1;entryY=0.5;entryDx=0;entryDy=0;strokeColor=#999999;strokeWidth=2;fontSize=20;fontColor=#666666;startArrow=none;startFill=0;endArrow=classic;endFill=1;exitX=0;exitY=0.5;exitDx=0;exitDy=0;" parent="1" source="20" target="23" edge="1">
                    <mxGeometry relative="1" as="geometry">
                        <mxPoint x="2040" y="840" as="sourcePoint"/>
                        <mxPoint x="1447.39518" y="1221.78" as="targetPoint"/>
                        <Array as="points">
                            <mxPoint x="1890" y="812"/>
                            <mxPoint x="1890" y="1210"/>
                        </Array>
                    </mxGeometry>
                </mxCell>
                <mxCell id="46" style="edgeStyle=orthogonalEdgeStyle;html=1;entryX=1;entryY=0.5;entryDx=0;entryDy=0;strokeColor=#999999;strokeWidth=2;fontSize=20;fontColor=#666666;startArrow=classic;startFill=1;endArrow=none;endFill=0;exitX=0;exitY=0.5;exitDx=0;exitDy=0;" parent="1" source="49" target="21" edge="1">
                    <mxGeometry relative="1" as="geometry">
                        <mxPoint x="2030" y="837.5" as="sourcePoint"/>
                        <mxPoint x="1443.2999999999997" y="1220" as="targetPoint"/>
                    </mxGeometry>
                </mxCell>
                <mxCell id="51" value="writes metrics" style="edgeLabel;html=1;align=center;verticalAlign=middle;resizable=0;points=[];fontSize=25;fontColor=#666666;labelBackgroundColor=none;" parent="46" vertex="1" connectable="0">
                    <mxGeometry x="0.2749" y="2" relative="1" as="geometry">
                        <mxPoint x="33" y="-24" as="offset"/>
                    </mxGeometry>
                </mxCell>
                <mxCell id="47" style="edgeStyle=orthogonalEdgeStyle;html=1;entryX=1;entryY=0.5;entryDx=0;entryDy=0;strokeColor=#999999;strokeWidth=2;fontSize=20;fontColor=#666666;startArrow=none;startFill=0;endArrow=classic;endFill=1;exitX=0;exitY=0.5;exitDx=0;exitDy=0;" parent="1" source="20" target="18" edge="1">
                    <mxGeometry relative="1" as="geometry">
                        <mxPoint x="2030" y="837.5" as="sourcePoint"/>
                        <mxPoint x="1457.4" y="821.875" as="targetPoint"/>
                        <Array as="points">
                            <mxPoint x="1890" y="812"/>
                            <mxPoint x="1890" y="390"/>
                        </Array>
                    </mxGeometry>
                </mxCell>
                <mxCell id="48" value="queries&lt;br style=&quot;font-size: 25px;&quot;&gt;storages" style="edgeLabel;html=1;align=center;verticalAlign=middle;resizable=0;points=[];fontSize=25;fontColor=#666666;labelBackgroundColor=none;" parent="47" vertex="1" connectable="0">
                    <mxGeometry x="-0.8687" y="1" relative="1" as="geometry">
                        <mxPoint x="-7" y="32" as="offset"/>
                    </mxGeometry>
                </mxCell>
                <mxCell id="50" value="" style="edgeStyle=orthogonalEdgeStyle;html=1;entryX=1;entryY=0.5;entryDx=0;entryDy=0;strokeColor=#999999;strokeWidth=2;fontSize=20;fontColor=#666666;startArrow=none;startFill=0;endArrow=classic;endFill=1;exitX=0;exitY=0.5;exitDx=0;exitDy=0;" parent="1" source="20" target="49" edge="1">
                    <mxGeometry relative="1" as="geometry">
                        <mxPoint x="2044" y="811.8800000000001" as="sourcePoint"/>
                        <mxPoint x="1447.4000000000005" y="811.875" as="targetPoint"/>
                    </mxGeometry>
                </mxCell>
                <mxCell id="49" value="" style="shape=image;verticalLabelPosition=bottom;labelBackgroundColor=default;verticalAlign=top;aspect=fixed;imageAspect=0;image=data:image/png,iVBORw0KGgoAAAANSUhEUgAAALQAAAC0CAYAAAA9zQYyAAAAAXNSR0IArs4c6QAAAARnQU1BAACxjwv8YQUAAAAJcEhZcwAADsQAAA7EAZUrDhsAADJ/SURBVHhe7Z0JvCRFla8zq+rSt6ouzdoNdNPsIDiO47ynM/rm/UZHRQWEQWXfoeHBKDAIIgIiCiKoiCDihqyyb7KoKCIgIqi44PJcQHaa3vdbS3dXZc75n4yTdTIqK7Pu7btVkd+9JyPOiczIyMiTkZFblOv7vpOR0S/kTJiR0RdkDp3RV2QOndFXZA6d0VdkDp3RV2QOndFXZA6d0VdkDp3RV2QOndFXZA6d0VdkDp3RV2QOndFXZA6d0VdkDp3RV2QOndFXZA6d0VdkDp3RV2QOndFXZA6d0VdkDp3RV2QOndFXZA6d0VdkDp3RV2QOndFXZA6d0VdkDp3RV2QOndFXZA6d0Vf0pUNXf39qNgLla5S+dOjmyj+TU38sc+oUqk/134Hfdw5d+dVRvuOtc7zVfzOWjDgqv5rrN1f1Xx31nUN7tYWO47uOv67qVH99QtZKd8CrvUKTulP97Yl9VUd95dCVX1Lr3FxrNOp6VF4ysQxN5YnDqJ4a5NCu01z1jLH2B33l0F51XhBBm0OttNNcQ04+N2ulFbU/ftrns5hD9QPIsatPfrhv6qhvHLryxJHUd24GziyQU3vDLxolAzSXP0X1gnqiijI/R+INv8BhP9A3Du1VX2UHDlpns7NYPKfy+BHBnnuNU/3dGb6/djXVidRTIH6z7lR+0R9nsr5w6MpjhwStsyA7i6FWujbfxF/beMv/SPUS57dURxXTXetx+sKhvfpi2lGq1fGUsN50hh/dP25Pvmao/uIE32/UKRZtnUOhi+nKE73fSve8Q1cePYhaZ7piB7JzNMbm15c59d+f1/M7bLQ0V1M/WeonTghv+OUg0sP0tEPX//A5v9U6017pKDQz9aUbS38XLPgao/IodcmaawKF60LXjQjVYXMddd+OJqV36WmHbiz/AzUr1K/ALkgV1/HXrnCqT54O7TWFV1tE0w5djVAwQV/6FQp7l5516NpT5/t+1bTOmrYdFRVv5WvrkfjwQx9q3c5koYnEQWg34lEr/cjBktpz9KxDN9F9oG4Eo3eIRttZ0EqvdqqP98+DhCRqdDbCtUN40MtW26Fguh5efYkx9B496dD1py7w/TUrgx0Stjg6VBIYIzZv1XNk63+ay/9qYrTdntl+CW1hezBr0EofiljP0ZMO3Vj8a6p0c9+Zb8/JzqCJ3KqzJYRa6UbdqT7W3y8uVR491jxEISVuS8Uel45WutKb9+57zqFrT55DrfNyipmLHEHvGIl3FNdprnyWIv2LN2xezIrd/i6ELrYrD/VeX7rnHLq5/P8HFQ70DogT0MmO0+rD/flIvPLwkeatQ+vOhqBtnYTwqouoe3eR0XqDnnLo2q/Oooscap1Rxapr4XM/MCbOkSDOOqW1hLKovBqk9xG1313o4wEJtk82X7Zd6oExNi1hOqeReI2ge9dD9JRDN5f+iSraCypb/syOEB3oHcRx/BndzBKkNdc5ww8cIJa+oLnoN+SIwfWF1AP++F90ZQuFg1Z6YMd7MEud2m8/Z+aY+vSMQ1d/cZbvrVnFlRzuBKlmrZs7eYzocTaeHztssVP7Te/ssCS4jmpLeLvCbdTbz9ucILqeBOpLNxf/xihTn55x6OZS600xvSNAXFx0oG3aTjus0UM7LInmkt/TtqmN09upt11EI3rbPEErXf3lOTLHlKYnHLr26wt8fy21zpGLHJqE8TihSZuQXUCcddfxqVWrPn6GTu05Ko+eTHU0TDHrDBYrNJH6aBOa2DaPrjGX0cV4D9ATDl1889muOzCdKpfOiZGdocO4uC00CcOoNJf9hRJ6F4/LL9uDaGvb2iWYNV7XoREEtWXUpfmk0aYuPdPlKGz+JppScXVFs9AkNt5JaNJmo1Z6zUqnSq0caT1H5eEP+/jqpHV9QZNw27oRmkAEjorN2KkxaS6mLs0Up2ccuvjW800rLRXcQYROuhYN5dtc1psvLuWGZtM0H90uvX1ijxONttsXkuiaUbev+sTUbqV7xqFBnltptEKqTrnCjc5xIwChXOWHaTQJ41Hx19WotfsItJ6i+Jaz3Vx5Fm0ANoIMke0lAVrXNqkfexkRnYa+9KKnKDJ16SmHLr3tPDc3uDlXbFDhUusSRyhi9NCgMTZ2ACOGXm2lh953k+u41ErrbUVURNtBqCo714WJAz2PSQu6ZqfpuaYUPeXQIL/5G2lqWmlUa0RgExHdThO9gzTWOMM/OhKxniNX3ooOdmpOw23VQjOk2pPmITFM5YO+5xy6+NZz3VxxRrSix1IIb1VvfrUxtAe10vlp8dsFAXH2EQkuoKkv/cjUHOix5xwaDO19JzXR6iJIi9CtvU0o68ZaZ/h7B0HrOfLlrWkbqOiRbTIifWFgp3W00yTG1lzyZ4pMPXrSoYE7uBlVLPaQARUtYZoA3lHGIHYRwhue79R+9Xmj9Q7lPa6jvnSBtoOK3qn0sp22yLVJJ6TO8L+u4lQf/mjS3JPClHPo2s/P9Yfv+VBqRW34n9RKY8fxTrAkzibCewMSRIMdKDYRMnlNpzn/SST2HLmNtre2xxKpn7jtjujKZjs72aZiKz3lHLqx8CnHqyxixzamjuSG1OkVILSXEpucbu15bD0EX20spCv6s2NTJ4vqw+l3GIbed7Xr5NCXplll+7QIOq6x54/rqvB96WGn8qOp9eXPlHLo6sMf8/3qUm4NGgt+a6ydGXr/DbTjBlqVHCdCXFqaUDmai/9IkanB8H2H+t3UC8htOCd+m0YjQlsaHfQrnqfI1GFKOXRz6d+CisLRX1tBrWP6G165DRMugkLBROIjEC7HcjrQpsZYHt7qeXzBWrn/uNTyDO11revmi7QdNKtsD4utKwFx9k6C+qG+dDflmSimjENXH6LWmZyH4QrznObC9JGOht7/HepLb0Dz00IdhWaMtXcheB944R+ClU0iq+/8AJ221lGZ6MBf3t1X6/mNd2jfHvpvtxkJu2WWPUnoLOZ1WZ6JYMo4dHORed+Z/oOJaR1/kt5nzE2n0yseKADMrQXExbWATnbuK1Ir9MBJoWWiqT7ySeqKYawMN5B1NWf43sNTy1Pa45uuW4hppYFeOkyjCUSInccS1E9jDbXSx7M22UwJh648eKrvr6lQBeEJIBnCykI3RMaW6MzQ3te5DnYcrsQFicZe0Bi0PQ6Zn3ayt2TyXi9tot8sByyTc7xV3Q2smN9019Z2CJKVbRdd23U8Dk6n+ln2dKBPMlPCob1F+JKbasauRDyVQl/6gVMkpSP5jXdUy7GpFQKdhh1q79ROwqCVrjmV+44JLRNF5f4P+359BcXUwQ6o+zF8d/pgMKX3ftV1B8q0HM2ql5e4iBz4ti3OroWh+llHrfS9R4WWyWLSHbrygxPMlxaA6oMrXgu1UIvT73eW9/qW6+SoL833S4PlYiWYBKG1nqjABmnZmism/qcbmkup5eP1oywQidOmrnzZqT/+BVgSyW+6SxAJ8wiWj4hE9DqChJaul0M9c10bnZy6uXLyf6Rp0h3aW0YXFHEVrAR92OoD6U+l8pu/nqZYAJqZPdwRIsYmsA5BGkTblB006s7wdw8xyvgzfM+RvrOuSjHdOqM8CIlmw2nMT/8esvQ+aqU3MO+SSz68TdCNABMENvTXBUkAOk7I8jCjfu5O79uPJ5Pq0JXvHU+ts+k7C3Z1QKcKay76U6AnUN7zCuv0GlO3YuL0IBrGWWgiywMJAd93fcmpPX6xto4bwd0DUzdYowjgkMqz+lWn9tiFqeXJb75bdFkRwdahsE1CJZGWWYP6mdwfaZpUh24uURd8uoIkHlaYudPw/fSnUrlN6PSql7cFxNnisOcHuJ04b/wfiQ/ffgAdxWoYXMHW0Uq//HOjdKb0nkuold6QllULS146T9sWJ0JcmtdwKt+dvFZ60hy6cu9xtMPWBYpdKR2EuycplPeiVnoanV51KzKmglZxnlP76fnQxoXaQ+f43iqM6hTTOttCu9CvraTyfJa1JApb/W+aqu7LaESQuJ1O9dOks9hkMWkO3Vz291YldEJXFFrpNcN0IPy/pCWY/Ix/MDE1a9xS2tYp1zg7v7jU3SPo0dCYHzP2dSeQRuVpzPtVoCdQfNfnqJXeiJaRDCmM62KJxAG73CHS6Pmba+kMMzmv306KQ1fuolPSOvwiEyEVGrk7YeJhzYpOs+GqP4XSe78UtNK8qCxrwvDqHDaVLmkwsxibLMfppGIe9BUri7tqFUdK9YenqiemWKdZhZQZocQhXFiaVpc4tR+fGSgJFLawvvgRQh0TIxwg7CB2OcK0oG8/GUyKQ3sr8FDAnPqADrlCJN4u/FTqnvR3Bwpb/jNN7dOrOYUD1mkiaUK4UxC3REAcreIrvwz0MaS5AKMf0ZGj14nycBgEjE4HNE9jYfqLVMXdL3Ldov4u0who225bNwJ0GBfHffJb9hNtwphwhx6+/VAfTslgc+X0JZWhxcbYm0vTf3C9uPuFrju4Mc1vMuJlaWLyCEWw7ZIWsdEkjFMXqLLUqT04dq+XVu6e6/trq5x3SLi+NKHyVJdRC5/+IlVhS2qlXdr1dh7AtoldIzZ7Pi04i61e4NR/NrHD8U64QwetMyGbGVaAQesS1za0utRdGb4j/Uq6MPMfaarOBCCSF9FJ72TXkIM35o/di0vNpbiuMM6MdcX1VW10uag8zQXpwwwU33U+tdL44sfaIMnLMkfskqbn0XYBOvftJ3bcwAl16OHb8Ht5eGPMOJlUgsRZN0ZtC4UmCMlJfTkwEii+5yI3V5ppTq+yrAFxW2zi0jgfiFGrS53q/ev/Wf/wzXR6XodBygnkJjlKPMkmgnpZU3GqP0h/CFWY81aaPea7TMG2JwmIs6GVXjXfqT0y9tcanZgwh67/7GK/1TrT9mnHsCWYUCChiXMYCLotw7emP7XLz7L70lhYRNtMHIR21ggTaVsG+XrUKqY/9Emi9tMLfZyeGbtsQOKh0CRSFiOA7M0FXfSl334WHezoS6O/bvLCRPKKExCuG2L0MJFg3YBos+E0X06/AzNWTJhDN178OW1czH1nTKSCAkMQ6AoL40Y34F2GNIrvPNd1seMkf8mHgS42mkhLHs5kdESRBow5AGloFVdRKz36jwAaLzzGOz7MmwV5G+H1aF0OUJ60hHUKcHvzu13c3tz6LeQBppXm5REgNCJ56jgwalSnSaibOOvUStNZrPbIxIzBPSEOza3z8GKKmR2h0TriWoBOFySdr6TTW+mBbf+NthRfQhsDkDxsxG4LkBBoOzl7c97o7ktXv39a8NkZ6iYOvR7AujJIuiXe0vQfRSq+42w3Nx3j4tECsqxG65IeN08nEZrUl0aDNgFMiEM3XqCN6fQD87oCkkSI2OjoX/ESHzDQOjH49jPcXJn60txqkCFc3qBtoxEqB/qulXtOZG0kcPfAzm99BeXBqwJ3pL/uWphNrTTcILK8CUcjQsRG5cEdoQfGf9D0cXfo2oOfCfqHcReC+ipep9nIvHpZieNdhheeMEpnClv/K9WrGa9C6JSvLXHEzOMtHtkQWZU7j/X9uvqZDY3KNzaubXFQWnNp+qsCg/9+etBKy8EOJG/RNbbNnjcubqS5cP2uNbph3B26Oe93tKfNFra1kNBJ4hxbi8C6Mpqot3phoCcw+A5qpTfaJlwmFEHHbXhemsgy9rzG5tdXO5W7uv8UyVti3U+XvPkgk0wpAJImcDrB/X7o7eLiXnMXDB16u+vkN6AYLSTLC6KHdppEdAkte2hTgvfVx5lxdejajz5JfWfjbLxRHAlC0SM2sYvYutiUHQoubLpg6JCbzLAHZlmdB7DtMMfGLQmXJ/9a3N2nSJXbjvb9tRiknJQwHxNX+YWCicwXmRehEbmoNfb8zF057IbchrOiyyOLSCgSo2OCsC0daQY6uAqz8XLU+DKuDt14xXwLxxupRLa0zUaibWEFxQgw8fwm2wV6F+Smy44jRQQtYmxLF2MDtk0Ewdoq9V3TH827xU0wDRSZO3Z7YYNQ3MaeBxgdr4qW9v1ahyvNdoYOvSVopSN56tCIENpoEsbj9MCW22hrOkt+vOvyjJZxc+ja/WfR1bv5CWMb2VBNnC0JU1H4qrl84HXd77jDbnXdghmhU9PtumU+Xr8SgeLNRel96dLel5gXqMzCdj4ascs8et4OttwM89nVCMhvZoY9SEKvx0anhXGa0IEydBh1ayaAcXPoxssdWuexFDpYcjN3Q2RE5DZGX9oqG9B6mtiEdtpv+GD0lvQxpvNb/RMtQ/PLsp0ExNkhAus0oTMN3mEpf+CKETsQNww8HC/lI/mPRAQdp2rm7swEMS4OXb33tNYrkCBuo20kzZ5X6xGhHTdQcsof+vrId9whN7hOYZDziM87RUCcDZi4tzT9g9rS3l9sPfTReYVCE4lrwnTWrHTaNBwoo4S7b+iC6XXo/G2bDiUOWKcJWufDb52Q1hmMi0M35/8p2BjAoYrrnYQ4+q6oQBDOSyLzMZad49SYbImXj0ZHfsbrVF6WhHYTcFnEJnFg2dRy+L2W4esPDJQECrPgfGilZVkj4ToMUOWiLTIfBWGcDvJpGzrFvb8wagcqH3K9625Q4rwkT8k+iIdKEHCobSRSThLuxkwgY+7Q1btOCvrObadSTFScJTBxRPSIwAZRNsCn1Y2c0gcuG/2OO+BK1x3AqEKk2AI4rg2EqGyiidZjxFs5jyLJFPe8wHXLqpUGOgzrwBjZpoUmEqfdWdh6/e8k5NBKS5eMwTrUesIWXNm0MLi+meaUD+7++mYsGHOHDt7nFUUJ0HqaAB0HoU6t8xbymdXoyUkrrdcj8TSJOy1rQauLXwK4/mDWkhjY9v9QYTr8IkE3Amg73NJmTvH9F623A5UPvqb19byg1wVET5DcpjtSZGIZc4cuH3QVXb3HfF0s3YqRoCqHBVC+OWrRSvtesv477oBvRcsarsMIkBCIvZNN7KHuOt6yF5z6Q1+UlFgGdzdvvqEc9oGi0bpO55D6zrPT+86VG4/waw+kv86Z2+L1rXXo9XQSgXVc35Sp+3Jt6j7q5oAfCePSh87jlpHZsMhG653F/SyldxSa6OWoyPk5b0Ykkepdp/jVu/6bl0gi6EtTRIsQKa8JBXteEGfDizkvpH+qld+OWml+NG8MQPKLEyBxdMHKM5ziXp9LdaDmkuecxvPprwqU9/9a8hBiQOK2UHlym21PkWRq953pe4v/7lRuSX8zsFvGxaFLB3ydWr6h1ga2IpFom8OHQhMIY/YR2z3acXRa3eMz6Ttu3lNO89X0dwdK2HFcVqyTDCyIh0oQCMrcZsckkg9stH9XzHPqDyb/Xktx9zNdPHwI+q4mDxDmZwyhXUKKuHmnsO1bjaEzle8c5uOWoj+81Kn94FOSQ0fyW72htW4O2WxhEsJ0XN8MUbfl6tR91Hj1DzS773iL0z+p65ZxcWiQ3+qNZiPVxnJcJMYGQ5hG9aHTINSCFXb8d0pMpnLL8b6/pur4a1Y71Tu7aKW3/mfKnyLhuhDXAptRwnmUjrMNz2gCPQ90r+E0nkt/fbKw3b9QYdSjecmT1xNTH0bc0iZO8b2fTHSg+iOX+s0leKWUZsOnUS91MYTYfpe77qAMIWaJbLMJdFpuJoZkSwatsz+MIYJzwfvbN47NQJjj5tClD13aehLGG2wkiUi6NTMqavosp/juM1KPfG/hX3l+VHrzlfRB00v7YtiDmL60Bjbbrm1x6SH4YHSRU/tRct918J0fc3ObmBeogOTJulpUp+Mg3/7fAj0B7vbgIwLGdfzVi53aPR9XmcaT30INIQYQF72tG2b6zgekP9RpvPhrWh4ZBDTHqJUeN4cG+a1wJ8LaNqmQONF9Vtuew46jfmYKlWsP49Y5WC/eU6451ZvThxDLz5bfEQ/0tjIA2zYSob5084X0T5GGjrrFdbt+Wod3JOggf+/ZiQ5Uf+gS31v2Is2vt893Gq/83iidCVrpjbhxCJcFdpx1l852qMdkand/3MdoT2F9o1xr69RKz9W5jopxdejSfpe5/BKOvXMEbUu04yJjB2fwXacl7jjQXGae0IXLkm1hF+9WfPBLLu6ecFmBLK8FxNlFQJwdQjvPW7mAWsX0wWBym27bcqAkwUG+TfoFcuPZxxz+AFcvi4O9spyc6wzWksjP+V80u3IVWULnR/XGzwbozIykJBqvPBW7fc2F6z9o+rg6NMjP+kdTYEwM9qkKiB6xk4LlqMUaOurG1IqqXHMwX/S0+puwopVeTRdE6X00Liu3GmZZFh03OhAdEz0P4Liy8TLQPacxL71VLGNb+aGPyQNwaHQW38lvMscZfM+ZifVSf/CLvrdyPsWwXRRwPgbKo9HFWaO07xeCLhm6CNJLkHzC8lD9bZn+bKB664k+DqQAWkiWBxhU/tr1G+hxvRy6clP6y+ylD16sLizIEO5cS/TGsYiOHUf9yhTqP/6i31wsX2hgQRNy3tQ6dtFHK+77edcdmhG0HmFBgAk5LwlJpIwMRbjVgUGMKs4BHVx0IYRTLtsSyM/ErU+zfLjeIOBIbsApz70t9SBvPPs4TfBxshyoEFJNnnzhfHv6hXNwJoC7qOU5jyB0S5s6pf3TW+fmgr8EywPJR6ClvaXr9zNx6+XQHhVu+Kr0G+OF7TEGBK2KK4EMHYUmoQS6uwFdZBxzU/qOe54ueujqnZcDvLwRBDj6r0v/yYTCdv9KtRL31I4mtg0k6XHSpFb6xfQPasuHXRW8+RaemjExIbWUuU22DvQEat//jO+tMKOYyvLA2pZubm8W973IzQ3JI3q1PLfYrlOYg+Eikqne8hHqO68KFFkehPnRAU996eFvp78D04lRO3TlmiP44stb8rxT/8mXEwtQ3OeCaF9awxsSRCOhkdyMndmURP3+C3xv+Ss0v/F7yUcweTUXddFK7/kp2nHUSuudpomzaSTdFoDQpZ1GF0TVO7sYsmu26QIJnBdNCoPO0LHprXPzJbzCa40xLfFQqDzVlXRBln62zfOTSBwcgR6EaJ03ZodnWwLNV4L7ziG8/iCq8ZanD0/RiVE7tLfEnN7xkSpOaykUtqELC1md9KH1xkg8DNE6b+iUD/92akU1nnuCy8FIvrZgR2Cgx6vTf2insP3bglZaiORj0DZbNHF2anWbL3dxO/GQbwQPfawLqHw3T+Hu/RT1nTF4jao+XQYN2b0F6RfOxX0vdHMbbkHzm7408sOnVTirpVClAwZnyfCAEAERndLpArZy1eh++mNUDl257hjfx3C4pkVE67jmJ5cmFoArYzoqQ80mGxEntGH5rTH0azK1+871vdVqzI8UaS5Jf095cA8zXgUcSR98IsC2iQA7BBI3p2i/ssKp3pw+7EF+C/NdIOaE5KnvfMwNykvjaTz3C1qXPXgNUhShjcpTH3YqN3QxOA2cF4/osSDtS5zNivucn1qe5nzTd9YCbBuL6+B6qP5g8pk/jlE5dHMBHlxQBM6JsLHWWfe3n3JaEnz7B6vk5SwRWPccXEiWDkx/PZR3HH66ASAbFpMni7ZRiD7aFfsilkhhu7fQjkP1mOVkiUjecYJ5SHAwANHFpuZtvpr+616lQ78e3Ac2j8TzW6Z/+Fq75xzfr66g+XGQy/ooAcIHqRG2IUSETHC6FIp7nUOttOmSUfeJn7KmwN3TeiVQ1PrCMrEYO+KALmQbz458cJoRO3TlagxWbobDDcGAL/Oc+g9T3lfY5zPqwsIYBejhhnZ5kXH7aT7eS2B4UeQLYYsBSsTgeKsW0NF/WdRoMbjHmS7fD+YyGdFOKkhyiFJkWS5TZCZ2BlwgVW/8sJXQTn5O8KmWOzDolI+8psvW2TrIW5EwUBEG10SVa4+OGmPI74AXqfJObqOt6Mz72dTyeItixgcJ60RCwdjgU8vwDkzymd9mxA7tLaZTtqxTC94qQ0WmUNjp/9JazVtlEaEJQnIa3Dor7n9x+mnsZbrIiLQ0gZ1hW4yga4Kj/5mfQUlk6AQzXoXOW+clNhCx00TrgrYZaWAbUijtfwldVE/v6g226m04yJdRDK1zYGP0eoHWld1b2M2F81l0sG/j5LdP7ztXrjo8vu9s1tdmEwF05m88nX7m14zIoSvfRuHksbKCC4Aj6hU63SW/xTWIypALC2BvBOVT2KaL1vmGE8wNelVRQOfXyY6yLn3RqX8/fQDB3MazovkAiWu7xG0BcXYIwO3E69P7rgO7vtMpz/2OVfHtNF8xI4/a67IFtNnprLGm5gx/4wCZoyNDJ9zhFvdMfuQOmovMGHtt61ICYu20n5ZTK31/8plfMyKHbi5SP/QDgU/KRROg01zzxfSr9zzeKsOFhfHpELTOG23pFD/YxXu986j/GTlVEWFrHaiRcmo78Dyn8XwX71b8153B/WC71Y1sN4nYbXSaFoX3anrfdXCv5LfpQPXmU4LWmfvOZLDWE9ElPeZsgoZpLKh86xDTPe1QdLO+1vppYtv4zN/9T3907dCVbx8RLZyskAsBgTHneCsXOrV7z2OtE8W9P+nmNplDy9DeljzgjLm8M4AuSQqV6/F6qFxkKGFMJNSBUqS8hLf8Vaf+vfSvN/IzMF4FRUQYo7BuhVo02hbG0SpWnMqVh9lzj5jmS09RntbRxVGaSO4SFz3O2dbVnco31+9LkvqDX/G9xeapn16nFiChxrJ5y16mM/+n4+Zso2uHbnLfSo58mrBTqHVIoXFf+pku3v3dAa00nsiZ5ShEV2Rwz090OJxbcN9ZLdcS6LYNIjZJN4KyPp1e1vJxGPYArTQOQOQDoQQWE8ck1DuILCTx0E47TXb+KKnedLKPsfVa+whCk8g1hh3voFMe6CrUf/Ql1kZD4y8P8Q/aB/lDkLcttl10bac4v6nY3U9bdOXQw18/yMftrgBZYYzwhFocfBHx3eShUwf3OIMvLMJC5wecwuvfFSQmULlS7rKYHQcQiiQh6xJc6qMNL3Hqd6cf/fktYz7V6rRU0ny2jeNUZ9SXHv7G6B4mgOaLv1fOqySVDjPhYP97+kV+HGse+LLvrcALUYQuR1tcFELS4uy0r71VOPOn/9hpVw7tL8Uvg6ojvxOSRv3T5vPpR9TQieif4i6C5+Q2394Z3P2U9NZ5IV1k6HLY5ZG0OAG2DX20Z9P7aOW517h4r6TzTlASh52OEL0DhRe+XDUyKlfP9f2aaZ0Fe10infr0Wsw8ONXXfzjy3zVf97dH+U5SW3kk1NsNXafZIjS6O/OnOvTwFQcEo2Rqh44TEMbpiEJf+tb09xVyG29Nzd8GTmHH9Jf3h7+6vzlTJJQFxNlFQETH0b+ou7LO3Nla1oQjERAXx4XcurV0Nhx539VboG616byB1nWYJAzKs8Zp/JWccwTU7jnf95biXYwO+0iIs9MiIW3pdBZbTWf+u5LvoiU69JofX06FM7/bbK/AFvvIx10EnAZTGNj17U5+9hucwfecrDenjfoPLzFlsSuKJlqPO+2KgIiNJgiprF5lBUWSKR97tesO4r1gs5wWYNs6iSZip4Nr0XO8rdC6oXLlUdR3HqaYqReB86QJh6MRTKg81HWo33chlK5oPm8+rYrk1UEAx2kSe+agicQBvoV87kmjxJPo0I1nHuejlCsrFrMmWSHgAmAS9KWrtyZ/ETFt95Pc8tyrEp0ZNP72GE3kZ894JYFwgBARGzMPi0RpYlQG+gZFp3zMlallAPlZ+ACUMwpE1g0VcDlCxYRA7CQqGqAUPEz4a/cPE7wFT9OiYUYqK5pIqIKWjjA0GrRuqoMv8tNfPgO1737ax33jMJswu7h1EWIWka6I1GmgBGJUn8+mn5DENjo69JoHLveD/iqOfGQYJzQjQl6hEVkzQF96lBcWmtpd5wats5QFWKtidJnCuIi2ReOBk3ZH6SgM0aDGqxAkT46LLqHEIXH1qZehhmAVXrZKp3bTaeopnOQlEszTylfZEQKJ22laRyu9/FWndnv6L+byhWD41iNmV/mwiK4kWEkrzqFBklmQRiHO/C90fp+8o0Ov+8sj1FpQx94cqNHMlQixdto5eF/hhvQfgkyCLzD1C0gavc5uRGAdr6iW6IIv/RVVTR4vLoUVQ9jr0AIiNpqIHeg0hiI4YLogt/m2NMFFNSm2aOLSRyJomF5If2BWPvqb7V0yIPEkATrsJPAp3EW77SzWbDo6NF4MCSIksmiYqcK26XlN2HwpvS/didod5/jeigW0HcaBkK+UKbbfZaQbaL787O5bZ6F02JddtxjzJTSw1x+XLqE9L59yXaewXXcDLk6j647cZubWp01c/hrbnjQvbm/itlkHJ9Lkt9o1mlfaEnpeIHonAWiln4kf/SnWoYcv/VD8U0FBryBN+Iha7lSv/i/WRkrjaeq/oXUO8zOk5SbzdxJyRjhlaW53fWeb/By8q02L2vkKosNJ9YEHJC56mI5hCbZ0igd2P+Di0Mm3uy7Guk66GI4TYOtA27Tg07G/p9/e5PrcYARjb4M4Wyc4nXyqstKp3tj+k9RtDl3/3sU+v1EHuFBa4mxGuEJJMFMkLTA156W/r2BTvel0HwdDa706lLgWscel2YILvJGP/i+UDr/MdfEqLF/RB/m11itxEiG0I1TCrbKJuzknv336sAQ2uRnbm/xICUOJx+labLvo1jKIDq9wajenD3tQ2Na8XGbnYUuszyTMHwrmoW7Qi+0/1N/m0E08ZNDfoUUEE4OdBjrF8e5vlY6oq9Pf/dU0n1Oj6/CSVuZaFSIbbQRE4midpzulY74+qtZZKGxvxqtQ+QZxWRl0EbG3AsYVG7XO02c6xf3OG3GZyife5Lob6GEPMJF8IbBDjA4kRETsoQ3AbtKM6vi4bUb7JIXS0RgvkPrS4asCZBSJI5JGkbj5ZB5OMzNwLyJKm0N7S/GxqVHiCDNNQKeHlelTXzr93V+hepV5PVT6zkDWLQJ0iPXEoc0cp37qDiNvCW2KB11ErfRmwXr1uhEV0WibngeCQWN2eztFRkcOZxspg843DrHHzcPbgjBQmTCO7uMyp3rtSfZSbeRmvc7ELCRvyUHnZNu12JAtN6v96502h3Y3mmliFnGZJtFWEKqM+jA5anetdPMVvB5KES2arnIx6Hlph+HzruJhX1qv1lko7ILfEe/idxLjtgHARmeh3CZbOYP7pL+Y1Yny8VdTqyg/JZGCzJJUJtseLoMPfNOHPSgfd6WLr8EjB1kccevSxKXh+gfPDo5rvzvV5tCFnWNGkxfseJwACYG2d0nlG3N9v4rxG6zySl6Sn9aTBIRxl/qp+LZxbCju92k3t9EWXMmRdfK6YrDnwQ7Hi1k7vY2U9YNbadC2DkuAhCAuHcTZ0DDhA9+rPxKxxpGfIyNRBXokPxHZxXFpENBmo324bfwYem0OPbjPGW5+5o60IC3JCxMSgjBThbbZ8wqUHz7JL81N/zFIDy/vA3s9Qpwdtk7zC1SG3PQZTumIL6eWYSTk0X3RfWlBymQuA0Ks+XIztnMG9z1rvctUPv4q/lQrtVXUSBlttF3ioU6tdBevNZSOurxVHr08CPMyIbDnseF0nGE3JD+Kv/5pc2hQPuW24CIDOchKtGAHhbpK0AWHABXPb5M+LEHliiPM0y+Dzi/MiyahHhoDuAwQWyeh/nh+29H/5Fknivuf5+Y2N799CLBuKQMEaBuQMqHvvMv6t84C37nhdQV6GJf1hWLsguiSJnDcGDjdRNF9/HYXo7puhzse5HvIF6g8wnhknSoepoktSEh6dhDr0CC3xU5BRpK7CUKbTmPsA8ak8Wx0VJVwzze5da7f/xW/+aoMkWAEk8gGSVyh0wReJqrzXYRDv7jeLWEchZ3eSpVmPliQcuj1h1hlQuu8V/qoqt1SOu6b1CqaOwxSJ5F6MNKKqHQK2SxpYgc6Dgel65wXzfeLCZSOvNR1y9SXxgKcBSYSRzSMBHGoEsp8YRx+tDFt4zc61ldHhy6f+B31GNPkGq7cYMyBIN0YJa6W6+aJXOPPP+VxM4JlIViWkwgTF53TlE0LE1R6KPjZhp3HriW0Gdz3E8FTO92XBmE5lR1xXNgMDDpDp94x5gdYfgc8aVTbD3QchP5ujFI+gdMgxh7GjUCtr3YqX00fLTQ/J+6nLRDniLIpZF4BcZxht0sef7qjQwPueMttM3ulWpe4LYAK5g5t6pSOTb7nW//el31vCd6jtYok+Qg6bxBZlw5pEup4AjfTGdz/02PuPJqBN7yLmmrzQa2AqFK1ntu8+x/dHwncKqIx0k6h1tuGnaZ1Oy2C63gL0z9KKB1NfekNN6cYZST5xeUpNj1PaCM/wpNd2jZjiSXRoUtzvxrcekGrI+iVAB0HOp3D9KMKNP74oIOPM2ORPCVfEKdjU8UuaQipK5DfJf0DgvVl2h4nmXcrSNFlABE9aJ3LHx2/nwwO6txk37EcxEjTtOCBGYYQuzT9o4TgzpK1uXZ+IC4n2PAUtYtnB4kODfg0nVOzxa1QkIJJufmomk5HVfJdhfodn/W95WZQ7jiS1qmJmw+t86ZbO8X9PpVYhrFi4A3voL03QDGrMJaamz36x+7dUDqGWsXpZqxrrDu2bkzYDXF5GFtXrfTh+F1zdV9a0GrHOM7ymzmlI9KfHaQ6dPFQM8giv7NgjAjjREChIXRUdXMF33gao4fi9VAqr85PBCA/vXNihSa2jjLsnD7Cz1gx7X0nuvnZ8kEtTURgMDb8JHP5I+k/Srm+8F0l7jKqcrAE6QzidlqcCKGNJmZ+fKJXuTT9A9/C64IhxCLr4QxIzA2ilt2EHHedwrbpd8hAqkMDdggevoty55VIaOIaNQ/6zsXDPp+442o3fMIPX1XVcD5ajF2ArVUIo1uQKTdjW2fwg+kj/Iwl5ZNvNMMekBIRmpDkttqFlPGndOSXglaa6waNhVQDykEBXxgiYkDUlDEUjaVqvTn/Gad+/+X2HBGKh3zOzW1oXhUAHJgy4Z2WyHqN4APqjbdwikd298vBXTn04IGfcXMz8YPmWAkhRz2vEIEKQ/BELn1Ir8azT9Jy5vCUjdHZ2Mg8HFcCOE4TkcIGTuEf/iNIm2DyW+5EUymYQAf54HSnfNL1Xe2csWDgdegy4tE8Vw7906o5anSgoqGDCbo+eXmRIDkEH9T+6WGjdCa/gxqBNswviDLh6k05qUXP7/QvgakLunJoMLDbv1NpZOBCqxAIpTsAKB3v9ZaOSB5wsXbdx3x/FUYPlUpmMxFGArRqJTF2OoTKk9tktjO4138nlmG8KJ9yUzBYua4rlGnWxLTOwuCB51GXcSatX5/TTRArNEEoiF3QeiTNdXCXas33k0d1xRk7t/GWtJw1m50n0lFfeHZwUPr400LXDj3t/ae4+a3MwxY+VRmxgQ1H1c7pRxX3nbvtm8fF44ShyMA0p/DGdxt9cshtaYY9AKi34kbUd07/yeCxJr8LfuMGYwlSGVAeKVMS9nxxuiDxtWucdX/4iVE6k98JY2+b94WADnWcziyF3dKHhtN07dCgfOotLn7HubVWg1J9clBckRYPTj6qqt/6sO9X1eAoyKObXY35RIAJuWEROx0jeNI5uOeJE+48mvLJ15mndlQo6qYVdkjvgo0HRXQZNzM/MiR11C0yfyeJELTS9TuTR3WFb/B9aWnMbAHwo01mOYP7nzOifTgihwa52eabMcHEuSxoAXhIr/Tf4268ELwb7WNJyY8zaUngpDQHi9FNMmN0gK2GYF4HT+BOu3lSnVngd0eoSHz78tjLJ61MOGPSCZyEazyoO0RSRKKA69YQ2k0E+55zxkhUT3cxTji1vD5uNMBnDKZkQZ54x+V16T/IbzNihy6feLXrlqYHG0Ab2CoOQTpepSwemHzPt3LZET6+CZMLlJbTigS2IEILGAk+7oCNIwGWCnLoGk0RSsd/zXWole7mAnk8KVJLl5shH9Sa/SZ1Z9Uf4KpXdt4fCMOZ6QKX54HF2MxdFG/xS07t5uQRjooHnkt96S3CfDkLieLOxoxtucyBpXtG7NCArzrDR+JwQCoJBH2enfGJfzLNV4Ohq1qVY2PZWTUVJ0mIcmUEwhVLFYGX3IdOTf9dw4lk4J92p9b5K5NepoE3/Ad1XeV2IlcgIsEf1x9sMLfSOOS4gVVM8G/sFLjB+ZEtPrfS6WNvF3Z8M/tM2LoTyNvFWX639B/kj2NUDl065hI3N2T97iDF+ag6OPmbuOFLDgmGrpIDohOSr2DpXAGwaaGKyW25I0WmFsWDxvcdkm4Z3OejrrvZrNZpPvDBiLCzdkLmE5QuTh44NvWlVyygVvpcPXcbxUM/6+Y2xzjhwbIM/GjT2c7gvqePqs5G5dCg8Hq6+sSVKkBh8gVnYNfk9yXq913mN+dh6CpSRiJCJzugikA/deij6b8J/lpmgze+23EHqJWWO1VCXN3G2UDcsobwgKBWet1fHgviCRT4PnnrN3dQtoE3vTdIHAWjdujiIXR00ZEUHF10VG02xxn84BmJztTABq5VYzvbAuLicSIoW37OyAeNea0x7f0nu8FZjCpM16NG1WmsCHY8Mo/r+CuXONVrk3/XvLjfWW4OZw0cJR76zts50/Ya/d2pUTs0KOyG7w/p6KI+D/pnSdTvvtj35j9L29mhrJHKUMTpItJSoHUeLNMF68iG9HqtwmdXec1V6lIjurS2cUgaL99hPnLQxrPpv2tekBe6qEwjve9ss14OXdz/bDe/xQ4OPj8a/M+PJjrTuqfwEwVro5UVChtUaOKsG3QccCW2Zsrv2N3wWRnUl97rJJcfzXP10SSoQl2dKjQRng8icYSdhCZmOX/FIqfyzeRhD4ofOJ1a6TlOftbO1M9PH/Q+ifVyaDB05p3uBm/a3Wjx1G67wPeWvWo2Nji1tCoIIrqEZj4RmZ8vZsSO+WDz+LOc8glXZK3zCBj6+C2uO61o6hZ1bOoTlR/WfauOwzjbMZvEEWpdz0uCX0Z7Ln2gx4E3vtMZOv2W9d6HbuJV7RhRveZ0cuj5QXdDVkdRKT1MiKsknuJOhrYL4XKU4LrUf6ezRPHQkY849Fqnet2Z5k1HU+O0f7jOTYW31TvNxnWO+WkmcR0sjajsAHs5LDh0yvi/LgsmxKEzMiaK9e5yZGRMJTKHzugrMofO6Csyh87oKzKHzugrMofO6Csyh87oKzKHzugrMofO6Csyh87oKzKHzugrMofO6Csyh87oKzKHzugrMofO6Csyh87oKzKHzugrMofO6Csyh87oKzKHzugrMofO6Csyh87oKzKHzugrMofO6Csyh87oKzKHzugrMofO6CMc538ADCkupcAkH+0AAAAASUVORK5CYII=;imageBackground=none;opacity=40;" parent="1" vertex="1">
                    <mxGeometry x="1560" y="721.88" width="180" height="180" as="geometry"/>
                </mxCell>
                <mxCell id="52" value="Mimir&lt;br&gt;- Metric TS storage -" style="text;strokeColor=none;align=center;fillColor=none;html=1;verticalAlign=middle;whiteSpace=wrap;rounded=0;labelBackgroundColor=none;fontSize=35;fontColor=#666666;textOpacity=50;" parent="1" vertex="1">
                    <mxGeometry x="1480" y="883.75" width="340" height="110" as="geometry"/>
                </mxCell>
                <mxCell id="53" value="(not implemented)" style="text;strokeColor=none;align=center;fillColor=none;html=1;verticalAlign=middle;whiteSpace=wrap;rounded=0;labelBackgroundColor=none;fontSize=25;fontColor=#666666;textOpacity=50;" parent="1" vertex="1">
                    <mxGeometry x="1480" y="690" width="340" height="70" as="geometry"/>
                </mxCell>
            </root>
        </mxGraphModel>
    </diagram>
</mxfile>